M48
;Layer_Color=9474304
;FILE_FORMAT=2:4
METRIC,LZ
;TYPE=PLATED
T1F00S00C0.7000
T2F00S00C0.7112
T3F00S00C0.8000
T4F00S00C0.8500
T5F00S00C0.8900
T6F00S00C0.9000
T7F00S00C1.0000
T8F00S00C1.0200
T9F00S00C1.1000
T10F00S00C1.2700
T11F00S00C1.2800
T12F00S00C1.3000
T13F00S00C1.5600
%
T01
X71628Y93832
X7747Y98425
X71628Y105304
X7947Y98425
X81006Y151384
X92869Y145669
X94869
X78506Y151384
X71882Y150495
Y152495
X50313Y13843
X38841
T02
X56007Y1013968
X57907Y1095502
X64958Y953262
X857504Y1079246
X943102Y1222248
X968248Y1254252
X107555Y126633
X11303Y128397
X105918Y147066
X961136Y1533398
X889Y1560322
X865886Y1393952
X1079382Y1626108
T03
X92202Y151638
X93472
X94742
X34925Y150876
Y149606
Y148336
X92329Y159004
X93599
X94869
X94615Y166624
X93345
X92075
T04
X45466Y1113155
X48006
X50546
X53086
X55626
X58166
X60706
X63246
X65786
X68326
X70866
X73406
X75946
X78486
X81026
X83566
X86106
X88646
X91186
X93726
Y126746
X91186
X88646
X86106
X83566
X81026
X78486
X75946
X73406
X70866
X68326
X65786
X63246
X60706
X58166
X55626
X53086
X50546
X48006
X45466
T05
X54864Y131953
X57404
T06
X10668Y150495
X10922
X11176
X1143
Y158115
X11176
X10922
X10668
T07
X33147Y9335
Y10223
X40391Y145161
X49271
T08
X46355Y93726
Y96266
Y98806
X48895
Y96266
Y93726
X54229Y93853
Y96393
Y98933
X48768Y105537
X46228
X43688
X762Y104775
X7874
X8128
X105156Y105537
X107696
Y102997
Y100457
Y97917
X105156
Y100457
Y102997
Y108077
X107696
T09
X37719Y9398
Y9652
Y9906
Y1016
X55626Y140208
X58166
X60706
X63246
X65786
X7239Y140589
X7489
X7749
T10
X78232Y164338
Y1743456
X107696Y175006
Y172466
X115316
Y175006
T11
X95504Y175895
X98044
X100584
T12
X41081Y15295
X48581
X30353Y160528
Y165608
Y171704
Y176784
X41081Y17833
Y17325
Y16817
X48581
Y17325
Y17833
X123571Y176657
Y171577
Y165227
Y160147
T13
X56515Y151163
X64516Y150775
Y160775
Y168275
Y175775
X56515Y176163
Y168663
Y161163
M30
