M48
;Layer_Color=9474304
;FILE_FORMAT=4:4
METRIC,LZ
;TYPE=PLATED
T1F00S00C0.7000
T2F00S00C0.7112
T3F00S00C0.8000
T4F00S00C0.8500
T5F00S00C0.8900
T6F00S00C0.9000
T7F00S00C1.0000
T8F00S00C1.0200
T9F00S00C1.1000
T10F00S00C1.2700
T11F00S00C1.2800
T12F00S00C1.3000
T13F00S00C1.5600
%
T01
X0071628Y0093832
X007747Y0098425
X0071628Y0105304
X007947Y0098425
X0081006Y0151384
X0092869Y0145669
X0094869
X0078506Y0151384
X0071882Y0150495
Y0152495
X0050313Y013843
X0038841
T02
X0056007Y01013968
X0057907Y01095502
X0064958Y00953262
X00857504Y01079246
X00943102Y01222248
X00968248Y01254252
X0107555Y0126633
X011303Y0128397
X0105918Y0147066
X00961136Y01533398
X00889Y01560322
X00865886Y01393952
X01079382Y01626108
T03
X0092202Y0151638
X0093472
X0094742
X0034925Y0150876
Y0149606
Y0148336
X0092329Y0159004
X0093599
X0094869
X0094615Y0166624
X0093345
X0092075
T04
X0045466Y01113155
X0048006
X0050546
X0053086
X0055626
X0058166
X0060706
X0063246
X0065786
X0068326
X0070866
X0073406
X0075946
X0078486
X0081026
X0083566
X0086106
X0088646
X0091186
X0093726
Y0126746
X0091186
X0088646
X0086106
X0083566
X0081026
X0078486
X0075946
X0073406
X0070866
X0068326
X0065786
X0063246
X0060706
X0058166
X0055626
X0053086
X0050546
X0048006
X0045466
T05
X0054864Y0131953
X0057404
T06
X010668Y0150495
X010922
X011176
X01143
Y0158115
X011176
X010922
X010668
T07
X0033147Y009335
Y010223
X0040391Y0145161
X0049271
T08
X0046355Y0093726
Y0096266
Y0098806
X0048895
Y0096266
Y0093726
X0054229Y0093853
Y0096393
Y0098933
X0048768Y0105537
X0046228
X0043688
X00762Y0104775
X007874
X008128
X0105156Y0105537
X0107696
Y0102997
Y0100457
Y0097917
X0105156
Y0100457
Y0102997
Y0108077
X0107696
T09
X0037719Y009398
Y009652
Y009906
Y01016
X0055626Y0140208
X0058166
X0060706
X0063246
X0065786
X007239Y0140589
X007489
X007749
T10
X0078232Y0164338
Y01743456
X0107696Y0175006
Y0172466
X0115316
Y0175006
T11
X0095504Y0175895
X0098044
X0100584
T12
X0041081Y015295
X0048581
X0030353Y0160528
Y0165608
Y0171704
Y0176784
X0041081Y017833
Y017325
Y016817
X0048581
Y017325
Y017833
X0123571Y0176657
Y0171577
Y0165227
Y0160147
T13
X0056515Y0151163
X0064516Y0150775
Y0160775
Y0168275
Y0175775
X0056515Y0176163
Y0168663
Y0161163
M30
