G04*
G04 #@! TF.GenerationSoftware,Altium Limited,Altium Designer,23.0.1 (38)*
G04*
G04 Layer_Color=0*
%FSLAX44Y44*%
%MOMM*%
G71*
G04*
G04 #@! TF.SameCoordinates,110CD8AD-1924-4517-BBA5-4E1113904411*
G04*
G04*
G04 #@! TF.FilePolarity,Positive*
G04*
G01*
G75*
%ADD16C,0.1000*%
D16*
X1103710Y1235710D02*
X1113710D01*
X1108710Y1230710D02*
Y1240710D01*
X1024852Y1296670D02*
X1034852D01*
X1029852Y1291670D02*
Y1301670D01*
X1099900Y1300480D02*
X1109900D01*
X1104900Y1295480D02*
Y1305480D01*
X1083390Y1651000D02*
X1093390D01*
X1088390Y1646000D02*
Y1656000D01*
X911860Y1362790D02*
Y1372790D01*
X906860Y1367790D02*
X916860D01*
X448310Y1646000D02*
Y1656000D01*
X443310Y1651000D02*
X453310D01*
X797560Y1508840D02*
Y1518840D01*
X792560Y1513840D02*
X802560D01*
X716280Y990680D02*
Y1000680D01*
X711280Y995680D02*
X721280D01*
X636232Y927100D02*
X646232D01*
X641232Y922100D02*
Y932100D01*
X495300Y1310720D02*
Y1320720D01*
X490300Y1315720D02*
X500300D01*
X887928Y976630D02*
X897928D01*
X892928Y971630D02*
Y981630D01*
X924640Y1046480D02*
X934640D01*
X929640Y1041480D02*
Y1051480D01*
X695960Y1185308D02*
Y1195308D01*
X690960Y1190307D02*
X700960D01*
X331470Y972900D02*
Y982900D01*
X326470Y977900D02*
X336470D01*
X443310Y1451610D02*
X453310D01*
X448310Y1446610D02*
Y1456610D01*
X440770Y1384300D02*
X450770D01*
X445770Y1379300D02*
Y1389300D01*
M02*
