G04*
G04 #@! TF.GenerationSoftware,Altium Limited,Altium Designer,23.0.1 (38)*
G04*
G04 Layer_Physical_Order=1*
G04 Layer_Color=255*
%FSLAX44Y44*%
%MOMM*%
G71*
G04*
G04 #@! TF.SameCoordinates,110CD8AD-1924-4517-BBA5-4E1113904411*
G04*
G04*
G04 #@! TF.FilePolarity,Positive*
G04*
G01*
G75*
%ADD15C,0.2540*%
%ADD17R,1.4000X1.5500*%
%ADD18R,1.5046X1.5562*%
%ADD19R,1.5562X1.5046*%
%ADD27C,1.7780*%
%ADD28R,1.7780X1.7780*%
%ADD42R,2.0000X2.0000*%
%ADD43C,2.0000*%
%ADD44C,1.2000*%
%ADD45R,1.2000X1.2000*%
%ADD46R,1.2000X1.2000*%
%ADD47R,1.3500X1.3500*%
%ADD48C,1.3500*%
%ADD49R,1.5500X1.5500*%
%ADD50C,1.5500*%
%ADD51R,1.5500X1.5500*%
%ADD56C,2.5400*%
%ADD57C,2.1590*%
%ADD58C,0.6350*%
%ADD59C,0.7620*%
%ADD60C,1.2700*%
%ADD61C,1.8000*%
%ADD62R,1.8000X1.8000*%
%ADD63C,1.5000*%
%ADD64R,1.5000X1.5000*%
%ADD65R,1.1000X1.1000*%
%ADD66C,1.1000*%
%ADD67R,1.9200X1.9200*%
%ADD68C,1.9200*%
%ADD69C,1.9050*%
%ADD70R,1.0500X1.0500*%
%ADD71C,1.0500*%
%ADD72R,1.1000X1.1000*%
%ADD73C,1.4000*%
%ADD74R,1.4000X1.4000*%
%ADD75R,1.0500X1.0500*%
%ADD76C,1.6000*%
%ADD77R,1.6000X1.6000*%
%ADD78C,2.3400*%
%ADD79R,1.6000X1.6000*%
%ADD80C,1.2700*%
D15*
X1110000Y1651000D02*
X1117854D01*
X1102145D02*
X1110000D01*
X901080Y1472762D02*
Y1552328D01*
X899160Y1554248D02*
X901080Y1552328D01*
X865886Y1393952D02*
Y1437568D01*
X889000Y1544270D02*
Y1560322D01*
X902852Y1367790D02*
Y1381280D01*
X915670Y1394098D02*
Y1443670D01*
X878586Y1367790D02*
X906780Y1395984D01*
X889000Y1544270D02*
X890220Y1543050D01*
X899160Y1554248D02*
Y1567942D01*
X894080Y1573022D02*
X899160Y1567942D01*
X902852Y1381280D02*
X915670Y1394098D01*
X865886Y1437568D02*
X901080Y1472762D01*
X1001980Y1686560D02*
X1005840Y1690420D01*
X1038860Y1226820D02*
X1044590Y1232550D01*
X1075550Y1266330D02*
X1077494Y1264386D01*
Y1258176D02*
X1099702Y1235968D01*
X1044590Y1232550D02*
Y1249739D01*
X1071341Y1276490D02*
X1100078D01*
X1099702Y1200776D02*
Y1235968D01*
X1044590Y1249739D02*
X1071341Y1276490D01*
X1100078D02*
X1113908Y1290320D01*
X1077494Y1258176D02*
Y1264386D01*
X1074166Y1487036D02*
X1078110Y1490980D01*
X1069340Y1434754D02*
Y1474868D01*
X1079246Y1430291D02*
X1079500Y1430545D01*
X1079246Y1479331D02*
X1079500Y1479077D01*
X1066800Y1432214D02*
X1069340Y1434754D01*
X1074420Y1432650D02*
Y1476973D01*
X1079246Y1479331D02*
Y1484616D01*
X1074166Y1432396D02*
X1074420Y1432650D01*
X1079246Y1381760D02*
Y1430291D01*
X1066800Y1477408D02*
X1069340Y1474868D01*
X1074166Y1477227D02*
X1074420Y1476973D01*
X1045820Y1457300D02*
X1059180Y1470660D01*
X1066800Y1379220D02*
Y1432214D01*
X1074166Y1362456D02*
Y1432396D01*
X1045820Y1437640D02*
Y1457300D01*
X1066800Y1477408D02*
Y1504950D01*
X1079500Y1430545D02*
Y1479077D01*
X1020844Y1309134D02*
X1074166Y1362456D01*
Y1477227D02*
Y1487036D01*
X1056640Y1369060D02*
X1066800Y1379220D01*
X861974Y1059434D02*
X891540D01*
X1113908Y1313316D02*
Y1332484D01*
Y1270000D02*
Y1290320D01*
X819150Y1267460D02*
X846328Y1294638D01*
X962050Y1329792D02*
Y1367790D01*
Y1260450D02*
Y1329792D01*
X1187400Y1307288D02*
Y1320800D01*
Y1283970D02*
Y1307288D01*
X545592Y1252982D02*
Y1319530D01*
X1183590Y1427480D02*
Y1436370D01*
Y1407210D02*
Y1427480D01*
X1105916Y1564894D02*
X1183590Y1487220D01*
X1105662Y1565148D02*
X1105916Y1564894D01*
X980440Y1544320D02*
Y1559560D01*
Y1472184D02*
Y1544320D01*
X495300Y1324728D02*
X508000D01*
X530860Y1301868D01*
Y1267460D02*
Y1301868D01*
X495300Y1324728D02*
Y1345438D01*
X513080Y1363218D01*
Y1431240D01*
X492710Y1451610D02*
X513080Y1431240D01*
X589280Y985520D02*
X630580D01*
X542290Y938530D02*
X589280Y985520D01*
X495300Y1277620D02*
Y1306712D01*
Y1277620D02*
X505460Y1267460D01*
X947420Y1475420D02*
Y1516380D01*
X928690Y1456690D02*
X947420Y1475420D01*
X842010Y976630D02*
X883920D01*
X785114Y973836D02*
X842010Y976630D01*
X774700Y984250D02*
X785114Y973836D01*
X774700Y984250D02*
X812800Y1022350D01*
Y1047750D01*
X1113908Y1270000D02*
X1117718Y1266190D01*
Y1235710D02*
Y1266190D01*
X846328Y1294638D02*
X902852Y1351162D01*
X846328Y1229614D02*
Y1294638D01*
X799592Y1182878D02*
X846328Y1229614D01*
X799592Y1060958D02*
Y1182878D01*
Y1060958D02*
X812800Y1047750D01*
X1038860Y1093470D02*
Y1226820D01*
Y1093470D02*
X1051560Y1080770D01*
X1099702Y1200776D02*
X1101090Y1163320D01*
X488950Y962660D02*
X542798Y1016508D01*
Y1117600D01*
X559308Y1134110D01*
X652018D01*
X668528Y1117600D01*
Y923544D02*
Y1117600D01*
X660400Y915416D02*
X668528Y923544D01*
X635000Y915416D02*
X660400D01*
X632224Y927100D02*
X635000Y915416D01*
X403910Y1451610D02*
X410810Y1458510D01*
X683260Y1267460D02*
X783590Y1367790D01*
X835050D01*
X835660Y1399642D02*
Y1430020D01*
X835050Y1367790D02*
X835660Y1399642D01*
X1130300Y1283970D02*
X1168400D01*
X579070Y1046480D02*
Y1095502D01*
X542290Y963930D02*
X593090Y1014730D01*
Y1117600D01*
X599440Y1123950D01*
X611378D01*
X617728Y1117600D01*
Y1105916D02*
Y1117600D01*
Y1105916D02*
X632510Y1091134D01*
Y1049020D02*
Y1091134D01*
X708660Y1060660D02*
Y1113155D01*
Y1060660D02*
X716280Y1053040D01*
X581660Y1267460D02*
Y1291336D01*
X585978Y1295654D01*
Y1356360D01*
X581660Y1360678D02*
X585978Y1356360D01*
X581660Y1360678D02*
Y1402080D01*
X556260Y1267460D02*
Y1291336D01*
X560578Y1295654D01*
Y1356360D01*
X556260Y1360678D02*
X560578Y1356360D01*
X556260Y1360678D02*
Y1402080D01*
X871220Y1543050D02*
Y1560322D01*
X883920Y1573022D01*
X894080D01*
X436880Y1055370D02*
Y1249680D01*
X454660Y1267460D01*
Y1062990D02*
Y1113155D01*
Y1062990D02*
X462280Y1055370D01*
X480060Y1062990D02*
Y1113155D01*
Y1062990D02*
X487680Y1055370D01*
X607060Y1010666D02*
Y1113155D01*
X548640Y952246D02*
X607060Y1010666D01*
X512956Y952246D02*
X548640D01*
X497970Y937260D02*
X512956Y952246D01*
X488950Y937260D02*
X497970D01*
X878180Y1038860D02*
Y1047750D01*
X875234Y1035914D02*
X878180Y1038860D01*
X849426Y1035914D02*
X875234D01*
X810260Y1075080D02*
X849426Y1035914D01*
X810260Y1075080D02*
Y1113155D01*
X649580Y953262D02*
Y985520D01*
X1189228Y1605788D02*
X1235710Y1652270D01*
X1116584Y1605788D02*
X1189228D01*
X1105916Y1595120D02*
X1116584Y1605788D01*
X1105916Y1564894D02*
Y1595120D01*
X1183590Y1436370D02*
Y1487220D01*
Y1407210D02*
X1189990Y1400810D01*
Y1365250D02*
Y1400810D01*
X890220Y1512620D02*
Y1543050D01*
Y1512620D02*
X890270Y1482090D01*
X560070Y1013968D02*
Y1046480D01*
X943102Y1222248D02*
X947820Y1226966D01*
Y1278128D01*
X944372Y1281576D02*
X947820Y1278128D01*
X944372Y1281576D02*
Y1436116D01*
X980440Y1472184D01*
X969518Y1533398D02*
X980440Y1544320D01*
X961136Y1533398D02*
X969518D01*
X968893Y1226820D02*
X1019860D01*
X952900Y1242812D02*
X968893Y1226820D01*
X952900Y1242812D02*
Y1281440D01*
X951240Y1283100D02*
X952900Y1281440D01*
X951240Y1283100D02*
Y1418854D01*
X1097534Y1565148D01*
X1105662D01*
X962050Y1260450D02*
X968248Y1254252D01*
X661880Y883920D02*
X716280Y938320D01*
X641560Y883920D02*
X661880D01*
X620776Y904704D02*
X641560Y883920D01*
X620776Y904704D02*
Y950062D01*
X630580Y959866D01*
Y985520D01*
X857504Y1079246D02*
X872744Y1094486D01*
Y1228344D01*
X911860Y1267460D01*
X616585Y1129030D02*
X632460Y1113155D01*
X578358Y1129030D02*
X616585D01*
X566928Y1117600D02*
X578358Y1129030D01*
X566928Y1082294D02*
Y1117600D01*
X548386Y1063752D02*
X566928Y1082294D01*
X548386Y1000890D02*
Y1063752D01*
Y1000890D02*
X553850Y995426D01*
Y982980D02*
Y995426D01*
X548640Y977770D02*
X553850Y982980D01*
X524634Y977770D02*
X548640D01*
X497840Y950976D02*
X524634Y977770D01*
X475234Y950976D02*
X497840D01*
X463550Y962660D02*
X475234Y950976D01*
X574040Y1309624D02*
Y1319530D01*
X570992Y1306576D02*
X574040Y1309624D01*
X570992Y1259840D02*
Y1306576D01*
Y1259840D02*
X574040Y1256792D01*
X748792D01*
X759460Y1267460D01*
X545592Y1319530D02*
X548640D01*
X545592Y1252982D02*
X558800Y1239774D01*
X757174D01*
X784860Y1267460D01*
X657860Y1105154D02*
Y1113155D01*
Y1105154D02*
X662432Y1100582D01*
Y929640D02*
Y1100582D01*
X659892Y927100D02*
X662432Y929640D01*
X650240Y927100D02*
X659892D01*
X1079382Y1626108D02*
Y1651000D01*
X1170990Y1356360D02*
Y1365250D01*
Y1356360D02*
X1173784Y1353566D01*
X1200912D01*
Y1523238D01*
X1143000Y1581150D02*
X1200912Y1523238D01*
X1117600Y1581150D02*
X1133856Y1597406D01*
X1193546D01*
X1205992Y1584960D01*
Y1339392D02*
Y1584960D01*
X1187400Y1320800D02*
X1205992Y1339392D01*
X708660Y1113155D02*
X835660Y1240155D01*
Y1267460D01*
X915670Y1443670D02*
X928690Y1456690D01*
X859180Y1047750D02*
Y1056640D01*
X1020844Y1296670D02*
Y1309134D01*
X1078110Y1490980D02*
Y1508760D01*
X1085730Y1516380D01*
X1106170D01*
X1117600Y1504950D01*
X1038860Y1296670D02*
Y1312164D01*
X1046480Y1319784D01*
X1107440D01*
X1113908Y1313316D01*
Y1300480D02*
Y1313316D01*
Y1290320D02*
Y1300480D01*
X962050Y1329792D02*
X1006856Y1284986D01*
X1050290D01*
X1065784Y1300480D01*
X1095892D01*
X1044550Y1369060D02*
X1056640D01*
X1139240Y1652270D02*
Y1661464D01*
X1143000Y1665224D01*
X1244600D01*
X1248664Y1661160D01*
Y1368552D02*
Y1661160D01*
X1187400Y1307288D02*
X1248664Y1368552D01*
X1083190Y1495940D02*
X1092200Y1504950D01*
X1083190Y1488560D02*
Y1495940D01*
X1079246Y1484616D02*
X1083190Y1488560D01*
X1079246Y1381760D02*
X1091946Y1369060D01*
X1099210D01*
X785060Y1513840D02*
X799030Y1527810D01*
X857300D01*
X871270Y1513840D01*
Y1482090D02*
Y1513840D01*
X1178510Y1422400D02*
X1183590Y1427480D01*
X1135380Y1422400D02*
X1178510D01*
X1121410Y1436370D02*
X1135380Y1422400D01*
X1110590Y1436370D02*
X1121410D01*
X854050Y1367790D02*
X878586D01*
X810260Y1267460D02*
X819150D01*
X902852Y1351162D02*
Y1367790D01*
X388410Y1384300D02*
X465998Y1306712D01*
X495300D01*
X998220Y1611376D02*
X1001370Y1614526D01*
X1168400Y1173480D02*
Y1283970D01*
X1158240Y1163320D02*
X1168400Y1173480D01*
X1120090Y1163320D02*
X1158240D01*
X1091590Y1436370D02*
Y1478940D01*
X1117600Y1504950D01*
X630580Y985520D02*
Y992276D01*
X651510Y1013206D01*
Y1049020D01*
X1143000Y1441450D02*
Y1504950D01*
Y1441450D02*
X1148080Y1436370D01*
X1164590D01*
X340106Y1432604D02*
X388410Y1384300D01*
X340106Y1432604D02*
Y1506220D01*
X342646Y1508760D01*
X349250D01*
X938648Y1046480D02*
X1017270D01*
X1051560Y1080770D01*
X1158240Y1643126D02*
Y1652270D01*
X1155700Y1640586D02*
X1158240Y1643126D01*
X1128268Y1640586D02*
X1155700D01*
X1117854Y1651000D02*
X1128268Y1640586D01*
X859180Y1056640D02*
X861974Y1059434D01*
X917838D02*
X920632Y1056640D01*
Y1046480D02*
Y1056640D01*
X1044550Y1360526D02*
Y1369060D01*
X1041400Y1357376D02*
X1044550Y1360526D01*
X1014730Y1357376D02*
X1041400D01*
X1004316Y1367790D02*
X1014730Y1357376D01*
X981050Y1367790D02*
X1004316D01*
X871270Y1464156D02*
Y1482090D01*
X854660Y1447546D02*
X871270Y1464156D01*
X854660Y1430020D02*
Y1447546D01*
X1118210Y1336786D02*
Y1369060D01*
X1113908Y1332484D02*
X1118210Y1336786D01*
X657860Y1267460D02*
Y1402080D01*
X632460Y1267460D02*
Y1402080D01*
X607060Y1267460D02*
Y1402080D01*
X759460Y1081532D02*
Y1113155D01*
Y1081532D02*
X762000Y1078992D01*
Y1047750D02*
Y1078992D01*
X784860Y1081532D02*
Y1113155D01*
Y1081532D02*
X787400Y1078992D01*
Y1047750D02*
Y1078992D01*
X1026820Y1403858D02*
Y1437640D01*
X1025550Y1402588D02*
X1026820Y1403858D01*
X1025550Y1369060D02*
Y1402588D01*
D17*
X1026820Y1437640D02*
D03*
X1045820D02*
D03*
X1099210Y1369060D02*
D03*
X1118210D02*
D03*
X962050Y1367790D02*
D03*
X981050D02*
D03*
X1091590Y1436370D02*
D03*
X1110590D02*
D03*
X1025550Y1369060D02*
D03*
X1044550D02*
D03*
X1019860Y1226820D02*
D03*
X1038860D02*
D03*
X1139240Y1652270D02*
D03*
X1158240D02*
D03*
X1101090Y1163320D02*
D03*
X1120090D02*
D03*
X1170990Y1365250D02*
D03*
X1189990D02*
D03*
X1164590Y1436370D02*
D03*
X1183590D02*
D03*
X1168400Y1283970D02*
D03*
X1187400D02*
D03*
X980440Y1559560D02*
D03*
X999440D02*
D03*
X982980Y1686560D02*
D03*
X1001980D02*
D03*
X982370Y1623060D02*
D03*
X1001370D02*
D03*
X859180Y1047750D02*
D03*
X878180D02*
D03*
X630580Y985520D02*
D03*
X649580D02*
D03*
X560070Y1046480D02*
D03*
X579070D02*
D03*
X632510Y1049020D02*
D03*
X651510D02*
D03*
X871270Y1482090D02*
D03*
X890270D02*
D03*
X871220Y1543050D02*
D03*
X890220D02*
D03*
X835660Y1430020D02*
D03*
X854660D02*
D03*
X835050Y1367790D02*
D03*
X854050D02*
D03*
D18*
X1099702Y1235710D02*
D03*
X1117718D02*
D03*
X1020844Y1296670D02*
D03*
X1038860D02*
D03*
X1095892Y1300480D02*
D03*
X1113908D02*
D03*
X1079382Y1651000D02*
D03*
X1097398D02*
D03*
X902852Y1367790D02*
D03*
X920868D02*
D03*
X632224Y927100D02*
D03*
X650240D02*
D03*
X901936Y976630D02*
D03*
X883920D02*
D03*
X920632Y1046480D02*
D03*
X938648D02*
D03*
D19*
X495300Y1324728D02*
D03*
Y1306712D02*
D03*
D27*
X782320Y1743456D02*
D03*
D28*
Y1643380D02*
D03*
D42*
X485810Y1529500D02*
D03*
D43*
X410810D02*
D03*
X485810Y1732500D02*
D03*
Y1681700D02*
D03*
Y1783300D02*
D03*
X410810D02*
D03*
Y1732500D02*
D03*
Y1681700D02*
D03*
D44*
X810060Y1513840D02*
D03*
X716280Y1053040D02*
D03*
X388410Y1384300D02*
D03*
D45*
X785060Y1513840D02*
D03*
X503130Y1384300D02*
D03*
D46*
X716280Y938320D02*
D03*
D47*
X937260Y1267460D02*
D03*
D48*
X911860D02*
D03*
X886460D02*
D03*
X861060D02*
D03*
X835660D02*
D03*
X810260D02*
D03*
X784860D02*
D03*
X759460D02*
D03*
X734060D02*
D03*
X708660D02*
D03*
X683260D02*
D03*
X657860D02*
D03*
X632460D02*
D03*
X607060D02*
D03*
X581660D02*
D03*
X556260D02*
D03*
X530860D02*
D03*
X505460D02*
D03*
X480060D02*
D03*
X454660D02*
D03*
Y1113155D02*
D03*
X480060D02*
D03*
X505460D02*
D03*
X530860D02*
D03*
X556260D02*
D03*
X581660D02*
D03*
X607060D02*
D03*
X632460D02*
D03*
X657860D02*
D03*
X683260D02*
D03*
X708660D02*
D03*
X734060D02*
D03*
X759460D02*
D03*
X784860D02*
D03*
X810260D02*
D03*
X835660D02*
D03*
X861060D02*
D03*
X886460D02*
D03*
X911860D02*
D03*
X937260D02*
D03*
D49*
X1076960Y979170D02*
D03*
X488950Y937260D02*
D03*
X542290Y938530D02*
D03*
X331470Y933500D02*
D03*
D50*
X1076960Y1004570D02*
D03*
Y1029970D02*
D03*
Y1055370D02*
D03*
Y1080770D02*
D03*
X1051560Y979170D02*
D03*
Y1004570D02*
D03*
Y1029970D02*
D03*
Y1055370D02*
D03*
Y1080770D02*
D03*
X463550Y988060D02*
D03*
Y962660D02*
D03*
X488950Y988060D02*
D03*
Y962660D02*
D03*
X463550Y937260D02*
D03*
X762000Y1047750D02*
D03*
X787400D02*
D03*
X542290Y989330D02*
D03*
Y963930D02*
D03*
X487680Y1055370D02*
D03*
X462280D02*
D03*
X331470Y1022300D02*
D03*
X403910Y1451610D02*
D03*
D51*
X812800Y1047750D02*
D03*
X436880Y1055370D02*
D03*
X492710Y1451610D02*
D03*
D56*
X1102145Y1618338D02*
Y1651000D01*
X1110000D02*
Y1691620D01*
X1076960Y1724660D02*
X1110000Y1691620D01*
X1002680Y1559560D02*
X1027430D01*
X1072388Y1604518D01*
X1088325D02*
X1102145Y1618338D01*
X1072388Y1604518D02*
X1088325D01*
X538210Y1662700D02*
Y1680100D01*
Y1662700D02*
X565150Y1635760D01*
Y1511630D02*
Y1572117D01*
Y1611630D02*
Y1635760D01*
Y1572117D02*
X648843Y1655810D01*
X694674D02*
X782320Y1743456D01*
X485810Y1732500D02*
X538210Y1680100D01*
X648843Y1655810D02*
X694674D01*
X485810Y1681700D02*
Y1692987D01*
X457870Y1720927D02*
X485810Y1692987D01*
X434340Y1753870D02*
X457870Y1730340D01*
Y1720927D02*
Y1730340D01*
X400355Y1706940D02*
X420945D01*
X303530Y1610115D02*
X400355Y1706940D01*
X303530Y1607820D02*
Y1610115D01*
X434340Y1744665D02*
X436050Y1742955D01*
X420945Y1706940D02*
X436050Y1722045D01*
Y1742955D01*
X434340Y1744665D02*
Y1759770D01*
X410810Y1783300D02*
X434340Y1759770D01*
X782320Y1581350D02*
Y1643380D01*
Y1581350D02*
X785060Y1513840D01*
X410810Y1458510D02*
Y1529500D01*
X485810Y1493816D02*
Y1529500D01*
Y1493816D02*
X492710Y1486916D01*
Y1451610D02*
Y1486916D01*
D57*
X785060Y1480855D02*
Y1513840D01*
X759821Y1489741D02*
Y1502260D01*
X718820Y1524950D02*
X746764D01*
X725170Y1455090D02*
X759821Y1489741D01*
X759459Y1502622D02*
X759821Y1502260D01*
X746764Y1524950D02*
X759052Y1512663D01*
X759459Y1502622D01*
X725170Y1407160D02*
Y1455090D01*
X723900Y1405890D02*
X725170Y1407160D01*
X749300Y1406290D02*
Y1445095D01*
X785060Y1480855D01*
D58*
X901936Y976630D02*
Y1049038D01*
Y976372D02*
Y976630D01*
X906284Y972024D02*
X906542D01*
X1061720Y963930D02*
X1076960Y979170D01*
X914636Y963930D02*
X1061720D01*
X906542Y972024D02*
X914636Y963930D01*
X901936Y976372D02*
X906284Y972024D01*
X923290Y1431290D02*
X948690Y1456690D01*
X920868Y1367790D02*
X923290Y1370212D01*
Y1431290D01*
X1005840Y1690420D02*
Y1758950D01*
X920632Y1056640D02*
Y1075944D01*
X891540Y1059434D02*
X917838D01*
X891540D02*
X901936Y1049038D01*
X946150Y1666240D02*
X966470Y1686560D01*
X982980D01*
X920632Y1075944D02*
X924560Y1079872D01*
Y1278890D01*
X920868Y1282582D02*
X924560Y1278890D01*
X920868Y1282582D02*
Y1367790D01*
D59*
X349250Y1483360D02*
X372160D01*
X403910Y1451610D01*
X982370Y1637944D02*
X1025144Y1680718D01*
X972566Y1776476D02*
X1020680D01*
X1025144Y1772012D01*
Y1680718D02*
Y1772012D01*
X933450Y1646682D02*
X974852Y1605280D01*
X992124D02*
X998220Y1611376D01*
X974852Y1605280D02*
X992124D01*
X906780Y1395984D02*
Y1467686D01*
Y1557405D02*
Y1652270D01*
X920750Y1666240D01*
X908700Y1469606D02*
Y1555485D01*
X906780Y1467686D02*
X908700Y1469606D01*
X906780Y1557405D02*
X908700Y1555485D01*
X933450Y1646682D02*
Y1666240D01*
Y1633220D02*
Y1646682D01*
X976884Y1590040D02*
X999440Y1567484D01*
X948690Y1590040D02*
X976884D01*
X955040Y1758950D02*
X972566Y1776476D01*
X982370Y1623060D02*
Y1637944D01*
X1001370Y1614526D02*
Y1623060D01*
X920750Y1666240D02*
Y1724660D01*
X955040Y1758950D01*
X948690Y1553718D02*
Y1590040D01*
X947420Y1552448D02*
X948690Y1553718D01*
X947420Y1516380D02*
Y1552448D01*
X923290Y1623060D02*
X933450Y1633220D01*
X923290Y1590040D02*
Y1623060D01*
Y1558798D02*
Y1590040D01*
Y1558798D02*
X934720Y1547368D01*
Y1516380D02*
Y1547368D01*
D60*
X748900Y1405890D02*
X749300Y1406290D01*
D61*
X1235710Y1766570D02*
D03*
Y1652270D02*
D03*
X303530Y1605280D02*
D03*
Y1717040D02*
D03*
D62*
X1235710Y1715770D02*
D03*
Y1601470D02*
D03*
X303530Y1656080D02*
D03*
Y1767840D02*
D03*
D63*
X1143000Y1581150D02*
D03*
X1117600D02*
D03*
X1092200D02*
D03*
X1066800D02*
D03*
X1143000Y1504950D02*
D03*
X1117600D02*
D03*
X1092200D02*
D03*
D64*
X1066800D02*
D03*
D65*
X928690Y1456690D02*
D03*
X774700Y984250D02*
D03*
D66*
X948690Y1456690D02*
D03*
X794700Y984250D02*
D03*
X718820Y1524950D02*
D03*
D67*
X1005840Y1758950D02*
D03*
D68*
X980440D02*
D03*
X955040D02*
D03*
D69*
X1153160Y1750060D02*
D03*
Y1724660D02*
D03*
X1076960D02*
D03*
Y1750060D02*
D03*
D70*
X922020Y1516380D02*
D03*
X923290Y1590040D02*
D03*
X920750Y1666240D02*
D03*
D71*
X934720Y1516380D02*
D03*
X947420D02*
D03*
X935990Y1590040D02*
D03*
X948690D02*
D03*
X933450Y1666240D02*
D03*
X946150D02*
D03*
X349250Y1496060D02*
D03*
Y1508760D02*
D03*
D72*
X718820Y1504950D02*
D03*
D73*
X574040Y1319530D02*
D03*
D74*
X548640D02*
D03*
D75*
X349250Y1483360D02*
D03*
D76*
X774900Y1405890D02*
D03*
X723900D02*
D03*
X748900D02*
D03*
X377190Y1016000D02*
D03*
Y990600D02*
D03*
Y965200D02*
D03*
X607060Y1402080D02*
D03*
X632460D02*
D03*
X581660D02*
D03*
X556260D02*
D03*
D77*
X377190Y939800D02*
D03*
D78*
X645160Y1757750D02*
D03*
Y1682750D02*
D03*
Y1607750D02*
D03*
Y1507750D02*
D03*
X565150Y1761630D02*
D03*
Y1686630D02*
D03*
Y1611630D02*
D03*
Y1511630D02*
D03*
D79*
X657860Y1402080D02*
D03*
D80*
X889000Y1560322D02*
D03*
X1075550Y1266330D02*
D03*
X1059180Y1470660D02*
D03*
X1130300Y1283970D02*
D03*
X579070Y1095502D02*
D03*
X865886Y1393952D02*
D03*
X649580Y953262D02*
D03*
X560070Y1013968D02*
D03*
X943102Y1222248D02*
D03*
X961136Y1533398D02*
D03*
X968248Y1254252D02*
D03*
X857504Y1079246D02*
D03*
X1079382Y1626108D02*
D03*
M02*
