G04*
G04 #@! TF.GenerationSoftware,Altium Limited,Altium Designer,23.0.1 (38)*
G04*
G04 Layer_Color=65535*
%FSLAX44Y44*%
%MOMM*%
G71*
G04*
G04 #@! TF.SameCoordinates,110CD8AD-1924-4517-BBA5-4E1113904411*
G04*
G04*
G04 #@! TF.FilePolarity,Positive*
G04*
G01*
G75*
%ADD10C,0.6000*%
%ADD11C,0.2500*%
%ADD12C,0.2000*%
%ADD13C,0.1524*%
%ADD14C,0.1500*%
%ADD15C,0.2540*%
%ADD16C,0.1000*%
G36*
X993205Y1088140D02*
X993318D01*
X993586Y1088112D01*
X993882Y1088070D01*
X994192Y1087999D01*
X994530Y1087915D01*
X994855Y1087802D01*
X994869D01*
X994897Y1087788D01*
X994939Y1087774D01*
X994996Y1087746D01*
X995151Y1087661D01*
X995348Y1087562D01*
X995560Y1087421D01*
X995785Y1087252D01*
X995997Y1087069D01*
X996194Y1086843D01*
X996222Y1086815D01*
X996279Y1086730D01*
X996363Y1086604D01*
X996476Y1086420D01*
X996589Y1086195D01*
X996716Y1085913D01*
X996842Y1085603D01*
X996941Y1085250D01*
X995771Y1084940D01*
Y1084954D01*
X995757Y1084968D01*
X995743Y1085011D01*
X995729Y1085067D01*
X995686Y1085194D01*
X995630Y1085363D01*
X995546Y1085560D01*
X995447Y1085744D01*
X995348Y1085941D01*
X995221Y1086110D01*
X995207Y1086124D01*
X995165Y1086181D01*
X995080Y1086251D01*
X994982Y1086350D01*
X994855Y1086463D01*
X994686Y1086575D01*
X994502Y1086688D01*
X994291Y1086787D01*
X994263Y1086801D01*
X994192Y1086829D01*
X994065Y1086871D01*
X993896Y1086928D01*
X993699Y1086970D01*
X993473Y1087012D01*
X993220Y1087041D01*
X992952Y1087055D01*
X992797D01*
X992726Y1087041D01*
X992642D01*
X992430Y1087027D01*
X992190Y1086984D01*
X991923Y1086942D01*
X991669Y1086871D01*
X991415Y1086773D01*
X991387Y1086759D01*
X991302Y1086730D01*
X991189Y1086660D01*
X991049Y1086590D01*
X990879Y1086477D01*
X990696Y1086364D01*
X990527Y1086223D01*
X990372Y1086068D01*
X990358Y1086054D01*
X990301Y1085997D01*
X990231Y1085899D01*
X990146Y1085786D01*
X990048Y1085645D01*
X989949Y1085476D01*
X989850Y1085293D01*
X989752Y1085095D01*
Y1085081D01*
X989737Y1085053D01*
X989723Y1085011D01*
X989695Y1084940D01*
X989667Y1084856D01*
X989639Y1084757D01*
X989597Y1084644D01*
X989568Y1084517D01*
X989498Y1084221D01*
X989442Y1083883D01*
X989399Y1083531D01*
X989385Y1083136D01*
Y1083122D01*
Y1083079D01*
Y1083009D01*
X989399Y1082924D01*
Y1082812D01*
X989413Y1082671D01*
X989427Y1082530D01*
X989442Y1082374D01*
X989498Y1082022D01*
X989568Y1081656D01*
X989681Y1081289D01*
X989822Y1080937D01*
Y1080922D01*
X989850Y1080894D01*
X989864Y1080852D01*
X989907Y1080796D01*
X990005Y1080641D01*
X990161Y1080443D01*
X990344Y1080232D01*
X990569Y1080020D01*
X990837Y1079823D01*
X991133Y1079640D01*
X991147D01*
X991175Y1079626D01*
X991218Y1079597D01*
X991288Y1079569D01*
X991359Y1079541D01*
X991457Y1079513D01*
X991683Y1079428D01*
X991965Y1079358D01*
X992275Y1079287D01*
X992613Y1079231D01*
X992966Y1079217D01*
X993107D01*
X993191Y1079231D01*
X993276D01*
X993487Y1079259D01*
X993741Y1079287D01*
X994009Y1079344D01*
X994305Y1079428D01*
X994601Y1079527D01*
X994615D01*
X994643Y1079541D01*
X994671Y1079555D01*
X994728Y1079583D01*
X994883Y1079654D01*
X995052Y1079738D01*
X995249Y1079837D01*
X995461Y1079950D01*
X995658Y1080077D01*
X995827Y1080218D01*
Y1082050D01*
X992952D01*
Y1083206D01*
X997096D01*
Y1079583D01*
X997082Y1079569D01*
X997054Y1079555D01*
X996998Y1079513D01*
X996927Y1079456D01*
X996842Y1079400D01*
X996744Y1079330D01*
X996617Y1079245D01*
X996490Y1079160D01*
X996194Y1078977D01*
X995856Y1078780D01*
X995503Y1078596D01*
X995123Y1078441D01*
X995108D01*
X995080Y1078427D01*
X995024Y1078413D01*
X994953Y1078385D01*
X994855Y1078357D01*
X994742Y1078315D01*
X994615Y1078286D01*
X994488Y1078258D01*
X994178Y1078188D01*
X993826Y1078117D01*
X993445Y1078075D01*
X993050Y1078061D01*
X992909D01*
X992811Y1078075D01*
X992684D01*
X992529Y1078089D01*
X992360Y1078117D01*
X992176Y1078131D01*
X991768Y1078216D01*
X991330Y1078315D01*
X990879Y1078470D01*
X990654Y1078554D01*
X990428Y1078667D01*
X990414Y1078681D01*
X990372Y1078695D01*
X990315Y1078737D01*
X990231Y1078780D01*
X990132Y1078850D01*
X990034Y1078921D01*
X989766Y1079118D01*
X989484Y1079372D01*
X989188Y1079682D01*
X988906Y1080034D01*
X988652Y1080443D01*
Y1080457D01*
X988624Y1080500D01*
X988596Y1080556D01*
X988553Y1080655D01*
X988511Y1080753D01*
X988469Y1080894D01*
X988412Y1081035D01*
X988356Y1081205D01*
X988300Y1081388D01*
X988243Y1081599D01*
X988201Y1081811D01*
X988159Y1082036D01*
X988088Y1082530D01*
X988060Y1083051D01*
Y1083065D01*
Y1083122D01*
Y1083192D01*
X988074Y1083291D01*
Y1083418D01*
X988088Y1083573D01*
X988116Y1083728D01*
X988130Y1083911D01*
X988173Y1084108D01*
X988201Y1084320D01*
X988314Y1084771D01*
X988455Y1085236D01*
X988652Y1085701D01*
X988666Y1085715D01*
X988680Y1085758D01*
X988708Y1085814D01*
X988765Y1085899D01*
X988821Y1086012D01*
X988892Y1086124D01*
X989089Y1086392D01*
X989329Y1086702D01*
X989625Y1086998D01*
X989963Y1087294D01*
X990161Y1087421D01*
X990358Y1087548D01*
X990372Y1087562D01*
X990414Y1087576D01*
X990471Y1087605D01*
X990555Y1087647D01*
X990668Y1087689D01*
X990795Y1087746D01*
X990936Y1087802D01*
X991105Y1087858D01*
X991288Y1087915D01*
X991486Y1087957D01*
X991697Y1088013D01*
X991923Y1088056D01*
X992416Y1088126D01*
X992670Y1088154D01*
X993121D01*
X993205Y1088140D01*
D02*
G37*
G36*
X1006668Y1078230D02*
X1005329D01*
X1000226Y1085885D01*
Y1078230D01*
X998985D01*
Y1087985D01*
X1000310D01*
X1005427Y1080316D01*
Y1087985D01*
X1006668D01*
Y1078230D01*
D02*
G37*
G36*
X1012842Y1087971D02*
X1013124Y1087957D01*
X1013406Y1087929D01*
X1013688Y1087886D01*
X1013928Y1087844D01*
X1013942D01*
X1013970Y1087830D01*
X1014013D01*
X1014069Y1087802D01*
X1014224Y1087760D01*
X1014421Y1087689D01*
X1014647Y1087590D01*
X1014887Y1087464D01*
X1015126Y1087323D01*
X1015352Y1087139D01*
X1015366Y1087125D01*
X1015380Y1087111D01*
X1015422Y1087069D01*
X1015479Y1087027D01*
X1015620Y1086886D01*
X1015789Y1086688D01*
X1015972Y1086449D01*
X1016169Y1086167D01*
X1016353Y1085842D01*
X1016508Y1085476D01*
Y1085462D01*
X1016522Y1085434D01*
X1016550Y1085377D01*
X1016564Y1085293D01*
X1016606Y1085194D01*
X1016635Y1085081D01*
X1016663Y1084954D01*
X1016705Y1084799D01*
X1016747Y1084644D01*
X1016776Y1084461D01*
X1016846Y1084066D01*
X1016888Y1083629D01*
X1016902Y1083150D01*
Y1083136D01*
Y1083108D01*
Y1083037D01*
Y1082967D01*
X1016888Y1082868D01*
Y1082755D01*
X1016874Y1082487D01*
X1016832Y1082177D01*
X1016790Y1081853D01*
X1016719Y1081515D01*
X1016635Y1081176D01*
Y1081162D01*
X1016620Y1081134D01*
X1016606Y1081092D01*
X1016592Y1081035D01*
X1016536Y1080880D01*
X1016451Y1080683D01*
X1016367Y1080457D01*
X1016254Y1080232D01*
X1016113Y1079992D01*
X1015972Y1079767D01*
X1015958Y1079738D01*
X1015902Y1079668D01*
X1015817Y1079569D01*
X1015704Y1079442D01*
X1015577Y1079301D01*
X1015422Y1079160D01*
X1015267Y1079005D01*
X1015084Y1078878D01*
X1015056Y1078864D01*
X1014999Y1078822D01*
X1014901Y1078766D01*
X1014760Y1078695D01*
X1014591Y1078611D01*
X1014393Y1078540D01*
X1014168Y1078456D01*
X1013914Y1078385D01*
X1013886D01*
X1013843Y1078371D01*
X1013801Y1078357D01*
X1013660Y1078343D01*
X1013463Y1078315D01*
X1013237Y1078286D01*
X1012969Y1078258D01*
X1012673Y1078244D01*
X1012349Y1078230D01*
X1008839D01*
Y1087985D01*
X1012589D01*
X1012842Y1087971D01*
D02*
G37*
%LPC*%
G36*
X1012391Y1086829D02*
X1010136D01*
Y1079386D01*
X1012448D01*
X1012546Y1079400D01*
X1012758Y1079414D01*
X1012998Y1079428D01*
X1013251Y1079456D01*
X1013505Y1079499D01*
X1013717Y1079555D01*
X1013745Y1079569D01*
X1013815Y1079583D01*
X1013914Y1079626D01*
X1014041Y1079682D01*
X1014182Y1079767D01*
X1014323Y1079851D01*
X1014464Y1079950D01*
X1014605Y1080063D01*
X1014619Y1080091D01*
X1014675Y1080147D01*
X1014760Y1080246D01*
X1014858Y1080387D01*
X1014971Y1080570D01*
X1015098Y1080782D01*
X1015211Y1081021D01*
X1015310Y1081289D01*
Y1081303D01*
X1015324Y1081331D01*
X1015338Y1081374D01*
X1015352Y1081430D01*
X1015366Y1081500D01*
X1015394Y1081599D01*
X1015422Y1081698D01*
X1015451Y1081811D01*
X1015493Y1082093D01*
X1015535Y1082417D01*
X1015563Y1082783D01*
X1015577Y1083178D01*
Y1083192D01*
Y1083249D01*
Y1083319D01*
X1015563Y1083432D01*
Y1083559D01*
X1015549Y1083700D01*
X1015535Y1083869D01*
X1015521Y1084038D01*
X1015451Y1084419D01*
X1015366Y1084813D01*
X1015239Y1085180D01*
X1015154Y1085363D01*
X1015070Y1085518D01*
Y1085532D01*
X1015042Y1085560D01*
X1015014Y1085603D01*
X1014985Y1085659D01*
X1014873Y1085800D01*
X1014732Y1085969D01*
X1014548Y1086152D01*
X1014337Y1086336D01*
X1014097Y1086491D01*
X1013843Y1086618D01*
X1013815Y1086632D01*
X1013745Y1086646D01*
X1013618Y1086688D01*
X1013435Y1086730D01*
X1013209Y1086759D01*
X1012927Y1086801D01*
X1012758Y1086815D01*
X1012575D01*
X1012391Y1086829D01*
D02*
G37*
%LPD*%
D10*
X1068900Y1526550D02*
G03*
X1068900Y1526550I-3000J0D01*
G01*
D11*
X1055050Y1504950D02*
G03*
X1055050Y1504950I-1250J0D01*
G01*
X906470Y1516380D02*
G03*
X906470Y1516380I-1250J0D01*
G01*
X907740Y1590040D02*
G03*
X907740Y1590040I-1250J0D01*
G01*
X905200Y1666240D02*
G03*
X905200Y1666240I-1250J0D01*
G01*
X549890Y1337730D02*
G03*
X549890Y1337730I-1250J0D01*
G01*
X1115510Y979170D02*
G03*
X1115510Y979170I-1250J0D01*
G01*
X490200Y918060D02*
G03*
X490200Y918060I-1250J0D01*
G01*
X350500Y1466560D02*
G03*
X350500Y1466560I-1250J0D01*
G01*
X808150Y1405890D02*
G03*
X808150Y1405890I-1250J0D01*
G01*
X833250Y1047750D02*
G03*
X833250Y1047750I-1250J0D01*
G01*
X543540Y919330D02*
G03*
X543540Y919330I-1250J0D01*
G01*
X418930Y1055370D02*
G03*
X418930Y1055370I-1250J0D01*
G01*
X488310Y1501250D02*
G03*
X488310Y1501250I-1250J0D01*
G01*
X938510Y1279710D02*
G03*
X938510Y1279710I-1250J0D01*
G01*
D12*
X1055900Y1536700D02*
G03*
X1055900Y1549400I0J6350D01*
G01*
X964940Y1456690D02*
G03*
X964940Y1456690I-26250J0D01*
G01*
X810950Y984250D02*
G03*
X810950Y984250I-26250J0D01*
G01*
X1076960Y1778060D02*
G03*
X1076960Y1780060I0J1000D01*
G01*
D02*
G03*
X1076960Y1778060I0J-1000D01*
G01*
X954059Y1503029D02*
G03*
X915383Y1503025I-19339J13352D01*
G01*
X955329Y1576689D02*
G03*
X916653Y1576685I-19339J13352D01*
G01*
X952789Y1652888D02*
G03*
X914113Y1652885I-19339J13352D01*
G01*
X745070Y1514950D02*
G03*
X745070Y1514950I-26250J0D01*
G01*
X362602Y1515399D02*
G03*
X362605Y1476723I-13352J-19339D01*
G01*
X1195212Y1690370D02*
Y1791969D01*
X1276211Y1690369D02*
Y1791969D01*
X1195211Y1690369D02*
X1276211D01*
X1195212Y1791969D02*
X1276211D01*
X1092179Y1223929D02*
X1125241D01*
X1092179Y1247491D02*
X1125241D01*
X1195212Y1576070D02*
Y1677669D01*
X1276211Y1576069D02*
Y1677669D01*
X1195211Y1576069D02*
X1276211D01*
X1195212Y1677669D02*
X1276211D01*
X1153900Y1516550D02*
Y1569550D01*
X1055900Y1549400D02*
Y1569550D01*
Y1516550D02*
Y1536700D01*
Y1569550D02*
X1153900D01*
X1055900Y1516550D02*
X1153900D01*
X1013321Y1284889D02*
X1046383D01*
X1013321Y1308451D02*
X1046383D01*
X1088369Y1288699D02*
X1121431D01*
X1088369Y1312261D02*
X1121431D01*
X1071859Y1639219D02*
X1104921D01*
X1071859Y1662781D02*
X1104921D01*
X895329Y1356009D02*
X928391D01*
X895329Y1379571D02*
X928391D01*
X927740Y1727000D02*
Y1773900D01*
Y1727000D02*
X1033140D01*
Y1758950D01*
X915384Y1503030D02*
X954056D01*
X916654Y1576690D02*
X955327D01*
X914113Y1652890D02*
X952786D01*
X344028Y1579881D02*
Y1681480D01*
X263029Y1579881D02*
Y1681481D01*
X344029D01*
X263029Y1579881D02*
X344028D01*
X537990Y1331230D02*
X584690D01*
X537990Y1307830D02*
X584690D01*
X1020760Y928220D02*
X1107760D01*
Y1131720D01*
X1020762Y1131723D02*
X1107758D01*
X1020760Y928220D02*
Y1131720D01*
X450850Y1000760D02*
X501650D01*
Y924560D02*
Y1000760D01*
X450850Y924560D02*
X501650D01*
X450850D02*
Y1000760D01*
X344028Y1691641D02*
Y1793240D01*
X263029Y1691641D02*
Y1793241D01*
X344029D01*
X263029Y1691641D02*
X344028D01*
X362600Y1476723D02*
Y1515397D01*
X696900Y1433890D02*
X800900D01*
X696900Y1357890D02*
X800900D01*
Y1433890D01*
X696900Y1357890D02*
Y1433890D01*
X749300Y1035300D02*
Y1060200D01*
X825500Y1035300D02*
Y1060200D01*
X749300D02*
X825500D01*
X749300Y1035300D02*
X825500D01*
X529840Y1002030D02*
X554740D01*
X529840Y925830D02*
X554740D01*
Y1002030D01*
X529840Y925830D02*
Y1002030D01*
X500380Y1042920D02*
Y1067820D01*
X424180Y1042920D02*
Y1067820D01*
Y1042920D02*
X500380D01*
X424180Y1067820D02*
X500380D01*
X384810Y1506000D02*
Y1796000D01*
X499560D02*
X511810D01*
X424560D02*
X472060D01*
X384810D02*
X397060D01*
X511810Y1506000D02*
Y1796000D01*
X384810Y1506000D02*
X511810D01*
X769560Y1496340D02*
Y1531340D01*
X701030Y953780D02*
Y1037580D01*
X731530D01*
Y953780D02*
Y1037580D01*
X701030Y953780D02*
X731530D01*
X716280Y948320D02*
Y953780D01*
Y1037580D02*
Y1043040D01*
X624701Y915319D02*
X657763D01*
X624701Y938881D02*
X657763D01*
X483519Y1299189D02*
Y1332251D01*
X507081Y1299189D02*
Y1332251D01*
X876397Y988411D02*
X909459D01*
X876397Y964849D02*
X909459D01*
X913109Y1034699D02*
X946171D01*
X913109Y1058261D02*
X946171D01*
X437197Y1247935D02*
X954723D01*
X437197Y1132680D02*
Y1247935D01*
Y1132680D02*
X954723D01*
Y1173843D01*
X949723D02*
X954723D01*
X949723D02*
Y1206772D01*
X954723D01*
Y1247935D01*
X317470Y951900D02*
Y1003900D01*
X345470D01*
Y951900D02*
Y1003900D01*
X317470Y951900D02*
X345470D01*
X331470Y945250D02*
Y951900D01*
Y1003900D02*
Y1010550D01*
X318170Y964900D02*
X344770D01*
X422310Y1437610D02*
X474310D01*
X422310D02*
Y1465610D01*
X474310D01*
Y1437610D02*
Y1465610D01*
Y1451610D02*
X480960D01*
X415660D02*
X422310D01*
X461310Y1438310D02*
Y1464910D01*
X363740Y1030200D02*
X390640D01*
X363740Y925600D02*
Y1030200D01*
Y925600D02*
X390640D01*
Y1030200D01*
X403870Y1369050D02*
X487670D01*
X403870D02*
Y1399550D01*
X487670D01*
Y1369050D02*
Y1399550D01*
Y1384300D02*
X493130D01*
X398410D02*
X403870D01*
X542060Y1388630D02*
Y1415530D01*
Y1388630D02*
X672060D01*
Y1415530D01*
X542060D02*
X672060D01*
D13*
X883539Y1693418D02*
G03*
X883539Y1693418I-101219J0D01*
G01*
X775970Y1584579D02*
X788670D01*
X782320Y1578229D02*
Y1590929D01*
X553289Y1374923D02*
X560060D01*
Y1380002D01*
X556674Y1378309D01*
X554982D01*
X553289Y1380002D01*
Y1383387D01*
X554982Y1385080D01*
X558367D01*
X560060Y1383387D01*
X659060Y1385080D02*
X655674D01*
X657367D01*
Y1374923D01*
X659060Y1376616D01*
D14*
X831560Y1513840D02*
G03*
X831560Y1513840I-34000J0D01*
G01*
D15*
X285750Y1094740D02*
X386080D01*
X285750Y1357630D02*
X386080D01*
Y1094740D02*
Y1357630D01*
X285750Y1094740D02*
Y1357630D01*
X1174755Y1717038D02*
Y1711959D01*
X1177294Y1709420D01*
X1187451D01*
X1189990Y1711959D01*
Y1717038D01*
X1187451Y1719577D01*
X1177294D01*
X1174755Y1717038D01*
X1176025Y1645920D02*
Y1656077D01*
Y1650998D01*
X1191260D01*
X350520Y1593850D02*
Y1609085D01*
X358138D01*
X360677Y1606546D01*
Y1601467D01*
X358138Y1598928D01*
X350520D01*
X355598D02*
X360677Y1593850D01*
X347980Y1663695D02*
Y1648460D01*
X355597D01*
X358137Y1650999D01*
Y1653538D01*
X355597Y1656078D01*
X347980D01*
X355597D01*
X358137Y1658617D01*
Y1661156D01*
X355597Y1663695D01*
X347980D01*
X350520Y1719575D02*
Y1717036D01*
X355598Y1711958D01*
X360677Y1717036D01*
Y1719575D01*
X355598Y1711958D02*
Y1704340D01*
X358138Y1770375D02*
X353059D01*
X350520Y1767836D01*
Y1757679D01*
X353059Y1755140D01*
X358138D01*
X360677Y1757679D01*
Y1767836D01*
X358138Y1770375D01*
X1132837Y986785D02*
X1122680D01*
Y979167D01*
X1127758Y981707D01*
X1130297D01*
X1132837Y979167D01*
Y974089D01*
X1130297Y971550D01*
X1125219D01*
X1122680Y974089D01*
X1137915Y986785D02*
Y976628D01*
X1142993Y971550D01*
X1148072Y976628D01*
Y986785D01*
X1177294Y1588767D02*
X1174755Y1586228D01*
Y1581149D01*
X1177294Y1578610D01*
X1187451D01*
X1189990Y1581149D01*
Y1586228D01*
X1187451Y1588767D01*
X1182373D01*
Y1583688D01*
X1189990Y1593845D02*
X1174755D01*
X1189990Y1604002D01*
X1174755D01*
Y1609080D02*
X1189990D01*
Y1616698D01*
X1187451Y1619237D01*
X1177294D01*
X1174755Y1616698D01*
Y1609080D01*
X1192530Y1765300D02*
X1177295D01*
Y1772917D01*
X1179834Y1775457D01*
X1184912D01*
X1187452Y1772917D01*
Y1765300D01*
X318763Y1337313D02*
Y1342392D01*
Y1339852D01*
X306068D01*
X303528Y1342392D01*
Y1344931D01*
X306068Y1347470D01*
X313685Y1329696D02*
Y1324617D01*
X311146Y1322078D01*
X303528D01*
Y1329696D01*
X306068Y1332235D01*
X308607Y1329696D01*
Y1322078D01*
X303528Y1317000D02*
Y1309382D01*
X306068Y1306843D01*
X308607Y1309382D01*
Y1314461D01*
X311146Y1317000D01*
X313685Y1314461D01*
Y1306843D01*
X298450Y1301765D02*
X313685D01*
Y1294147D01*
X311146Y1291608D01*
X306068D01*
X303528Y1294147D01*
Y1301765D01*
Y1278912D02*
Y1283990D01*
X306068Y1286530D01*
X311146D01*
X313685Y1283990D01*
Y1278912D01*
X311146Y1276373D01*
X308607D01*
Y1286530D01*
X313685Y1271295D02*
X303528D01*
X308607D01*
X311146Y1268755D01*
X313685Y1266216D01*
Y1263677D01*
X303528Y1240825D02*
X318763D01*
X313685Y1235746D01*
X318763Y1230668D01*
X303528D01*
X313685Y1223050D02*
Y1217972D01*
X311146Y1215433D01*
X303528D01*
Y1223050D01*
X306068Y1225589D01*
X308607Y1223050D01*
Y1215433D01*
X303528Y1202737D02*
Y1207815D01*
X306068Y1210354D01*
X311146D01*
X313685Y1207815D01*
Y1202737D01*
X311146Y1200198D01*
X308607D01*
Y1210354D01*
X303528Y1195119D02*
Y1187502D01*
X306068Y1184963D01*
X308607Y1187502D01*
Y1192580D01*
X311146Y1195119D01*
X313685Y1192580D01*
Y1184963D01*
X344165Y1337313D02*
Y1347470D01*
X328930D01*
Y1337313D01*
X336548Y1347470D02*
Y1342392D01*
X328930Y1332235D02*
Y1327157D01*
Y1329696D01*
X344165D01*
Y1332235D01*
X328930Y1311922D02*
Y1317000D01*
X331469Y1319539D01*
X336548D01*
X339087Y1317000D01*
Y1311922D01*
X336548Y1309382D01*
X334008D01*
Y1319539D01*
X339087Y1294147D02*
Y1301765D01*
X336548Y1304304D01*
X331469D01*
X328930Y1301765D01*
Y1294147D01*
X341626Y1286530D02*
X339087D01*
Y1289069D01*
Y1283990D01*
Y1286530D01*
X331469D01*
X328930Y1283990D01*
X339087Y1276373D02*
X328930D01*
X334008D01*
X336548Y1273834D01*
X339087Y1271295D01*
Y1268755D01*
X328930Y1258599D02*
Y1253520D01*
X331469Y1250981D01*
X336548D01*
X339087Y1253520D01*
Y1258599D01*
X336548Y1261138D01*
X331469D01*
X328930Y1258599D01*
Y1245903D02*
X339087D01*
Y1238285D01*
X336548Y1235746D01*
X328930D01*
Y1230668D02*
Y1225589D01*
Y1228129D01*
X339087D01*
Y1230668D01*
Y1207815D02*
Y1215433D01*
X336548Y1217972D01*
X331469D01*
X328930Y1215433D01*
Y1207815D01*
Y1202737D02*
Y1195119D01*
X331469Y1192580D01*
X334008Y1195119D01*
Y1200198D01*
X336548Y1202737D01*
X339087Y1200198D01*
Y1192580D01*
X336548Y1187502D02*
Y1177345D01*
X344165Y1172267D02*
Y1167188D01*
Y1169727D01*
X328930D01*
Y1172267D01*
Y1167188D01*
X341626Y1149414D02*
X344165Y1151953D01*
Y1157032D01*
X341626Y1159571D01*
X331469D01*
X328930Y1157032D01*
Y1151953D01*
X331469Y1149414D01*
X344165Y1144336D02*
Y1134179D01*
Y1139257D01*
X328930D01*
Y1113866D02*
Y1108787D01*
Y1111326D01*
X344165D01*
X341626Y1113866D01*
X369564Y1338583D02*
X372103Y1341122D01*
Y1346201D01*
X369564Y1348740D01*
X367025D01*
X364486Y1346201D01*
Y1341122D01*
X361947Y1338583D01*
X359408D01*
X356868Y1341122D01*
Y1346201D01*
X359408Y1348740D01*
X356868Y1330966D02*
Y1325887D01*
X359408Y1323348D01*
X364486D01*
X367025Y1325887D01*
Y1330966D01*
X364486Y1333505D01*
X359408D01*
X356868Y1330966D01*
Y1318270D02*
Y1313192D01*
Y1315731D01*
X372103D01*
Y1318270D01*
Y1295417D02*
X356868D01*
Y1303035D01*
X359408Y1305574D01*
X364486D01*
X367025Y1303035D01*
Y1295417D01*
X356868Y1282721D02*
Y1287800D01*
X359408Y1290339D01*
X364486D01*
X367025Y1287800D01*
Y1282721D01*
X364486Y1280182D01*
X361947D01*
Y1290339D01*
X367025Y1275104D02*
X356868D01*
X361947D01*
X364486Y1272565D01*
X367025Y1270025D01*
Y1267486D01*
X356868Y1259869D02*
Y1254790D01*
Y1257330D01*
X367025D01*
Y1259869D01*
X356868Y1247173D02*
X367025D01*
Y1239555D01*
X364486Y1237016D01*
X356868D01*
X351790Y1226859D02*
Y1224320D01*
X354329Y1221781D01*
X367025D01*
Y1229399D01*
X364486Y1231938D01*
X359408D01*
X356868Y1229399D01*
Y1221781D01*
Y1201468D02*
Y1193850D01*
X359408Y1191311D01*
X361947Y1193850D01*
Y1198929D01*
X364486Y1201468D01*
X367025Y1198929D01*
Y1191311D01*
X369564Y1183693D02*
X367025D01*
Y1186233D01*
Y1181154D01*
Y1183693D01*
X359408D01*
X356868Y1181154D01*
X367025Y1170997D02*
Y1165919D01*
X364486Y1163380D01*
X356868D01*
Y1170997D01*
X359408Y1173537D01*
X361947Y1170997D01*
Y1163380D01*
X369564Y1155762D02*
X367025D01*
Y1158302D01*
Y1153223D01*
Y1155762D01*
X359408D01*
X356868Y1153223D01*
Y1145606D02*
Y1140527D01*
Y1143066D01*
X367025D01*
Y1145606D01*
X356868Y1130371D02*
Y1125292D01*
X359408Y1122753D01*
X364486D01*
X367025Y1125292D01*
Y1130371D01*
X364486Y1132910D01*
X359408D01*
X356868Y1130371D01*
Y1117675D02*
X367025D01*
Y1110057D01*
X364486Y1107518D01*
X356868D01*
X905256Y1563873D02*
X915413D01*
X910334D01*
Y1548638D01*
X930648Y1563873D02*
X920491D01*
Y1556255D01*
X925569Y1558795D01*
X928109D01*
X930648Y1556255D01*
Y1551177D01*
X928109Y1548638D01*
X923030D01*
X920491Y1551177D01*
X906526Y1637533D02*
X916683D01*
X911604D01*
Y1622298D01*
X929379D02*
Y1637533D01*
X921761Y1629915D01*
X931918D01*
X916944Y1804668D02*
X927101D01*
X922022D01*
Y1789433D01*
X932179Y1802128D02*
X934718Y1804668D01*
X939797D01*
X942336Y1802128D01*
Y1799589D01*
X939797Y1797050D01*
X937258D01*
X939797D01*
X942336Y1794511D01*
Y1791972D01*
X939797Y1789433D01*
X934718D01*
X932179Y1791972D01*
X903986Y1713733D02*
X914143D01*
X909064D01*
Y1698498D01*
X929378D02*
X919221D01*
X929378Y1708655D01*
Y1711194D01*
X926839Y1713733D01*
X921760D01*
X919221Y1711194D01*
X327152Y1543553D02*
X337309D01*
X332230D01*
Y1528318D01*
X342387D02*
X347465D01*
X344926D01*
Y1543553D01*
X342387Y1541014D01*
X385318Y1805686D02*
Y1820921D01*
X392935D01*
X395475Y1818382D01*
Y1813304D01*
X392935Y1810764D01*
X385318D01*
X390396D02*
X395475Y1805686D01*
X410710Y1820921D02*
X400553D01*
Y1805686D01*
X410710D01*
X400553Y1813304D02*
X405631D01*
X415788Y1805686D02*
X420867D01*
X418327D01*
Y1820921D01*
X415788Y1818382D01*
X849376Y1068578D02*
Y1083813D01*
X856993D01*
X859533Y1081274D01*
Y1076196D01*
X856993Y1073656D01*
X849376D01*
X854454D02*
X859533Y1068578D01*
X874768D02*
X864611D01*
X874768Y1078735D01*
Y1081274D01*
X872229Y1083813D01*
X867150D01*
X864611Y1081274D01*
X890003Y1068578D02*
X879846D01*
X890003Y1078735D01*
Y1081274D01*
X887464Y1083813D01*
X882385D01*
X879846Y1081274D01*
X620776Y1006348D02*
Y1021583D01*
X628394D01*
X630933Y1019044D01*
Y1013966D01*
X628394Y1011426D01*
X620776D01*
X625854D02*
X630933Y1006348D01*
X646168D02*
X636011D01*
X646168Y1016505D01*
Y1019044D01*
X643629Y1021583D01*
X638550D01*
X636011Y1019044D01*
X651246Y1006348D02*
X656324D01*
X653785D01*
Y1021583D01*
X651246Y1019044D01*
X970788Y1580388D02*
Y1595623D01*
X978406D01*
X980945Y1593084D01*
Y1588006D01*
X978406Y1585466D01*
X970788D01*
X975866D02*
X980945Y1580388D01*
X996180D02*
X986023D01*
X996180Y1590545D01*
Y1593084D01*
X993641Y1595623D01*
X988562D01*
X986023Y1593084D01*
X1001258D02*
X1003797Y1595623D01*
X1008876D01*
X1011415Y1593084D01*
Y1582927D01*
X1008876Y1580388D01*
X1003797D01*
X1001258Y1582927D01*
Y1593084D01*
X550418Y1067308D02*
Y1082543D01*
X558036D01*
X560575Y1080004D01*
Y1074926D01*
X558036Y1072386D01*
X550418D01*
X555496D02*
X560575Y1067308D01*
X565653D02*
X570731D01*
X568192D01*
Y1082543D01*
X565653Y1080004D01*
X578349Y1069847D02*
X580888Y1067308D01*
X585966D01*
X588506Y1069847D01*
Y1080004D01*
X585966Y1082543D01*
X580888D01*
X578349Y1080004D01*
Y1077465D01*
X580888Y1074926D01*
X588506D01*
X973328Y1707388D02*
Y1722623D01*
X980946D01*
X983485Y1720084D01*
Y1715005D01*
X980946Y1712466D01*
X973328D01*
X978406D02*
X983485Y1707388D01*
X988563D02*
X993641D01*
X991102D01*
Y1722623D01*
X988563Y1720084D01*
X1001259D02*
X1003798Y1722623D01*
X1008876D01*
X1011416Y1720084D01*
Y1717545D01*
X1008876Y1715005D01*
X1011416Y1712466D01*
Y1709927D01*
X1008876Y1707388D01*
X1003798D01*
X1001259Y1709927D01*
Y1712466D01*
X1003798Y1715005D01*
X1001259Y1717545D01*
Y1720084D01*
X1003798Y1715005D02*
X1008876D01*
X972566Y1643888D02*
Y1659123D01*
X980183D01*
X982723Y1656584D01*
Y1651505D01*
X980183Y1648966D01*
X972566D01*
X977644D02*
X982723Y1643888D01*
X987801D02*
X992879D01*
X990340D01*
Y1659123D01*
X987801Y1656584D01*
X1000497Y1659123D02*
X1010654D01*
Y1656584D01*
X1000497Y1646427D01*
Y1643888D01*
X622808Y1069848D02*
Y1085083D01*
X630425D01*
X632965Y1082544D01*
Y1077466D01*
X630425Y1074926D01*
X622808D01*
X627886D02*
X632965Y1069848D01*
X638043D02*
X643121D01*
X640582D01*
Y1085083D01*
X638043Y1082544D01*
X660896Y1085083D02*
X655817Y1082544D01*
X650739Y1077466D01*
Y1072387D01*
X653278Y1069848D01*
X658356D01*
X660896Y1072387D01*
Y1074926D01*
X658356Y1077466D01*
X650739D01*
X1089406Y1389888D02*
Y1405123D01*
X1097023D01*
X1099563Y1402584D01*
Y1397505D01*
X1097023Y1394966D01*
X1089406D01*
X1094484D02*
X1099563Y1389888D01*
X1104641D02*
X1109719D01*
X1107180D01*
Y1405123D01*
X1104641Y1402584D01*
X1127494Y1405123D02*
X1117337D01*
Y1397505D01*
X1122415Y1400045D01*
X1124955D01*
X1127494Y1397505D01*
Y1392427D01*
X1124955Y1389888D01*
X1119876D01*
X1117337Y1392427D01*
X952246Y1388618D02*
Y1403853D01*
X959864D01*
X962403Y1401314D01*
Y1396236D01*
X959864Y1393696D01*
X952246D01*
X957324D02*
X962403Y1388618D01*
X967481D02*
X972559D01*
X970020D01*
Y1403853D01*
X967481Y1401314D01*
X987794Y1388618D02*
Y1403853D01*
X980177Y1396236D01*
X990334D01*
X1081786Y1457198D02*
Y1472433D01*
X1089404D01*
X1091943Y1469894D01*
Y1464816D01*
X1089404Y1462276D01*
X1081786D01*
X1086864D02*
X1091943Y1457198D01*
X1097021D02*
X1102099D01*
X1099560D01*
Y1472433D01*
X1097021Y1469894D01*
X1109717D02*
X1112256Y1472433D01*
X1117335D01*
X1119874Y1469894D01*
Y1467355D01*
X1117335Y1464816D01*
X1114795D01*
X1117335D01*
X1119874Y1462276D01*
Y1459737D01*
X1117335Y1457198D01*
X1112256D01*
X1109717Y1459737D01*
X1016006Y1451613D02*
Y1466848D01*
X1023624D01*
X1026163Y1464308D01*
Y1459230D01*
X1023624Y1456691D01*
X1016006D01*
X1021085D02*
X1026163Y1451613D01*
X1031241D02*
X1036320D01*
X1033780D01*
Y1466848D01*
X1031241Y1464308D01*
X1054094Y1451613D02*
X1043937D01*
X1054094Y1461769D01*
Y1464308D01*
X1051555Y1466848D01*
X1046476D01*
X1043937Y1464308D01*
X1015746Y1389888D02*
Y1405123D01*
X1023363D01*
X1025903Y1402584D01*
Y1397505D01*
X1023363Y1394966D01*
X1015746D01*
X1020824D02*
X1025903Y1389888D01*
X1030981D02*
X1036059D01*
X1033520D01*
Y1405123D01*
X1030981Y1402584D01*
X1043677Y1389888D02*
X1048755D01*
X1046216D01*
Y1405123D01*
X1043677Y1402584D01*
X861568Y1502918D02*
Y1518153D01*
X869185D01*
X871725Y1515614D01*
Y1510535D01*
X869185Y1507996D01*
X861568D01*
X866646D02*
X871725Y1502918D01*
X876803D02*
X881881D01*
X879342D01*
Y1518153D01*
X876803Y1515614D01*
X889499D02*
X892038Y1518153D01*
X897116D01*
X899656Y1515614D01*
Y1505457D01*
X897116Y1502918D01*
X892038D01*
X889499Y1505457D01*
Y1515614D01*
X1010158Y1247648D02*
Y1262883D01*
X1017775D01*
X1020315Y1260344D01*
Y1255266D01*
X1017775Y1252726D01*
X1010158D01*
X1015236D02*
X1020315Y1247648D01*
X1025393Y1250187D02*
X1027932Y1247648D01*
X1033011D01*
X1035550Y1250187D01*
Y1260344D01*
X1033011Y1262883D01*
X1027932D01*
X1025393Y1260344D01*
Y1257805D01*
X1027932Y1255266D01*
X1035550D01*
X1129538Y1673098D02*
Y1688333D01*
X1137156D01*
X1139695Y1685794D01*
Y1680715D01*
X1137156Y1678176D01*
X1129538D01*
X1134616D02*
X1139695Y1673098D01*
X1144773Y1685794D02*
X1147312Y1688333D01*
X1152391D01*
X1154930Y1685794D01*
Y1683255D01*
X1152391Y1680715D01*
X1154930Y1678176D01*
Y1675637D01*
X1152391Y1673098D01*
X1147312D01*
X1144773Y1675637D01*
Y1678176D01*
X1147312Y1680715D01*
X1144773Y1683255D01*
Y1685794D01*
X1147312Y1680715D02*
X1152391D01*
X861568Y1563878D02*
Y1579113D01*
X869185D01*
X871725Y1576574D01*
Y1571496D01*
X869185Y1568956D01*
X861568D01*
X866646D02*
X871725Y1563878D01*
X876803Y1579113D02*
X886960D01*
Y1576574D01*
X876803Y1566417D01*
Y1563878D01*
X826008Y1450848D02*
Y1466083D01*
X833625D01*
X836165Y1463544D01*
Y1458466D01*
X833625Y1455926D01*
X826008D01*
X831086D02*
X836165Y1450848D01*
X851400Y1466083D02*
X846321Y1463544D01*
X841243Y1458466D01*
Y1453387D01*
X843782Y1450848D01*
X848861D01*
X851400Y1453387D01*
Y1455926D01*
X848861Y1458466D01*
X841243D01*
X1091438Y1184148D02*
Y1199383D01*
X1099055D01*
X1101595Y1196844D01*
Y1191766D01*
X1099055Y1189226D01*
X1091438D01*
X1096516D02*
X1101595Y1184148D01*
X1116830Y1199383D02*
X1106673D01*
Y1191766D01*
X1111751Y1194305D01*
X1114291D01*
X1116830Y1191766D01*
Y1186687D01*
X1114291Y1184148D01*
X1109212D01*
X1106673Y1186687D01*
X1161288Y1386078D02*
Y1401313D01*
X1168905D01*
X1171445Y1398774D01*
Y1393696D01*
X1168905Y1391156D01*
X1161288D01*
X1166366D02*
X1171445Y1386078D01*
X1184141D02*
Y1401313D01*
X1176523Y1393696D01*
X1186680D01*
X825246Y1388618D02*
Y1403853D01*
X832863D01*
X835403Y1401314D01*
Y1396236D01*
X832863Y1393696D01*
X825246D01*
X830324D02*
X835403Y1388618D01*
X840481Y1401314D02*
X843020Y1403853D01*
X848099D01*
X850638Y1401314D01*
Y1398775D01*
X848099Y1396236D01*
X845559D01*
X848099D01*
X850638Y1393696D01*
Y1391157D01*
X848099Y1388618D01*
X843020D01*
X840481Y1391157D01*
X1154938Y1457198D02*
Y1472433D01*
X1162555D01*
X1165095Y1469894D01*
Y1464816D01*
X1162555Y1462276D01*
X1154938D01*
X1160016D02*
X1165095Y1457198D01*
X1180330D02*
X1170173D01*
X1180330Y1467355D01*
Y1469894D01*
X1177791Y1472433D01*
X1172712D01*
X1170173Y1469894D01*
X1158748Y1304798D02*
Y1320033D01*
X1166366D01*
X1168905Y1317494D01*
Y1312415D01*
X1166366Y1309876D01*
X1158748D01*
X1163826D02*
X1168905Y1304798D01*
X1173983D02*
X1179061D01*
X1176522D01*
Y1320033D01*
X1173983Y1317494D01*
X1047754Y1811017D02*
Y1795782D01*
X1057911D01*
X1073146D02*
X1062989D01*
X1073146Y1805939D01*
Y1808478D01*
X1070607Y1811017D01*
X1065528D01*
X1062989Y1808478D01*
X701548Y1083813D02*
Y1068578D01*
X711705D01*
X716783D02*
X721861D01*
X719322D01*
Y1083813D01*
X716783Y1081274D01*
X1019048Y1155949D02*
Y1140714D01*
Y1145792D01*
X1029205Y1155949D01*
X1021587Y1148332D01*
X1029205Y1140714D01*
X1034283D02*
X1039361D01*
X1036822D01*
Y1155949D01*
X1034283Y1153410D01*
X1057136Y1140714D02*
X1046979D01*
X1057136Y1150871D01*
Y1153410D01*
X1054596Y1155949D01*
X1049518D01*
X1046979Y1153410D01*
X452120Y1024885D02*
Y1009650D01*
Y1014728D01*
X462277Y1024885D01*
X454659Y1017268D01*
X462277Y1009650D01*
X467355D02*
X472433D01*
X469894D01*
Y1024885D01*
X467355Y1022346D01*
X480051Y1009650D02*
X485129D01*
X482590D01*
Y1024885D01*
X480051Y1022346D01*
X750570Y1084321D02*
Y1069086D01*
Y1074164D01*
X760727Y1084321D01*
X753109Y1076703D01*
X760727Y1069086D01*
X765805D02*
X770883D01*
X768344D01*
Y1084321D01*
X765805Y1081782D01*
X778501D02*
X781040Y1084321D01*
X786118D01*
X788658Y1081782D01*
Y1071625D01*
X786118Y1069086D01*
X781040D01*
X778501Y1071625D01*
Y1081782D01*
X542290Y1440683D02*
Y1425448D01*
Y1430526D01*
X552447Y1440683D01*
X544829Y1433065D01*
X552447Y1425448D01*
X557525Y1427987D02*
X560064Y1425448D01*
X565143D01*
X567682Y1427987D01*
Y1438144D01*
X565143Y1440683D01*
X560064D01*
X557525Y1438144D01*
Y1435605D01*
X560064Y1433065D01*
X567682D01*
X1212854Y1812287D02*
Y1797052D01*
Y1802131D01*
X1223011Y1812287D01*
X1215393Y1804670D01*
X1223011Y1797052D01*
X1228089Y1809748D02*
X1230628Y1812287D01*
X1235707D01*
X1238246Y1809748D01*
Y1807209D01*
X1235707Y1804670D01*
X1238246Y1802131D01*
Y1799592D01*
X1235707Y1797052D01*
X1230628D01*
X1228089Y1799592D01*
Y1802131D01*
X1230628Y1804670D01*
X1228089Y1807209D01*
Y1809748D01*
X1230628Y1804670D02*
X1235707D01*
X531114Y1026155D02*
Y1010920D01*
Y1015998D01*
X541271Y1026155D01*
X533653Y1018538D01*
X541271Y1010920D01*
X546349Y1026155D02*
X556506D01*
Y1023616D01*
X546349Y1013459D01*
Y1010920D01*
X363982Y1055365D02*
Y1040130D01*
Y1045208D01*
X374139Y1055365D01*
X366521Y1047747D01*
X374139Y1040130D01*
X389374Y1055365D02*
X384295Y1052826D01*
X379217Y1047747D01*
Y1042669D01*
X381756Y1040130D01*
X386835D01*
X389374Y1042669D01*
Y1045208D01*
X386835Y1047747D01*
X379217D01*
X539242Y1362959D02*
Y1347724D01*
Y1352802D01*
X549399Y1362959D01*
X541781Y1355341D01*
X549399Y1347724D01*
X564634Y1362959D02*
X554477D01*
Y1355341D01*
X559555Y1357881D01*
X562095D01*
X564634Y1355341D01*
Y1350263D01*
X562095Y1347724D01*
X557016D01*
X554477Y1350263D01*
X417830Y1091941D02*
Y1076706D01*
Y1081784D01*
X427987Y1091941D01*
X420369Y1084324D01*
X427987Y1076706D01*
X440683D02*
Y1091941D01*
X433065Y1084324D01*
X443222D01*
X1215394Y1567177D02*
Y1551942D01*
Y1557021D01*
X1225551Y1567177D01*
X1217933Y1559560D01*
X1225551Y1551942D01*
X1230629Y1564638D02*
X1233168Y1567177D01*
X1238247D01*
X1240786Y1564638D01*
Y1562099D01*
X1238247Y1559560D01*
X1235707D01*
X1238247D01*
X1240786Y1557021D01*
Y1554482D01*
X1238247Y1551942D01*
X1233168D01*
X1230629Y1554482D01*
X271784Y1570988D02*
Y1555753D01*
Y1560831D01*
X281941Y1570988D01*
X274323Y1563370D01*
X281941Y1555753D01*
X297176D02*
X287019D01*
X297176Y1565909D01*
Y1568448D01*
X294637Y1570988D01*
X289558D01*
X287019Y1568448D01*
X264414Y1822953D02*
Y1807718D01*
Y1812796D01*
X274571Y1822953D01*
X266953Y1815336D01*
X274571Y1807718D01*
X279649D02*
X284727D01*
X282188D01*
Y1822953D01*
X279649Y1820414D01*
X430530Y1305047D02*
X435608D01*
X433069D01*
Y1289812D01*
X430530D01*
X435608D01*
X453383Y1302508D02*
X450843Y1305047D01*
X445765D01*
X443226Y1302508D01*
Y1292351D01*
X445765Y1289812D01*
X450843D01*
X453383Y1292351D01*
X458461Y1302508D02*
X461000Y1305047D01*
X466078D01*
X468618Y1302508D01*
Y1299969D01*
X466078Y1297430D01*
X463539D01*
X466078D01*
X468618Y1294890D01*
Y1292351D01*
X466078Y1289812D01*
X461000D01*
X458461Y1292351D01*
X1053846Y1612641D02*
X1058924D01*
X1056385D01*
Y1597406D01*
X1053846D01*
X1058924D01*
X1076699Y1610102D02*
X1074159Y1612641D01*
X1069081D01*
X1066542Y1610102D01*
Y1599945D01*
X1069081Y1597406D01*
X1074159D01*
X1076699Y1599945D01*
X1091934Y1597406D02*
X1081777D01*
X1091934Y1607563D01*
Y1610102D01*
X1089395Y1612641D01*
X1084316D01*
X1081777Y1610102D01*
X698246Y1457955D02*
X703324D01*
X700785D01*
Y1442720D01*
X698246D01*
X703324D01*
X721099Y1455416D02*
X718559Y1457955D01*
X713481D01*
X710942Y1455416D01*
Y1445259D01*
X713481Y1442720D01*
X718559D01*
X721099Y1445259D01*
X726177Y1442720D02*
X731255D01*
X728716D01*
Y1457955D01*
X726177Y1455416D01*
X318008Y1054857D02*
Y1039622D01*
X325625D01*
X328165Y1042161D01*
Y1052318D01*
X325625Y1054857D01*
X318008D01*
X333243Y1052318D02*
X335782Y1054857D01*
X340861D01*
X343400Y1052318D01*
Y1049779D01*
X340861Y1047240D01*
X338321D01*
X340861D01*
X343400Y1044700D01*
Y1042161D01*
X340861Y1039622D01*
X335782D01*
X333243Y1042161D01*
X383032Y1424427D02*
Y1409192D01*
X390649D01*
X393189Y1411731D01*
Y1421888D01*
X390649Y1424427D01*
X383032D01*
X408424Y1409192D02*
X398267D01*
X408424Y1419349D01*
Y1421888D01*
X405885Y1424427D01*
X400806D01*
X398267Y1421888D01*
X396748Y1490467D02*
Y1475232D01*
X404366D01*
X406905Y1477771D01*
Y1487928D01*
X404366Y1490467D01*
X396748D01*
X411983Y1475232D02*
X417061D01*
X414522D01*
Y1490467D01*
X411983Y1487928D01*
X631441Y961132D02*
X628901Y963671D01*
X623823D01*
X621284Y961132D01*
Y950975D01*
X623823Y948436D01*
X628901D01*
X631441Y950975D01*
X636519Y948436D02*
X641597D01*
X639058D01*
Y963671D01*
X636519Y961132D01*
X656833Y948436D02*
Y963671D01*
X649215Y956053D01*
X659372D01*
X1020061Y1330702D02*
X1017522Y1333241D01*
X1012443D01*
X1009904Y1330702D01*
Y1320545D01*
X1012443Y1318006D01*
X1017522D01*
X1020061Y1320545D01*
X1025139Y1318006D02*
X1030217D01*
X1027678D01*
Y1333241D01*
X1025139Y1330702D01*
X1037835D02*
X1040374Y1333241D01*
X1045452D01*
X1047992Y1330702D01*
Y1328163D01*
X1045452Y1325623D01*
X1042913D01*
X1045452D01*
X1047992Y1323084D01*
Y1320545D01*
X1045452Y1318006D01*
X1040374D01*
X1037835Y1320545D01*
X1094991Y1334512D02*
X1092451Y1337051D01*
X1087373D01*
X1084834Y1334512D01*
Y1324355D01*
X1087373Y1321816D01*
X1092451D01*
X1094991Y1324355D01*
X1100069Y1321816D02*
X1105147D01*
X1102608D01*
Y1337051D01*
X1100069Y1334512D01*
X1122922Y1321816D02*
X1112765D01*
X1122922Y1331973D01*
Y1334512D01*
X1120383Y1337051D01*
X1115304D01*
X1112765Y1334512D01*
X494281Y1358642D02*
X491741Y1361181D01*
X486663D01*
X484124Y1358642D01*
Y1348485D01*
X486663Y1345946D01*
X491741D01*
X494281Y1348485D01*
X499359Y1345946D02*
X504437D01*
X501898D01*
Y1361181D01*
X499359Y1358642D01*
X512055Y1345946D02*
X517133D01*
X514594D01*
Y1361181D01*
X512055Y1358642D01*
X883155Y1010662D02*
X880615Y1013201D01*
X875537D01*
X872998Y1010662D01*
Y1000505D01*
X875537Y997966D01*
X880615D01*
X883155Y1000505D01*
X888233D02*
X890772Y997966D01*
X895851D01*
X898390Y1000505D01*
Y1010662D01*
X895851Y1013201D01*
X890772D01*
X888233Y1010662D01*
Y1008123D01*
X890772Y1005583D01*
X898390D01*
X919731Y1080512D02*
X917191Y1083051D01*
X912113D01*
X909574Y1080512D01*
Y1070355D01*
X912113Y1067816D01*
X917191D01*
X919731Y1070355D01*
X924809Y1080512D02*
X927348Y1083051D01*
X932427D01*
X934966Y1080512D01*
Y1077973D01*
X932427Y1075434D01*
X934966Y1072894D01*
Y1070355D01*
X932427Y1067816D01*
X927348D01*
X924809Y1070355D01*
Y1072894D01*
X927348Y1075434D01*
X924809Y1077973D01*
Y1080512D01*
X927348Y1075434D02*
X932427D01*
X1078481Y1685032D02*
X1075941Y1687571D01*
X1070863D01*
X1068324Y1685032D01*
Y1674875D01*
X1070863Y1672336D01*
X1075941D01*
X1078481Y1674875D01*
X1083559Y1687571D02*
X1093716D01*
Y1685032D01*
X1083559Y1674875D01*
Y1672336D01*
X1106171Y1267458D02*
X1103632Y1269997D01*
X1098553D01*
X1096014Y1267458D01*
Y1257302D01*
X1098553Y1254762D01*
X1103632D01*
X1106171Y1257302D01*
X1121406Y1269997D02*
X1116328Y1267458D01*
X1111249Y1262380D01*
Y1257302D01*
X1113788Y1254762D01*
X1118867D01*
X1121406Y1257302D01*
Y1259841D01*
X1118867Y1262380D01*
X1111249D01*
X702311Y1565908D02*
X699772Y1568448D01*
X694693D01*
X692154Y1565908D01*
Y1555752D01*
X694693Y1553212D01*
X699772D01*
X702311Y1555752D01*
X717546Y1568448D02*
X707389D01*
Y1560830D01*
X712467Y1563369D01*
X715007D01*
X717546Y1560830D01*
Y1555752D01*
X715007Y1553212D01*
X709928D01*
X707389Y1555752D01*
X774189Y1570224D02*
X771649Y1572763D01*
X766571D01*
X764032Y1570224D01*
Y1560067D01*
X766571Y1557528D01*
X771649D01*
X774189Y1560067D01*
X786885Y1557528D02*
Y1572763D01*
X779267Y1565146D01*
X789424D01*
X901951Y1401822D02*
X899411Y1404361D01*
X894333D01*
X891794Y1401822D01*
Y1391665D01*
X894333Y1389126D01*
X899411D01*
X901951Y1391665D01*
X907029Y1401822D02*
X909568Y1404361D01*
X914647D01*
X917186Y1401822D01*
Y1399283D01*
X914647Y1396743D01*
X912107D01*
X914647D01*
X917186Y1394204D01*
Y1391665D01*
X914647Y1389126D01*
X909568D01*
X907029Y1391665D01*
X980441Y1487168D02*
X977902Y1489707D01*
X972823D01*
X970284Y1487168D01*
Y1477012D01*
X972823Y1474473D01*
X977902D01*
X980441Y1477012D01*
X995676Y1474473D02*
X985519D01*
X995676Y1484629D01*
Y1487168D01*
X993137Y1489707D01*
X988058D01*
X985519Y1487168D01*
X702310Y1799588D02*
X699771Y1802128D01*
X694693D01*
X692153Y1799588D01*
Y1789432D01*
X694693Y1786893D01*
X699771D01*
X702310Y1789432D01*
X707388Y1786893D02*
X712467D01*
X709928D01*
Y1802128D01*
X707388Y1799588D01*
X822963Y1010918D02*
X820424Y1013457D01*
X815345D01*
X812806Y1010918D01*
Y1000762D01*
X815345Y998223D01*
X820424D01*
X822963Y1000762D01*
X828041Y998223D02*
X833120D01*
X830580D01*
Y1013457D01*
X828041Y1010918D01*
X848355Y1013457D02*
X843276D01*
X840737Y1010918D01*
Y1000762D01*
X843276Y998223D01*
X848355D01*
X850894Y1000762D01*
Y1010918D01*
X848355Y1013457D01*
X606806Y1816095D02*
Y1800860D01*
X614423D01*
X616963Y1803399D01*
Y1805938D01*
X614423Y1808477D01*
X606806D01*
X614423D01*
X616963Y1811017D01*
Y1813556D01*
X614423Y1816095D01*
X606806D01*
X632198Y1800860D02*
X622041D01*
X632198Y1811017D01*
Y1813556D01*
X629659Y1816095D01*
X624580D01*
X622041Y1813556D01*
X526796Y1819905D02*
Y1804670D01*
X534413D01*
X536953Y1807209D01*
Y1809748D01*
X534413Y1812287D01*
X526796D01*
X534413D01*
X536953Y1814827D01*
Y1817366D01*
X534413Y1819905D01*
X526796D01*
X542031Y1804670D02*
X547109D01*
X544570D01*
Y1819905D01*
X542031Y1817366D01*
D16*
X1058160Y1768860D02*
X1171960D01*
X1058160Y1705860D02*
Y1768860D01*
Y1705860D02*
X1171960D01*
Y1768860D01*
X650660Y1702750D02*
Y1737750D01*
Y1627750D02*
Y1662750D01*
Y1527750D02*
Y1587750D01*
X614660Y1782750D02*
X650660D01*
X614660Y1482750D02*
Y1782750D01*
Y1482750D02*
X650660D01*
X570650Y1706630D02*
Y1741630D01*
Y1631630D02*
Y1666630D01*
Y1531630D02*
Y1591630D01*
X534650Y1786630D02*
X570650D01*
X534650Y1486630D02*
Y1786630D01*
Y1486630D02*
X570650D01*
M02*
