G04*
G04 #@! TF.GenerationSoftware,Altium Limited,Altium Designer,23.0.1 (38)*
G04*
G04 Layer_Color=8388736*
%FSLAX44Y44*%
%MOMM*%
G71*
G04*
G04 #@! TF.SameCoordinates,110CD8AD-1924-4517-BBA5-4E1113904411*
G04*
G04*
G04 #@! TF.FilePolarity,Negative*
G04*
G01*
G75*
%ADD18R,1.5046X1.5562*%
%ADD19R,1.5562X1.5046*%
%ADD20R,1.6032X1.7532*%
%ADD21C,2.0032*%
%ADD22R,2.0032X2.0032*%
%ADD23C,1.7032*%
%ADD24R,1.7032X1.7032*%
%ADD25R,1.3032X1.3032*%
%ADD26C,1.3032*%
%ADD27C,1.7780*%
%ADD28R,1.7780X1.7780*%
%ADD29R,2.1232X2.1232*%
%ADD30C,2.1232*%
%ADD31C,2.1082*%
%ADD32R,1.2532X1.2532*%
%ADD33C,1.2532*%
%ADD34R,1.3032X1.3032*%
%ADD35C,1.6032*%
%ADD36R,1.6032X1.6032*%
%ADD37R,1.7532X1.7532*%
%ADD38C,1.7532*%
%ADD39R,1.2532X1.2532*%
%ADD40C,1.8032*%
%ADD41R,1.7532X1.7532*%
%ADD42R,2.0000X2.0000*%
%ADD43C,2.0000*%
%ADD44C,1.2000*%
%ADD45R,1.2000X1.2000*%
%ADD46R,1.2000X1.2000*%
%ADD47R,1.3500X1.3500*%
%ADD48C,1.3500*%
%ADD49R,1.5500X1.5500*%
%ADD50C,1.5500*%
%ADD51R,1.5500X1.5500*%
%ADD52R,1.8032X1.8032*%
%ADD53C,2.5432*%
%ADD54R,1.8032X1.8032*%
%ADD55C,1.4732*%
D18*
X1099702Y1235710D02*
D03*
X1117718D02*
D03*
X1020844Y1296670D02*
D03*
X1038860D02*
D03*
X1095892Y1300480D02*
D03*
X1113908D02*
D03*
X1079382Y1651000D02*
D03*
X1097398D02*
D03*
X902852Y1367790D02*
D03*
X920868D02*
D03*
X632224Y927100D02*
D03*
X650240D02*
D03*
X901936Y976630D02*
D03*
X883920D02*
D03*
X920632Y1046480D02*
D03*
X938648D02*
D03*
D19*
X495300Y1324728D02*
D03*
Y1306712D02*
D03*
D20*
X1026820Y1437640D02*
D03*
X1045820D02*
D03*
X1099210Y1369060D02*
D03*
X1118210D02*
D03*
X962050Y1367790D02*
D03*
X981050D02*
D03*
X1091590Y1436370D02*
D03*
X1110590D02*
D03*
X1025550Y1369060D02*
D03*
X1044550D02*
D03*
X1019860Y1226820D02*
D03*
X1038860D02*
D03*
X1139240Y1652270D02*
D03*
X1158240D02*
D03*
X1101090Y1163320D02*
D03*
X1120090D02*
D03*
X1170990Y1365250D02*
D03*
X1189990D02*
D03*
X1164590Y1436370D02*
D03*
X1183590D02*
D03*
X1168400Y1283970D02*
D03*
X1187400D02*
D03*
X980440Y1559560D02*
D03*
X999440D02*
D03*
X982980Y1686560D02*
D03*
X1001980D02*
D03*
X982370Y1623060D02*
D03*
X1001370D02*
D03*
X859180Y1047750D02*
D03*
X878180D02*
D03*
X630580Y985520D02*
D03*
X649580D02*
D03*
X560070Y1046480D02*
D03*
X579070D02*
D03*
X632510Y1049020D02*
D03*
X651510D02*
D03*
X871270Y1482090D02*
D03*
X890270D02*
D03*
X871220Y1543050D02*
D03*
X890220D02*
D03*
X835660Y1430020D02*
D03*
X854660D02*
D03*
X835050Y1367790D02*
D03*
X854050D02*
D03*
D21*
X1235710Y1766570D02*
D03*
Y1652270D02*
D03*
X303530Y1605280D02*
D03*
Y1717040D02*
D03*
D22*
X1235710Y1715770D02*
D03*
Y1601470D02*
D03*
X303530Y1656080D02*
D03*
Y1767840D02*
D03*
D23*
X1143000Y1581150D02*
D03*
X1117600D02*
D03*
X1092200D02*
D03*
X1066800D02*
D03*
X1143000Y1504950D02*
D03*
X1117600D02*
D03*
X1092200D02*
D03*
D24*
X1066800D02*
D03*
D25*
X928690Y1456690D02*
D03*
X774700Y984250D02*
D03*
D26*
X948690Y1456690D02*
D03*
X794700Y984250D02*
D03*
X718820Y1524950D02*
D03*
D27*
X782320Y1743456D02*
D03*
D28*
Y1643380D02*
D03*
D29*
X1005840Y1758950D02*
D03*
D30*
X980440D02*
D03*
X955040D02*
D03*
D31*
X1153160Y1750060D02*
D03*
Y1724660D02*
D03*
X1076960D02*
D03*
Y1750060D02*
D03*
D32*
X922020Y1516380D02*
D03*
X923290Y1590040D02*
D03*
X920750Y1666240D02*
D03*
D33*
X934720Y1516380D02*
D03*
X947420D02*
D03*
X935990Y1590040D02*
D03*
X948690D02*
D03*
X933450Y1666240D02*
D03*
X946150D02*
D03*
X349250Y1496060D02*
D03*
Y1508760D02*
D03*
D34*
X718820Y1504950D02*
D03*
D35*
X574040Y1319530D02*
D03*
D36*
X548640D02*
D03*
D37*
X1076960Y979170D02*
D03*
X488950Y937260D02*
D03*
X542290Y938530D02*
D03*
D38*
X1076960Y1004570D02*
D03*
Y1029970D02*
D03*
Y1055370D02*
D03*
Y1080770D02*
D03*
X1051560Y979170D02*
D03*
Y1004570D02*
D03*
Y1029970D02*
D03*
Y1055370D02*
D03*
Y1080770D02*
D03*
X463550Y988060D02*
D03*
Y962660D02*
D03*
X488950Y988060D02*
D03*
Y962660D02*
D03*
X463550Y937260D02*
D03*
X762000Y1047750D02*
D03*
X787400D02*
D03*
X542290Y989330D02*
D03*
Y963930D02*
D03*
X487680Y1055370D02*
D03*
X462280D02*
D03*
D39*
X349250Y1483360D02*
D03*
D40*
X774900Y1405890D02*
D03*
X723900D02*
D03*
X748900D02*
D03*
X377190Y1016000D02*
D03*
Y990600D02*
D03*
Y965200D02*
D03*
X607060Y1402080D02*
D03*
X632460D02*
D03*
X581660D02*
D03*
X556260D02*
D03*
D41*
X812800Y1047750D02*
D03*
X436880Y1055370D02*
D03*
D42*
X485810Y1529500D02*
D03*
D43*
X410810D02*
D03*
X485810Y1732500D02*
D03*
Y1681700D02*
D03*
Y1783300D02*
D03*
X410810D02*
D03*
Y1732500D02*
D03*
Y1681700D02*
D03*
D44*
X810060Y1513840D02*
D03*
X716280Y1053040D02*
D03*
X388410Y1384300D02*
D03*
D45*
X785060Y1513840D02*
D03*
X503130Y1384300D02*
D03*
D46*
X716280Y938320D02*
D03*
D47*
X937260Y1267460D02*
D03*
D48*
X911860D02*
D03*
X886460D02*
D03*
X861060D02*
D03*
X835660D02*
D03*
X810260D02*
D03*
X784860D02*
D03*
X759460D02*
D03*
X734060D02*
D03*
X708660D02*
D03*
X683260D02*
D03*
X657860D02*
D03*
X632460D02*
D03*
X607060D02*
D03*
X581660D02*
D03*
X556260D02*
D03*
X530860D02*
D03*
X505460D02*
D03*
X480060D02*
D03*
X454660D02*
D03*
Y1113155D02*
D03*
X480060D02*
D03*
X505460D02*
D03*
X530860D02*
D03*
X556260D02*
D03*
X581660D02*
D03*
X607060D02*
D03*
X632460D02*
D03*
X657860D02*
D03*
X683260D02*
D03*
X708660D02*
D03*
X734060D02*
D03*
X759460D02*
D03*
X784860D02*
D03*
X810260D02*
D03*
X835660D02*
D03*
X861060D02*
D03*
X886460D02*
D03*
X911860D02*
D03*
X937260D02*
D03*
D49*
X331470Y933500D02*
D03*
D50*
Y1022300D02*
D03*
X403910Y1451610D02*
D03*
D51*
X492710D02*
D03*
D52*
X377190Y939800D02*
D03*
D53*
X645160Y1757750D02*
D03*
Y1682750D02*
D03*
Y1607750D02*
D03*
Y1507750D02*
D03*
X565150Y1761630D02*
D03*
Y1686630D02*
D03*
Y1611630D02*
D03*
Y1511630D02*
D03*
D54*
X657860Y1402080D02*
D03*
D55*
X889000Y1560322D02*
D03*
X1075550Y1266330D02*
D03*
X1059180Y1470660D02*
D03*
X1130300Y1283970D02*
D03*
X579070Y1095502D02*
D03*
X865886Y1393952D02*
D03*
X649580Y953262D02*
D03*
X560070Y1013968D02*
D03*
X943102Y1222248D02*
D03*
X961136Y1533398D02*
D03*
X968248Y1254252D02*
D03*
X857504Y1079246D02*
D03*
X1079382Y1626108D02*
D03*
M02*
