G04*
G04 #@! TF.GenerationSoftware,Altium Limited,Altium Designer,23.0.1 (38)*
G04*
G04 Layer_Color=32768*
%FSLAX44Y44*%
%MOMM*%
G71*
G04*
G04 #@! TF.SameCoordinates,110CD8AD-1924-4517-BBA5-4E1113904411*
G04*
G04*
G04 #@! TF.FilePolarity,Positive*
G04*
G01*
G75*
%ADD12C,0.2000*%
%ADD16C,0.1000*%
%ADD86C,0.0254*%
%ADD87C,0.0500*%
G36*
X740119Y1590929D02*
X679831Y1651217D01*
Y1735619D01*
X740119Y1795907D01*
X824521D01*
X884809Y1735619D01*
Y1651217D01*
X824521Y1590929D01*
X740119D01*
D02*
G37*
D12*
X762560Y1513840D02*
G03*
X832560Y1513840I35000J0D01*
G01*
D02*
G03*
X762560Y1513840I-35000J0D01*
G01*
X1087179Y1248491D02*
X1130241D01*
Y1222929D02*
Y1248491D01*
X1087179Y1222929D02*
X1130241D01*
X1087179D02*
Y1248491D01*
X1008321Y1309451D02*
X1051383D01*
Y1283889D02*
Y1309451D01*
X1008321Y1283889D02*
X1051383D01*
X1008321D02*
Y1309451D01*
X1083369Y1313261D02*
X1126431D01*
Y1287699D02*
Y1313261D01*
X1083369Y1287699D02*
X1126431D01*
X1083369D02*
Y1313261D01*
X1066859Y1663781D02*
X1109921D01*
Y1638219D02*
Y1663781D01*
X1066859Y1638219D02*
X1109921D01*
X1066859D02*
Y1663781D01*
X933391Y1355009D02*
Y1380571D01*
X890329D02*
X933391D01*
X890329Y1355009D02*
Y1380571D01*
Y1355009D02*
X933391D01*
X1058160Y1768860D02*
X1171960D01*
X1058160Y1705860D02*
Y1768860D01*
Y1705860D02*
X1171960D01*
Y1768860D01*
X383810Y1505000D02*
Y1797000D01*
X512810D01*
Y1505000D02*
Y1797000D01*
X383810Y1505000D02*
X512810D01*
X700030Y931320D02*
Y1060040D01*
X732530D01*
Y931320D02*
Y1060040D01*
X700030Y931320D02*
X732530D01*
X619701Y939881D02*
X662763D01*
Y914319D02*
Y939881D01*
X619701Y914319D02*
X662763D01*
X619701D02*
Y939881D01*
X508081Y1294189D02*
Y1337251D01*
X482519Y1294189D02*
X508081D01*
X482519D02*
Y1337251D01*
X508081D01*
X871397Y963849D02*
X914459D01*
X871397D02*
Y989411D01*
X914459D01*
Y963849D02*
Y989411D01*
X908109Y1059261D02*
X951171D01*
Y1033699D02*
Y1059261D01*
X908109Y1033699D02*
X951171D01*
X908109D02*
Y1059261D01*
X963025Y1105405D02*
Y1275210D01*
X428895Y1105405D02*
X963025D01*
X428895D02*
Y1275210D01*
X963025D01*
X316470Y924750D02*
Y1031050D01*
X346470D01*
Y924750D02*
Y1031050D01*
X316470Y924750D02*
X346470D01*
X395160Y1436610D02*
X501460D01*
X395160D02*
Y1466610D01*
X501460D01*
Y1436610D02*
Y1466610D01*
X381410Y1368050D02*
X510130D01*
X381410D02*
Y1400550D01*
X510130D01*
Y1368050D02*
Y1400550D01*
X614660Y1482750D02*
X650660D01*
Y1782750D01*
X614660D02*
X650660D01*
X614660Y1482750D02*
Y1782750D01*
X534650Y1486630D02*
X570650D01*
Y1786630D01*
X534650D02*
X570650D01*
X534650Y1486630D02*
Y1786630D01*
D16*
X964940Y1456690D02*
G03*
X964940Y1456690I-26250J0D01*
G01*
X810950Y984250D02*
G03*
X810950Y984250I-26250J0D01*
G01*
X745070Y1514950D02*
G03*
X745070Y1514950I-26250J0D01*
G01*
X1235710Y1736170D02*
Y1746170D01*
X1230710Y1741170D02*
X1240710D01*
X1031320Y1437640D02*
X1041320D01*
X1036320Y1432640D02*
Y1442640D01*
X1103710Y1369060D02*
X1113710D01*
X1108710Y1364060D02*
Y1374060D01*
X966550Y1367790D02*
X976550D01*
X971550Y1362790D02*
Y1372790D01*
X1096090Y1436370D02*
X1106090D01*
X1101090Y1431370D02*
Y1441370D01*
X1030050Y1369060D02*
X1040050D01*
X1035050Y1364060D02*
Y1374060D01*
X1024360Y1226820D02*
X1034360D01*
X1029360Y1221820D02*
Y1231820D01*
X1143740Y1652270D02*
X1153740D01*
X1148740Y1647270D02*
Y1657270D01*
X1105590Y1163320D02*
X1115590D01*
X1110590Y1158320D02*
Y1168320D01*
X1175490Y1365250D02*
X1185490D01*
X1180490Y1360250D02*
Y1370250D01*
X1169090Y1436370D02*
X1179090D01*
X1174090Y1431370D02*
Y1441370D01*
X1172900Y1283970D02*
X1182900D01*
X1177900Y1278970D02*
Y1288970D01*
X1235710Y1621870D02*
Y1631870D01*
X1230710Y1626870D02*
X1240710D01*
X1099900Y1543050D02*
X1109900D01*
X1104900Y1538050D02*
Y1548050D01*
X927740Y1727000D02*
X1033140D01*
X927740D02*
Y1773900D01*
X1033140D01*
Y1727000D02*
Y1773900D01*
X1020440Y1727000D02*
X1033140Y1739700D01*
X929720Y1516380D02*
X939720D01*
X934720Y1511380D02*
Y1521380D01*
X930990Y1590040D02*
X940990D01*
X935990Y1585040D02*
Y1595040D01*
X928450Y1666240D02*
X938450D01*
X933450Y1661240D02*
Y1671240D01*
X984940Y1559560D02*
X994940D01*
X989940Y1554560D02*
Y1564560D01*
X987480Y1686560D02*
X997480D01*
X992480Y1681560D02*
Y1691560D01*
X986870Y1623060D02*
X996870D01*
X991870Y1618060D02*
Y1628060D01*
X303530Y1625680D02*
Y1635680D01*
X298530Y1630680D02*
X308530D01*
X561340Y1314530D02*
Y1324530D01*
X556340Y1319530D02*
X566340D01*
X1064260Y1024970D02*
Y1034970D01*
X1059260Y1029970D02*
X1069260D01*
X471250Y962660D02*
X481250D01*
X476250Y957660D02*
Y967660D01*
X863680Y1047750D02*
X873680D01*
X868680Y1042750D02*
Y1052750D01*
X635080Y985520D02*
X645080D01*
X640080Y980520D02*
Y990520D01*
X564570Y1046480D02*
X574570D01*
X569570Y1041480D02*
Y1051480D01*
X637010Y1049020D02*
X647010D01*
X642010Y1044020D02*
Y1054020D01*
X875770Y1482090D02*
X885770D01*
X880770Y1477090D02*
Y1487090D01*
X875720Y1543050D02*
X885720D01*
X880720Y1538050D02*
Y1548050D01*
X840160Y1430020D02*
X850160D01*
X845160Y1425020D02*
Y1435020D01*
X839550Y1367790D02*
X849550D01*
X844550Y1362790D02*
Y1372790D01*
X303530Y1737440D02*
Y1747440D01*
X298530Y1742440D02*
X308530D01*
X349250Y1491060D02*
Y1501060D01*
X344250Y1496060D02*
X354250D01*
X743900Y1405890D02*
X753900D01*
X748900Y1400890D02*
Y1410890D01*
X787400Y1042750D02*
Y1052750D01*
X782400Y1047750D02*
X792400D01*
X537290Y963930D02*
X547290D01*
X542290Y958930D02*
Y968930D01*
X462280Y1050370D02*
Y1060370D01*
X457280Y1055370D02*
X467280D01*
D86*
X679831Y1651216D02*
X740118Y1590929D01*
X824522D01*
X884809Y1651216D01*
Y1735620D01*
X824522Y1795907D02*
X884809Y1735620D01*
X740118Y1795907D02*
X824522D01*
X679831Y1735620D02*
X740118Y1795907D01*
X679831Y1651216D02*
Y1735620D01*
D87*
X1194211Y1792969D02*
X1277211D01*
X1194211Y1683671D02*
Y1792969D01*
X1277211Y1683671D02*
Y1792969D01*
X1194211Y1683671D02*
X1277211D01*
X1014820Y1424640D02*
Y1450640D01*
X1057820Y1424640D02*
Y1450640D01*
X1014820D02*
X1057820D01*
X1014820Y1424640D02*
X1057820D01*
X1087210Y1356060D02*
Y1382060D01*
X1130210Y1356060D02*
Y1382060D01*
X1087210D02*
X1130210D01*
X1087210Y1356060D02*
X1130210D01*
X950050Y1354790D02*
Y1380790D01*
X993050Y1354790D02*
Y1380790D01*
X950050D02*
X993050D01*
X950050Y1354790D02*
X993050D01*
X1079590Y1423370D02*
Y1449370D01*
X1122590Y1423370D02*
Y1449370D01*
X1079590D02*
X1122590D01*
X1079590Y1423370D02*
X1122590D01*
X1013550Y1356060D02*
Y1382060D01*
X1056550Y1356060D02*
Y1382060D01*
X1013550D02*
X1056550D01*
X1013550Y1356060D02*
X1056550D01*
X1007860Y1213820D02*
Y1239820D01*
X1050860Y1213820D02*
Y1239820D01*
X1007860D02*
X1050860D01*
X1007860Y1213820D02*
X1050860D01*
X1127240Y1639270D02*
Y1665270D01*
X1170240Y1639270D02*
Y1665270D01*
X1127240D02*
X1170240D01*
X1127240Y1639270D02*
X1170240D01*
X1089090Y1150320D02*
Y1176320D01*
X1132090Y1150320D02*
Y1176320D01*
X1089090D02*
X1132090D01*
X1089090Y1150320D02*
X1132090D01*
X1158990Y1352250D02*
Y1378250D01*
X1201990Y1352250D02*
Y1378250D01*
X1158990D02*
X1201990D01*
X1158990Y1352250D02*
X1201990D01*
X1152590Y1423370D02*
Y1449370D01*
X1195590Y1423370D02*
Y1449370D01*
X1152590D02*
X1195590D01*
X1152590Y1423370D02*
X1195590D01*
X1156400Y1270970D02*
Y1296970D01*
X1199400Y1270970D02*
Y1296970D01*
X1156400D02*
X1199400D01*
X1156400Y1270970D02*
X1199400D01*
X1194211Y1678669D02*
X1277211D01*
X1194211Y1569371D02*
Y1678669D01*
X1277211Y1569371D02*
Y1678669D01*
X1194211Y1569371D02*
X1277211D01*
X910220Y1540880D02*
X959220D01*
X910220Y1502030D02*
Y1540880D01*
X959220Y1502030D02*
Y1540880D01*
X910220Y1502030D02*
X959220D01*
X911490Y1614540D02*
X960490D01*
X911490Y1575690D02*
Y1614540D01*
X960490Y1575690D02*
Y1614540D01*
X911490Y1575690D02*
X960490D01*
X908950Y1690740D02*
X957950D01*
X908950Y1651890D02*
Y1690740D01*
X957950Y1651890D02*
Y1690740D01*
X908950Y1651890D02*
X957950D01*
X968440Y1546560D02*
Y1572560D01*
X1011440Y1546560D02*
Y1572560D01*
X968440D02*
X1011440D01*
X968440Y1546560D02*
X1011440D01*
X970980Y1673560D02*
Y1699560D01*
X1013980Y1673560D02*
Y1699560D01*
X970980D02*
X1013980D01*
X970980Y1673560D02*
X1013980D01*
X970370Y1610060D02*
Y1636060D01*
X1013370Y1610060D02*
Y1636060D01*
X970370D02*
X1013370D01*
X970370Y1610060D02*
X1013370D01*
X262029Y1578881D02*
X345030D01*
X345029D02*
Y1688179D01*
X262029Y1578881D02*
Y1688179D01*
X345029D01*
X536990Y1306830D02*
X585690D01*
X536990Y1332230D02*
X585690D01*
Y1306830D02*
Y1332230D01*
X536990Y1306830D02*
Y1332230D01*
X1016757Y927220D02*
X1108760D01*
Y1132720D01*
X1016757Y927220D02*
Y1132720D01*
X1108760D01*
X449850Y1001760D02*
X502650D01*
Y923560D02*
Y1001760D01*
X449850Y923560D02*
Y1001760D01*
Y923560D02*
X502650D01*
X847180Y1034750D02*
Y1060750D01*
X890180Y1034750D02*
Y1060750D01*
X847180D02*
X890180D01*
X847180Y1034750D02*
X890180D01*
X618580Y972520D02*
Y998520D01*
X661580Y972520D02*
Y998520D01*
X618580D02*
X661580D01*
X618580Y972520D02*
X661580D01*
X548070Y1033480D02*
Y1059480D01*
X591070Y1033480D02*
Y1059480D01*
X548070D02*
X591070D01*
X548070Y1033480D02*
X591070D01*
X620510Y1036020D02*
Y1062020D01*
X663510Y1036020D02*
Y1062020D01*
X620510D02*
X663510D01*
X620510Y1036020D02*
X663510D01*
X859270Y1469090D02*
Y1495090D01*
X902270Y1469090D02*
Y1495090D01*
X859270D02*
X902270D01*
X859270Y1469090D02*
X902270D01*
X859220Y1530050D02*
Y1556050D01*
X902220Y1530050D02*
Y1556050D01*
X859220D02*
X902220D01*
X859220Y1530050D02*
X902220D01*
X823660Y1417020D02*
Y1443020D01*
X866660Y1417020D02*
Y1443020D01*
X823660D02*
X866660D01*
X823660Y1417020D02*
X866660D01*
X823050Y1354790D02*
Y1380790D01*
X866050Y1354790D02*
Y1380790D01*
X823050D02*
X866050D01*
X823050Y1354790D02*
X866050D01*
X262029Y1690641D02*
X345030D01*
X345029D02*
Y1799939D01*
X262029Y1690641D02*
Y1799939D01*
X345029D01*
X324750Y1471560D02*
Y1520560D01*
Y1471560D02*
X363600D01*
X324750Y1520560D02*
X363600D01*
Y1471560D02*
Y1520560D01*
X801900Y1356890D02*
Y1434890D01*
X695900D02*
X801900D01*
X695900Y1356890D02*
X801900D01*
X695900D02*
Y1434890D01*
X748300Y1061200D02*
X826500D01*
X748300Y1034300D02*
Y1061200D01*
X826500Y1034300D02*
Y1061200D01*
X748300Y1034300D02*
X826500D01*
X555740Y924830D02*
Y1003030D01*
X528840D02*
X555740D01*
X528840Y924830D02*
X555740D01*
X528840D02*
Y1003030D01*
X423180Y1041920D02*
X501380D01*
Y1068820D01*
X423180Y1041920D02*
Y1068820D01*
X501380D01*
X377190Y972900D02*
Y982900D01*
X372190Y977900D02*
X382190D01*
X361740Y923600D02*
Y1032200D01*
X392640D01*
Y923600D02*
Y1032200D01*
X361740Y923600D02*
X392640D01*
X602060Y1402080D02*
X612060D01*
X607060Y1397080D02*
Y1407080D01*
X540060Y1386630D02*
X674060D01*
X540060D02*
Y1417530D01*
X674060D01*
Y1386630D02*
Y1417530D01*
M02*
