G04*
G04 #@! TF.GenerationSoftware,Altium Limited,Altium Designer,23.0.1 (38)*
G04*
G04 Layer_Color=2752767*
%FSLAX44Y44*%
%MOMM*%
G71*
G04*
G04 #@! TF.SameCoordinates,110CD8AD-1924-4517-BBA5-4E1113904411*
G04*
G04*
G04 #@! TF.FilePolarity,Positive*
G04*
G01*
G75*
%ADD88C,0.1270*%
%ADD89C,0.1693*%
%ADD90C,0.1016*%
D88*
X1235710Y1761490D02*
X1230630Y1771650D01*
X1240790D01*
X1235710Y1761490D01*
Y1710690D02*
X1230630Y1720850D01*
X1240790D01*
X1235710Y1710690D01*
Y1647190D02*
X1230630Y1657350D01*
X1240790D01*
X1235710Y1647190D01*
Y1596390D02*
X1230630Y1606550D01*
X1240790D01*
X1235710Y1596390D01*
X1137920Y1576070D02*
X1140460D01*
X1143000Y1578610D01*
X1145540Y1576070D01*
X1148080D01*
Y1578610D01*
X1145540Y1581150D01*
X1148080Y1583690D01*
Y1586230D01*
X1145540D01*
X1143000Y1583690D01*
X1140460Y1586230D01*
X1137920D01*
Y1583690D01*
X1140460Y1581150D01*
X1137920Y1578610D01*
Y1576070D01*
X1112520D02*
X1115060D01*
X1117600Y1578610D01*
X1120140Y1576070D01*
X1122680D01*
Y1578610D01*
X1120140Y1581150D01*
X1122680Y1583690D01*
Y1586230D01*
X1120140D01*
X1117600Y1583690D01*
X1115060Y1586230D01*
X1112520D01*
Y1583690D01*
X1115060Y1581150D01*
X1112520Y1578610D01*
Y1576070D01*
X1087120D02*
X1089660D01*
X1092200Y1578610D01*
X1094740Y1576070D01*
X1097280D01*
Y1578610D01*
X1094740Y1581150D01*
X1097280Y1583690D01*
Y1586230D01*
X1094740D01*
X1092200Y1583690D01*
X1089660Y1586230D01*
X1087120D01*
Y1583690D01*
X1089660Y1581150D01*
X1087120Y1578610D01*
Y1576070D01*
X1061720D02*
X1064260D01*
X1066800Y1578610D01*
X1069340Y1576070D01*
X1071880D01*
Y1578610D01*
X1069340Y1581150D01*
X1071880Y1583690D01*
Y1586230D01*
X1069340D01*
X1066800Y1583690D01*
X1064260Y1586230D01*
X1061720D01*
Y1583690D01*
X1064260Y1581150D01*
X1061720Y1578610D01*
Y1576070D01*
X1137920Y1499870D02*
X1140460D01*
X1143000Y1502410D01*
X1145540Y1499870D01*
X1148080D01*
Y1502410D01*
X1145540Y1504950D01*
X1148080Y1507490D01*
Y1510030D01*
X1145540D01*
X1143000Y1507490D01*
X1140460Y1510030D01*
X1137920D01*
Y1507490D01*
X1140460Y1504950D01*
X1137920Y1502410D01*
Y1499870D01*
X1112520D02*
X1115060D01*
X1117600Y1502410D01*
X1120140Y1499870D01*
X1122680D01*
Y1502410D01*
X1120140Y1504950D01*
X1122680Y1507490D01*
Y1510030D01*
X1120140D01*
X1117600Y1507490D01*
X1115060Y1510030D01*
X1112520D01*
Y1507490D01*
X1115060Y1504950D01*
X1112520Y1502410D01*
Y1499870D01*
X1087120D02*
X1089660D01*
X1092200Y1502410D01*
X1094740Y1499870D01*
X1097280D01*
Y1502410D01*
X1094740Y1504950D01*
X1097280Y1507490D01*
Y1510030D01*
X1094740D01*
X1092200Y1507490D01*
X1089660Y1510030D01*
X1087120D01*
Y1507490D01*
X1089660Y1504950D01*
X1087120Y1502410D01*
Y1499870D01*
X1061720D02*
X1064260D01*
X1066800Y1502410D01*
X1069340Y1499870D01*
X1071880D01*
Y1502410D01*
X1069340Y1504950D01*
X1071880Y1507490D01*
Y1510030D01*
X1069340D01*
X1066800Y1507490D01*
X1064260Y1510030D01*
X1061720D01*
Y1507490D01*
X1064260Y1504950D01*
X1061720Y1502410D01*
Y1499870D01*
X928690Y1451610D02*
X931230Y1454150D01*
X933770D01*
X931230Y1456690D01*
X933770Y1459230D01*
X931230D01*
X928690Y1461770D01*
X926150Y1459230D01*
X923610D01*
X926150Y1456690D01*
X923610Y1454150D01*
X926150D01*
X928690Y1451610D01*
X948690D02*
X951230Y1454150D01*
X953770D01*
X951230Y1456690D01*
X953770Y1459230D01*
X951230D01*
X948690Y1461770D01*
X946150Y1459230D01*
X943610D01*
X946150Y1456690D01*
X943610Y1454150D01*
X946150D01*
X948690Y1451610D01*
X774700Y979170D02*
X777240Y981710D01*
X779780D01*
X777240Y984250D01*
X779780Y986790D01*
X777240D01*
X774700Y989330D01*
X772160Y986790D01*
X769620D01*
X772160Y984250D01*
X769620Y981710D01*
X772160D01*
X774700Y979170D01*
X794700D02*
X797240Y981710D01*
X799780D01*
X797240Y984250D01*
X799780Y986790D01*
X797240D01*
X794700Y989330D01*
X792160Y986790D01*
X789620D01*
X792160Y984250D01*
X789620Y981710D01*
X792160D01*
X794700Y979170D01*
X777240Y1738376D02*
Y1748536D01*
X787400D01*
Y1738376D01*
X777240D01*
X779272Y1740408D02*
Y1746504D01*
X785368D01*
Y1740408D01*
X779272D01*
X777240Y1638300D02*
Y1648460D01*
X787400D01*
Y1638300D01*
X777240D01*
X779272Y1640332D02*
Y1646428D01*
X785368D01*
Y1640332D01*
X779272D01*
X1000760Y1758950D02*
X1005840Y1764030D01*
X1010920Y1758950D01*
X1005840Y1753870D01*
X1000760Y1758950D01*
X975360D02*
X980440Y1764030D01*
X985520Y1758950D01*
X980440Y1753870D01*
X975360Y1758950D01*
X949960D02*
X955040Y1764030D01*
X960120Y1758950D01*
X955040Y1753870D01*
X949960Y1758950D01*
X1148080Y1744980D02*
Y1755140D01*
X1158240D01*
Y1744980D01*
X1148080D01*
X1150112Y1747012D02*
Y1753108D01*
X1156208D01*
Y1747012D01*
X1150112D01*
X1148080Y1719580D02*
Y1729740D01*
X1158240D01*
Y1719580D01*
X1148080D01*
X1150112Y1721612D02*
Y1727708D01*
X1156208D01*
Y1721612D01*
X1150112D01*
X1071880Y1719580D02*
Y1729740D01*
X1082040D01*
Y1719580D01*
X1071880D01*
X1073912Y1721612D02*
Y1727708D01*
X1080008D01*
Y1721612D01*
X1073912D01*
X1071880Y1744980D02*
Y1755140D01*
X1082040D01*
Y1744980D01*
X1071880D01*
X1073912Y1747012D02*
Y1753108D01*
X1080008D01*
Y1747012D01*
X1073912D01*
X919480Y1513840D02*
Y1511300D01*
X924560D01*
Y1513840D01*
X927100D01*
Y1518920D01*
X924560D01*
Y1521460D01*
X919480D01*
Y1518920D01*
X916940D01*
Y1513840D01*
X919480D01*
X932180D02*
Y1511300D01*
X937260D01*
Y1513840D01*
X939800D01*
Y1518920D01*
X937260D01*
Y1521460D01*
X932180D01*
Y1518920D01*
X929640D01*
Y1513840D01*
X932180D01*
X944880D02*
Y1511300D01*
X949960D01*
Y1513840D01*
X952500D01*
Y1518920D01*
X949960D01*
Y1521460D01*
X944880D01*
Y1518920D01*
X942340D01*
Y1513840D01*
X944880D01*
X920750Y1587500D02*
Y1584960D01*
X925830D01*
Y1587500D01*
X928370D01*
Y1592580D01*
X925830D01*
Y1595120D01*
X920750D01*
Y1592580D01*
X918210D01*
Y1587500D01*
X920750D01*
X933450D02*
Y1584960D01*
X938530D01*
Y1587500D01*
X941070D01*
Y1592580D01*
X938530D01*
Y1595120D01*
X933450D01*
Y1592580D01*
X930910D01*
Y1587500D01*
X933450D01*
X946150D02*
Y1584960D01*
X951230D01*
Y1587500D01*
X953770D01*
Y1592580D01*
X951230D01*
Y1595120D01*
X946150D01*
Y1592580D01*
X943610D01*
Y1587500D01*
X946150D01*
X918210Y1663700D02*
Y1661160D01*
X923290D01*
Y1663700D01*
X925830D01*
Y1668780D01*
X923290D01*
Y1671320D01*
X918210D01*
Y1668780D01*
X915670D01*
Y1663700D01*
X918210D01*
X930910D02*
Y1661160D01*
X935990D01*
Y1663700D01*
X938530D01*
Y1668780D01*
X935990D01*
Y1671320D01*
X930910D01*
Y1668780D01*
X928370D01*
Y1663700D01*
X930910D01*
X943610D02*
Y1661160D01*
X948690D01*
Y1663700D01*
X951230D01*
Y1668780D01*
X948690D01*
Y1671320D01*
X943610D01*
Y1668780D01*
X941070D01*
Y1663700D01*
X943610D01*
X718820Y1499870D02*
X721360Y1502410D01*
X723900D01*
X721360Y1504950D01*
X723900Y1507490D01*
X721360D01*
X718820Y1510030D01*
X716280Y1507490D01*
X713740D01*
X716280Y1504950D01*
X713740Y1502410D01*
X716280D01*
X718820Y1499870D01*
Y1519870D02*
X721360Y1522410D01*
X723900D01*
X721360Y1524950D01*
X723900Y1527490D01*
X721360D01*
X718820Y1530030D01*
X716280Y1527490D01*
X713740D01*
X716280Y1524950D01*
X713740Y1522410D01*
X716280D01*
X718820Y1519870D01*
X303530Y1600200D02*
X298450Y1610360D01*
X308610D01*
X303530Y1600200D01*
Y1651000D02*
X298450Y1661160D01*
X308610D01*
X303530Y1651000D01*
X568960Y1314450D02*
X571500Y1319530D01*
X568960Y1324610D01*
X574040Y1322070D01*
X579120Y1324610D01*
X576580Y1319530D01*
X579120Y1314450D01*
X574040Y1316990D01*
X568960Y1314450D01*
X570992Y1316482D02*
X572516Y1319530D01*
X570992Y1322578D01*
X574040Y1321054D01*
X577088Y1322578D01*
X575564Y1319530D01*
X577088Y1316482D01*
X574040Y1318006D01*
X570992Y1316482D01*
X543560Y1314450D02*
X546100Y1319530D01*
X543560Y1324610D01*
X548640Y1322070D01*
X553720Y1324610D01*
X551180Y1319530D01*
X553720Y1314450D01*
X548640Y1316990D01*
X543560Y1314450D01*
X545592Y1316482D02*
X547116Y1319530D01*
X545592Y1322578D01*
X548640Y1321054D01*
X551688Y1322578D01*
X550164Y1319530D01*
X551688Y1316482D01*
X548640Y1318006D01*
X545592Y1316482D01*
X303530Y1711960D02*
X298450Y1722120D01*
X308610D01*
X303530Y1711960D01*
Y1762760D02*
X298450Y1772920D01*
X308610D01*
X303530Y1762760D01*
X346710Y1480820D02*
Y1478280D01*
X351790D01*
Y1480820D01*
X354330D01*
Y1485900D01*
X351790D01*
Y1488440D01*
X346710D01*
Y1485900D01*
X344170D01*
Y1480820D01*
X346710D01*
Y1493520D02*
Y1490980D01*
X351790D01*
Y1493520D01*
X354330D01*
Y1498600D01*
X351790D01*
Y1501140D01*
X346710D01*
Y1498600D01*
X344170D01*
Y1493520D01*
X346710D01*
Y1506220D02*
Y1503680D01*
X351790D01*
Y1506220D01*
X354330D01*
Y1511300D01*
X351790D01*
Y1513840D01*
X346710D01*
Y1511300D01*
X344170D01*
Y1506220D01*
X346710D01*
X769820Y1400810D02*
Y1410970D01*
X779980D01*
Y1400810D01*
X769820D01*
X718820D02*
Y1410970D01*
X728980D01*
Y1400810D01*
X718820D01*
X743820D02*
Y1410970D01*
X753980D01*
Y1400810D01*
X743820D01*
X485810Y1524420D02*
X480730Y1534580D01*
X490890D01*
X485810Y1524420D01*
X410810D02*
X405730Y1534580D01*
X415890D01*
X410810Y1524420D01*
X485810Y1727420D02*
X480730Y1737580D01*
X490890D01*
X485810Y1727420D01*
Y1676620D02*
X480730Y1686780D01*
X490890D01*
X485810Y1676620D01*
Y1778220D02*
X480730Y1788380D01*
X490890D01*
X485810Y1778220D01*
X410810D02*
X405730Y1788380D01*
X415890D01*
X410810Y1778220D01*
Y1727420D02*
X405730Y1737580D01*
X415890D01*
X410810Y1727420D01*
Y1676620D02*
X405730Y1686780D01*
X415890D01*
X410810Y1676620D01*
X810060Y1508760D02*
X812600Y1511300D01*
X815140D01*
X812600Y1513840D01*
X815140Y1516380D01*
X812600D01*
X810060Y1518920D01*
X807520Y1516380D01*
X804980D01*
X807520Y1513840D01*
X804980Y1511300D01*
X807520D01*
X810060Y1508760D01*
X785060D02*
X787600Y1511300D01*
X790140D01*
X787600Y1513840D01*
X790140Y1516380D01*
X787600D01*
X785060Y1518920D01*
X782520Y1516380D01*
X779980D01*
X782520Y1513840D01*
X779980Y1511300D01*
X782520D01*
X785060Y1508760D01*
X716280Y933240D02*
X718820Y935780D01*
X721360D01*
X718820Y938320D01*
X721360Y940860D01*
X718820D01*
X716280Y943400D01*
X713740Y940860D01*
X711200D01*
X713740Y938320D01*
X711200Y935780D01*
X713740D01*
X716280Y933240D01*
Y1047960D02*
X718820Y1050500D01*
X721360D01*
X718820Y1053040D01*
X721360Y1055580D01*
X718820D01*
X716280Y1058120D01*
X713740Y1055580D01*
X711200D01*
X713740Y1053040D01*
X711200Y1050500D01*
X713740D01*
X716280Y1047960D01*
X937260Y1262380D02*
X932180Y1272540D01*
X942340D01*
X937260Y1262380D01*
Y1264412D02*
X934212Y1270508D01*
X940308D01*
X937260Y1264412D01*
X911860Y1262380D02*
X906780Y1272540D01*
X916940D01*
X911860Y1262380D01*
Y1264412D02*
X908812Y1270508D01*
X914908D01*
X911860Y1264412D01*
X886460Y1262380D02*
X881380Y1272540D01*
X891540D01*
X886460Y1262380D01*
Y1264412D02*
X883412Y1270508D01*
X889508D01*
X886460Y1264412D01*
X861060Y1262380D02*
X855980Y1272540D01*
X866140D01*
X861060Y1262380D01*
Y1264412D02*
X858012Y1270508D01*
X864108D01*
X861060Y1264412D01*
X835660Y1262380D02*
X830580Y1272540D01*
X840740D01*
X835660Y1262380D01*
Y1264412D02*
X832612Y1270508D01*
X838708D01*
X835660Y1264412D01*
X810260Y1262380D02*
X805180Y1272540D01*
X815340D01*
X810260Y1262380D01*
Y1264412D02*
X807212Y1270508D01*
X813308D01*
X810260Y1264412D01*
X784860Y1262380D02*
X779780Y1272540D01*
X789940D01*
X784860Y1262380D01*
Y1264412D02*
X781812Y1270508D01*
X787908D01*
X784860Y1264412D01*
X759460Y1262380D02*
X754380Y1272540D01*
X764540D01*
X759460Y1262380D01*
Y1264412D02*
X756412Y1270508D01*
X762508D01*
X759460Y1264412D01*
X734060Y1262380D02*
X728980Y1272540D01*
X739140D01*
X734060Y1262380D01*
Y1264412D02*
X731012Y1270508D01*
X737108D01*
X734060Y1264412D01*
X708660Y1262380D02*
X703580Y1272540D01*
X713740D01*
X708660Y1262380D01*
Y1264412D02*
X705612Y1270508D01*
X711708D01*
X708660Y1264412D01*
X683260Y1262380D02*
X678180Y1272540D01*
X688340D01*
X683260Y1262380D01*
Y1264412D02*
X680212Y1270508D01*
X686308D01*
X683260Y1264412D01*
X657860Y1262380D02*
X652780Y1272540D01*
X662940D01*
X657860Y1262380D01*
Y1264412D02*
X654812Y1270508D01*
X660908D01*
X657860Y1264412D01*
X632460Y1262380D02*
X627380Y1272540D01*
X637540D01*
X632460Y1262380D01*
Y1264412D02*
X629412Y1270508D01*
X635508D01*
X632460Y1264412D01*
X607060Y1262380D02*
X601980Y1272540D01*
X612140D01*
X607060Y1262380D01*
Y1264412D02*
X604012Y1270508D01*
X610108D01*
X607060Y1264412D01*
X581660Y1262380D02*
X576580Y1272540D01*
X586740D01*
X581660Y1262380D01*
Y1264412D02*
X578612Y1270508D01*
X584708D01*
X581660Y1264412D01*
X556260Y1262380D02*
X551180Y1272540D01*
X561340D01*
X556260Y1262380D01*
Y1264412D02*
X553212Y1270508D01*
X559308D01*
X556260Y1264412D01*
X530860Y1262380D02*
X525780Y1272540D01*
X535940D01*
X530860Y1262380D01*
Y1264412D02*
X527812Y1270508D01*
X533908D01*
X530860Y1264412D01*
X505460Y1262380D02*
X500380Y1272540D01*
X510540D01*
X505460Y1262380D01*
Y1264412D02*
X502412Y1270508D01*
X508508D01*
X505460Y1264412D01*
X480060Y1262380D02*
X474980Y1272540D01*
X485140D01*
X480060Y1262380D01*
Y1264412D02*
X477012Y1270508D01*
X483108D01*
X480060Y1264412D01*
X454660Y1262380D02*
X449580Y1272540D01*
X459740D01*
X454660Y1262380D01*
Y1264412D02*
X451612Y1270508D01*
X457708D01*
X454660Y1264412D01*
Y1108075D02*
X449580Y1118235D01*
X459740D01*
X454660Y1108075D01*
Y1110107D02*
X451612Y1116203D01*
X457708D01*
X454660Y1110107D01*
X480060Y1108075D02*
X474980Y1118235D01*
X485140D01*
X480060Y1108075D01*
Y1110107D02*
X477012Y1116203D01*
X483108D01*
X480060Y1110107D01*
X505460Y1108075D02*
X500380Y1118235D01*
X510540D01*
X505460Y1108075D01*
Y1110107D02*
X502412Y1116203D01*
X508508D01*
X505460Y1110107D01*
X530860Y1108075D02*
X525780Y1118235D01*
X535940D01*
X530860Y1108075D01*
Y1110107D02*
X527812Y1116203D01*
X533908D01*
X530860Y1110107D01*
X556260Y1108075D02*
X551180Y1118235D01*
X561340D01*
X556260Y1108075D01*
Y1110107D02*
X553212Y1116203D01*
X559308D01*
X556260Y1110107D01*
X581660Y1108075D02*
X576580Y1118235D01*
X586740D01*
X581660Y1108075D01*
Y1110107D02*
X578612Y1116203D01*
X584708D01*
X581660Y1110107D01*
X607060Y1108075D02*
X601980Y1118235D01*
X612140D01*
X607060Y1108075D01*
Y1110107D02*
X604012Y1116203D01*
X610108D01*
X607060Y1110107D01*
X632460Y1108075D02*
X627380Y1118235D01*
X637540D01*
X632460Y1108075D01*
Y1110107D02*
X629412Y1116203D01*
X635508D01*
X632460Y1110107D01*
X657860Y1108075D02*
X652780Y1118235D01*
X662940D01*
X657860Y1108075D01*
Y1110107D02*
X654812Y1116203D01*
X660908D01*
X657860Y1110107D01*
X683260Y1108075D02*
X678180Y1118235D01*
X688340D01*
X683260Y1108075D01*
Y1110107D02*
X680212Y1116203D01*
X686308D01*
X683260Y1110107D01*
X708660Y1108075D02*
X703580Y1118235D01*
X713740D01*
X708660Y1108075D01*
Y1110107D02*
X705612Y1116203D01*
X711708D01*
X708660Y1110107D01*
X734060Y1108075D02*
X728980Y1118235D01*
X739140D01*
X734060Y1108075D01*
Y1110107D02*
X731012Y1116203D01*
X737108D01*
X734060Y1110107D01*
X759460Y1108075D02*
X754380Y1118235D01*
X764540D01*
X759460Y1108075D01*
Y1110107D02*
X756412Y1116203D01*
X762508D01*
X759460Y1110107D01*
X784860Y1108075D02*
X779780Y1118235D01*
X789940D01*
X784860Y1108075D01*
Y1110107D02*
X781812Y1116203D01*
X787908D01*
X784860Y1110107D01*
X810260Y1108075D02*
X805180Y1118235D01*
X815340D01*
X810260Y1108075D01*
Y1110107D02*
X807212Y1116203D01*
X813308D01*
X810260Y1110107D01*
X835660Y1108075D02*
X830580Y1118235D01*
X840740D01*
X835660Y1108075D01*
Y1110107D02*
X832612Y1116203D01*
X838708D01*
X835660Y1110107D01*
X861060Y1108075D02*
X855980Y1118235D01*
X866140D01*
X861060Y1108075D01*
Y1110107D02*
X858012Y1116203D01*
X864108D01*
X861060Y1110107D01*
X886460Y1108075D02*
X881380Y1118235D01*
X891540D01*
X886460Y1108075D01*
Y1110107D02*
X883412Y1116203D01*
X889508D01*
X886460Y1110107D01*
X911860Y1108075D02*
X906780Y1118235D01*
X916940D01*
X911860Y1108075D01*
Y1110107D02*
X908812Y1116203D01*
X914908D01*
X911860Y1110107D01*
X937260Y1108075D02*
X932180Y1118235D01*
X942340D01*
X937260Y1108075D01*
Y1110107D02*
X934212Y1116203D01*
X940308D01*
X937260Y1110107D01*
X326390Y928420D02*
X328930Y933500D01*
X326390Y938580D01*
X331470Y936040D01*
X336550Y938580D01*
X334010Y933500D01*
X336550Y928420D01*
X331470Y930960D01*
X326390Y928420D01*
Y1017220D02*
X328930Y1022300D01*
X326390Y1027380D01*
X331470Y1024840D01*
X336550Y1027380D01*
X334010Y1022300D01*
X336550Y1017220D01*
X331470Y1019760D01*
X326390Y1017220D01*
X487630Y1446530D02*
X490170Y1451610D01*
X487630Y1456690D01*
X492710Y1454150D01*
X497790Y1456690D01*
X495250Y1451610D01*
X497790Y1446530D01*
X492710Y1449070D01*
X487630Y1446530D01*
X398830D02*
X401370Y1451610D01*
X398830Y1456690D01*
X403910Y1454150D01*
X408990Y1456690D01*
X406450Y1451610D01*
X408990Y1446530D01*
X403910Y1449070D01*
X398830Y1446530D01*
X372110Y1010920D02*
Y1021080D01*
X382270D01*
Y1010920D01*
X372110D01*
Y985520D02*
Y995680D01*
X382270D01*
Y985520D01*
X372110D01*
Y934720D02*
Y944880D01*
X382270D01*
Y934720D01*
X372110D01*
Y960120D02*
Y970280D01*
X382270D01*
Y960120D01*
X372110D01*
X503130Y1379220D02*
X505670Y1381760D01*
X508210D01*
X505670Y1384300D01*
X508210Y1386840D01*
X505670D01*
X503130Y1389380D01*
X500590Y1386840D01*
X498050D01*
X500590Y1384300D01*
X498050Y1381760D01*
X500590D01*
X503130Y1379220D01*
X388410D02*
X390950Y1381760D01*
X393490D01*
X390950Y1384300D01*
X393490Y1386840D01*
X390950D01*
X388410Y1389380D01*
X385870Y1386840D01*
X383330D01*
X385870Y1384300D01*
X383330Y1381760D01*
X385870D01*
X388410Y1379220D01*
X601980Y1397000D02*
Y1407160D01*
X612140D01*
Y1397000D01*
X601980D01*
X652780D02*
Y1407160D01*
X662940D01*
Y1397000D01*
X652780D01*
X627380D02*
Y1407160D01*
X637540D01*
Y1397000D01*
X627380D01*
X576580D02*
Y1407160D01*
X586740D01*
Y1397000D01*
X576580D01*
X551180D02*
Y1407160D01*
X561340D01*
Y1397000D01*
X551180D01*
X889000Y1555242D02*
X891540Y1557782D01*
X894080D01*
X891540Y1560322D01*
X894080Y1562862D01*
X891540D01*
X889000Y1565402D01*
X886460Y1562862D01*
X883920D01*
X886460Y1560322D01*
X883920Y1557782D01*
X886460D01*
X889000Y1555242D01*
Y1557274D02*
X890524Y1558798D01*
X892048D01*
X890524Y1560322D01*
X892048Y1561846D01*
X890524D01*
X889000Y1563370D01*
X887476Y1561846D01*
X885952D01*
X887476Y1560322D01*
X885952Y1558798D01*
X887476D01*
X889000Y1557274D01*
X1075550Y1261250D02*
X1078090Y1263790D01*
X1080630D01*
X1078090Y1266330D01*
X1080630Y1268870D01*
X1078090D01*
X1075550Y1271410D01*
X1073010Y1268870D01*
X1070470D01*
X1073010Y1266330D01*
X1070470Y1263790D01*
X1073010D01*
X1075550Y1261250D01*
Y1263282D02*
X1077074Y1264806D01*
X1078598D01*
X1077074Y1266330D01*
X1078598Y1267854D01*
X1077074D01*
X1075550Y1269378D01*
X1074026Y1267854D01*
X1072502D01*
X1074026Y1266330D01*
X1072502Y1264806D01*
X1074026D01*
X1075550Y1263282D01*
X1059180Y1465580D02*
X1061720Y1468120D01*
X1064260D01*
X1061720Y1470660D01*
X1064260Y1473200D01*
X1061720D01*
X1059180Y1475740D01*
X1056640Y1473200D01*
X1054100D01*
X1056640Y1470660D01*
X1054100Y1468120D01*
X1056640D01*
X1059180Y1465580D01*
Y1467612D02*
X1060704Y1469136D01*
X1062228D01*
X1060704Y1470660D01*
X1062228Y1472184D01*
X1060704D01*
X1059180Y1473708D01*
X1057656Y1472184D01*
X1056132D01*
X1057656Y1470660D01*
X1056132Y1469136D01*
X1057656D01*
X1059180Y1467612D01*
X1130300Y1278890D02*
X1132840Y1281430D01*
X1135380D01*
X1132840Y1283970D01*
X1135380Y1286510D01*
X1132840D01*
X1130300Y1289050D01*
X1127760Y1286510D01*
X1125220D01*
X1127760Y1283970D01*
X1125220Y1281430D01*
X1127760D01*
X1130300Y1278890D01*
Y1280922D02*
X1131824Y1282446D01*
X1133348D01*
X1131824Y1283970D01*
X1133348Y1285494D01*
X1131824D01*
X1130300Y1287018D01*
X1128776Y1285494D01*
X1127252D01*
X1128776Y1283970D01*
X1127252Y1282446D01*
X1128776D01*
X1130300Y1280922D01*
X579070Y1090422D02*
X581610Y1092962D01*
X584150D01*
X581610Y1095502D01*
X584150Y1098042D01*
X581610D01*
X579070Y1100582D01*
X576530Y1098042D01*
X573990D01*
X576530Y1095502D01*
X573990Y1092962D01*
X576530D01*
X579070Y1090422D01*
Y1092454D02*
X580594Y1093978D01*
X582118D01*
X580594Y1095502D01*
X582118Y1097026D01*
X580594D01*
X579070Y1098550D01*
X577546Y1097026D01*
X576022D01*
X577546Y1095502D01*
X576022Y1093978D01*
X577546D01*
X579070Y1092454D01*
X865886Y1388872D02*
X868426Y1391412D01*
X870966D01*
X868426Y1393952D01*
X870966Y1396492D01*
X868426D01*
X865886Y1399032D01*
X863346Y1396492D01*
X860806D01*
X863346Y1393952D01*
X860806Y1391412D01*
X863346D01*
X865886Y1388872D01*
Y1390904D02*
X867410Y1392428D01*
X868934D01*
X867410Y1393952D01*
X868934Y1395476D01*
X867410D01*
X865886Y1397000D01*
X864362Y1395476D01*
X862838D01*
X864362Y1393952D01*
X862838Y1392428D01*
X864362D01*
X865886Y1390904D01*
X649580Y948182D02*
X652120Y950722D01*
X654660D01*
X652120Y953262D01*
X654660Y955802D01*
X652120D01*
X649580Y958342D01*
X647040Y955802D01*
X644500D01*
X647040Y953262D01*
X644500Y950722D01*
X647040D01*
X649580Y948182D01*
Y950214D02*
X651104Y951738D01*
X652628D01*
X651104Y953262D01*
X652628Y954786D01*
X651104D01*
X649580Y956310D01*
X648056Y954786D01*
X646532D01*
X648056Y953262D01*
X646532Y951738D01*
X648056D01*
X649580Y950214D01*
X560070Y1008888D02*
X562610Y1011428D01*
X565150D01*
X562610Y1013968D01*
X565150Y1016508D01*
X562610D01*
X560070Y1019048D01*
X557530Y1016508D01*
X554990D01*
X557530Y1013968D01*
X554990Y1011428D01*
X557530D01*
X560070Y1008888D01*
Y1010920D02*
X561594Y1012444D01*
X563118D01*
X561594Y1013968D01*
X563118Y1015492D01*
X561594D01*
X560070Y1017016D01*
X558546Y1015492D01*
X557022D01*
X558546Y1013968D01*
X557022Y1012444D01*
X558546D01*
X560070Y1010920D01*
X943102Y1217168D02*
X945642Y1219708D01*
X948182D01*
X945642Y1222248D01*
X948182Y1224788D01*
X945642D01*
X943102Y1227328D01*
X940562Y1224788D01*
X938022D01*
X940562Y1222248D01*
X938022Y1219708D01*
X940562D01*
X943102Y1217168D01*
Y1219200D02*
X944626Y1220724D01*
X946150D01*
X944626Y1222248D01*
X946150Y1223772D01*
X944626D01*
X943102Y1225296D01*
X941578Y1223772D01*
X940054D01*
X941578Y1222248D01*
X940054Y1220724D01*
X941578D01*
X943102Y1219200D01*
X961136Y1528318D02*
X963676Y1530858D01*
X966216D01*
X963676Y1533398D01*
X966216Y1535938D01*
X963676D01*
X961136Y1538478D01*
X958596Y1535938D01*
X956056D01*
X958596Y1533398D01*
X956056Y1530858D01*
X958596D01*
X961136Y1528318D01*
Y1530350D02*
X962660Y1531874D01*
X964184D01*
X962660Y1533398D01*
X964184Y1534922D01*
X962660D01*
X961136Y1536446D01*
X959612Y1534922D01*
X958088D01*
X959612Y1533398D01*
X958088Y1531874D01*
X959612D01*
X961136Y1530350D01*
X968248Y1249172D02*
X970788Y1251712D01*
X973328D01*
X970788Y1254252D01*
X973328Y1256792D01*
X970788D01*
X968248Y1259332D01*
X965708Y1256792D01*
X963168D01*
X965708Y1254252D01*
X963168Y1251712D01*
X965708D01*
X968248Y1249172D01*
Y1251204D02*
X969772Y1252728D01*
X971296D01*
X969772Y1254252D01*
X971296Y1255776D01*
X969772D01*
X968248Y1257300D01*
X966724Y1255776D01*
X965200D01*
X966724Y1254252D01*
X965200Y1252728D01*
X966724D01*
X968248Y1251204D01*
X857504Y1074166D02*
X860044Y1076706D01*
X862584D01*
X860044Y1079246D01*
X862584Y1081786D01*
X860044D01*
X857504Y1084326D01*
X854964Y1081786D01*
X852424D01*
X854964Y1079246D01*
X852424Y1076706D01*
X854964D01*
X857504Y1074166D01*
Y1076198D02*
X859028Y1077722D01*
X860552D01*
X859028Y1079246D01*
X860552Y1080770D01*
X859028D01*
X857504Y1082294D01*
X855980Y1080770D01*
X854456D01*
X855980Y1079246D01*
X854456Y1077722D01*
X855980D01*
X857504Y1076198D01*
X1079382Y1621028D02*
X1081922Y1623568D01*
X1084462D01*
X1081922Y1626108D01*
X1084462Y1628648D01*
X1081922D01*
X1079382Y1631188D01*
X1076842Y1628648D01*
X1074302D01*
X1076842Y1626108D01*
X1074302Y1623568D01*
X1076842D01*
X1079382Y1621028D01*
Y1623060D02*
X1080906Y1624584D01*
X1082430D01*
X1080906Y1626108D01*
X1082430Y1627632D01*
X1080906D01*
X1079382Y1629156D01*
X1077858Y1627632D01*
X1076334D01*
X1077858Y1626108D01*
X1076334Y1624584D01*
X1077858D01*
X1079382Y1623060D01*
D89*
X1082040Y979170D02*
G03*
X1082040Y979170I-5080J0D01*
G01*
Y1004570D02*
G03*
X1082040Y1004570I-5080J0D01*
G01*
Y1029970D02*
G03*
X1082040Y1029970I-5080J0D01*
G01*
Y1055370D02*
G03*
X1082040Y1055370I-5080J0D01*
G01*
Y1080770D02*
G03*
X1082040Y1080770I-5080J0D01*
G01*
X1056640Y979170D02*
G03*
X1056640Y979170I-5080J0D01*
G01*
Y1004570D02*
G03*
X1056640Y1004570I-5080J0D01*
G01*
Y1029970D02*
G03*
X1056640Y1029970I-5080J0D01*
G01*
Y1055370D02*
G03*
X1056640Y1055370I-5080J0D01*
G01*
Y1080770D02*
G03*
X1056640Y1080770I-5080J0D01*
G01*
X468630Y988060D02*
G03*
X468630Y988060I-5080J0D01*
G01*
Y962660D02*
G03*
X468630Y962660I-5080J0D01*
G01*
X494030Y988060D02*
G03*
X494030Y988060I-5080J0D01*
G01*
Y962660D02*
G03*
X494030Y962660I-5080J0D01*
G01*
X468630Y937260D02*
G03*
X468630Y937260I-5080J0D01*
G01*
X494030D02*
G03*
X494030Y937260I-5080J0D01*
G01*
X767080Y1047750D02*
G03*
X767080Y1047750I-5080J0D01*
G01*
X792480D02*
G03*
X792480Y1047750I-5080J0D01*
G01*
X817880D02*
G03*
X817880Y1047750I-5080J0D01*
G01*
X547370Y989330D02*
G03*
X547370Y989330I-5080J0D01*
G01*
Y963930D02*
G03*
X547370Y963930I-5080J0D01*
G01*
Y938530D02*
G03*
X547370Y938530I-5080J0D01*
G01*
X492760Y1055370D02*
G03*
X492760Y1055370I-5080J0D01*
G01*
X467360D02*
G03*
X467360Y1055370I-5080J0D01*
G01*
X441960D02*
G03*
X441960Y1055370I-5080J0D01*
G01*
X650240Y1757750D02*
G03*
X650240Y1757750I-5080J0D01*
G01*
Y1682750D02*
G03*
X650240Y1682750I-5080J0D01*
G01*
Y1607750D02*
G03*
X650240Y1607750I-5080J0D01*
G01*
Y1507750D02*
G03*
X650240Y1507750I-5080J0D01*
G01*
X570230Y1761630D02*
G03*
X570230Y1761630I-5080J0D01*
G01*
Y1686630D02*
G03*
X570230Y1686630I-5080J0D01*
G01*
Y1611630D02*
G03*
X570230Y1611630I-5080J0D01*
G01*
Y1511630D02*
G03*
X570230Y1511630I-5080J0D01*
G01*
D90*
X1080008Y979170D02*
G03*
X1080008Y979170I-3048J0D01*
G01*
Y1004570D02*
G03*
X1080008Y1004570I-3048J0D01*
G01*
Y1029970D02*
G03*
X1080008Y1029970I-3048J0D01*
G01*
Y1055370D02*
G03*
X1080008Y1055370I-3048J0D01*
G01*
Y1080770D02*
G03*
X1080008Y1080770I-3048J0D01*
G01*
X1054608Y979170D02*
G03*
X1054608Y979170I-3048J0D01*
G01*
Y1004570D02*
G03*
X1054608Y1004570I-3048J0D01*
G01*
Y1029970D02*
G03*
X1054608Y1029970I-3048J0D01*
G01*
Y1055370D02*
G03*
X1054608Y1055370I-3048J0D01*
G01*
Y1080770D02*
G03*
X1054608Y1080770I-3048J0D01*
G01*
X466598Y988060D02*
G03*
X466598Y988060I-3048J0D01*
G01*
Y962660D02*
G03*
X466598Y962660I-3048J0D01*
G01*
X491998Y988060D02*
G03*
X491998Y988060I-3048J0D01*
G01*
Y962660D02*
G03*
X491998Y962660I-3048J0D01*
G01*
X466598Y937260D02*
G03*
X466598Y937260I-3048J0D01*
G01*
X491998D02*
G03*
X491998Y937260I-3048J0D01*
G01*
X765048Y1047750D02*
G03*
X765048Y1047750I-3048J0D01*
G01*
X790448D02*
G03*
X790448Y1047750I-3048J0D01*
G01*
X815848D02*
G03*
X815848Y1047750I-3048J0D01*
G01*
X545338Y989330D02*
G03*
X545338Y989330I-3048J0D01*
G01*
Y963930D02*
G03*
X545338Y963930I-3048J0D01*
G01*
Y938530D02*
G03*
X545338Y938530I-3048J0D01*
G01*
X490728Y1055370D02*
G03*
X490728Y1055370I-3048J0D01*
G01*
X465328D02*
G03*
X465328Y1055370I-3048J0D01*
G01*
X439928D02*
G03*
X439928Y1055370I-3048J0D01*
G01*
M02*
