G04*
G04 #@! TF.GenerationSoftware,Altium Limited,Altium Designer,23.0.1 (38)*
G04*
G04 Layer_Color=16711935*
%FSLAX44Y44*%
%MOMM*%
G71*
G04*
G04 #@! TF.SameCoordinates,110CD8AD-1924-4517-BBA5-4E1113904411*
G04*
G04*
G04 #@! TF.FilePolarity,Positive*
G04*
G01*
G75*
%ADD12C,0.2000*%
%ADD14C,0.1500*%
%ADD16C,0.1000*%
%ADD85C,0.0000*%
%ADD86C,0.0254*%
D12*
X1098710Y1241960D02*
X1118710D01*
Y1229460D02*
Y1241960D01*
X1098710Y1229460D02*
X1118710D01*
X1098710D02*
Y1241960D01*
X1019852Y1302920D02*
X1039852D01*
Y1290420D02*
Y1302920D01*
X1019852Y1290420D02*
X1039852D01*
X1019852D02*
Y1302920D01*
X1094900Y1306730D02*
X1114900D01*
Y1294230D02*
Y1306730D01*
X1094900Y1294230D02*
X1114900D01*
X1094900D02*
Y1306730D01*
X1078390Y1657250D02*
X1098390D01*
Y1644750D02*
Y1657250D01*
X1078390Y1644750D02*
X1098390D01*
X1078390D02*
Y1657250D01*
X921860Y1361540D02*
Y1374040D01*
X901860D02*
X921860D01*
X901860Y1361540D02*
Y1374040D01*
Y1361540D02*
X921860D01*
X384810Y1506000D02*
Y1796000D01*
X511810D01*
Y1506000D02*
Y1796000D01*
X384810Y1506000D02*
X511810D01*
X701030Y953780D02*
Y1037580D01*
X731530D01*
Y953780D02*
Y1037580D01*
X701030Y953780D02*
X731530D01*
X631232Y933350D02*
X651232D01*
Y920850D02*
Y933350D01*
X631232Y920850D02*
X651232D01*
X631232D02*
Y933350D01*
X501550Y1305720D02*
Y1325720D01*
X489050Y1305720D02*
X501550D01*
X489050D02*
Y1325720D01*
X501550D01*
X882928Y970380D02*
X902928D01*
X882928D02*
Y982880D01*
X902928D01*
Y970380D02*
Y982880D01*
X919640Y1052730D02*
X939640D01*
Y1040230D02*
Y1052730D01*
X919640Y1040230D02*
X939640D01*
X919640D02*
Y1052730D01*
X962025Y1116647D02*
Y1263968D01*
X429895Y1116647D02*
X962025D01*
X429895D02*
Y1263968D01*
X962025D01*
X317470Y951900D02*
Y1003900D01*
X345470D01*
Y951900D02*
Y1003900D01*
X317470Y951900D02*
X345470D01*
X422310Y1437610D02*
X474310D01*
X422310D02*
Y1465610D01*
X474310D01*
Y1437610D02*
Y1465610D01*
X403870Y1369050D02*
X487670D01*
X403870D02*
Y1399550D01*
X487670D01*
Y1369050D02*
Y1399550D01*
D14*
X831560Y1513840D02*
G03*
X831560Y1513840I-34000J0D01*
G01*
D16*
X1069900Y1516550D02*
G03*
X1069900Y1516550I-5000J0D01*
G01*
X954059Y1503029D02*
G03*
X915383Y1503025I-19339J13352D01*
G01*
X955329Y1576689D02*
G03*
X916653Y1576685I-19339J13352D01*
G01*
X952789Y1652888D02*
G03*
X914113Y1652885I-19339J13352D01*
G01*
X362602Y1515399D02*
G03*
X362605Y1476723I-13352J-19339D01*
G01*
X1268981Y1689083D02*
X1270480Y1687300D01*
X1268981Y1689083D02*
Y1690369D01*
X1270480Y1684670D02*
Y1687298D01*
X1195211Y1690369D02*
Y1791969D01*
X1276211Y1690369D02*
Y1791969D01*
X1195211Y1690369D02*
X1276211D01*
X1195211Y1791969D02*
X1276211D01*
X1263343Y1684670D02*
X1270480D01*
X1263342Y1684671D02*
X1263343Y1684670D01*
X1263342Y1684669D02*
Y1687299D01*
X1264842Y1689083D02*
Y1690369D01*
X1263340Y1687300D02*
X1264842Y1689083D01*
X1025320Y1430390D02*
Y1444890D01*
X1047320Y1430390D02*
Y1444890D01*
X1025320D02*
X1047320D01*
X1025320Y1430390D02*
X1047320D01*
X1097710Y1361810D02*
Y1376310D01*
X1119710Y1361810D02*
Y1376310D01*
X1097710D02*
X1119710D01*
X1097710Y1361810D02*
X1119710D01*
X960550Y1360540D02*
Y1375040D01*
X982550Y1360540D02*
Y1375040D01*
X960550D02*
X982550D01*
X960550Y1360540D02*
X982550D01*
X1090090Y1429120D02*
Y1443620D01*
X1112090Y1429120D02*
Y1443620D01*
X1090090D02*
X1112090D01*
X1090090Y1429120D02*
X1112090D01*
X1024050Y1361810D02*
Y1376310D01*
X1046050Y1361810D02*
Y1376310D01*
X1024050D02*
X1046050D01*
X1024050Y1361810D02*
X1046050D01*
X1018360Y1219570D02*
Y1234070D01*
X1040360Y1219570D02*
Y1234070D01*
X1018360D02*
X1040360D01*
X1018360Y1219570D02*
X1040360D01*
X1137740Y1645020D02*
Y1659520D01*
X1159740Y1645020D02*
Y1659520D01*
X1137740D02*
X1159740D01*
X1137740Y1645020D02*
X1159740D01*
X1099590Y1156070D02*
Y1170570D01*
X1121590Y1156070D02*
Y1170570D01*
X1099590D02*
X1121590D01*
X1099590Y1156070D02*
X1121590D01*
X1169490Y1358000D02*
Y1372500D01*
X1191490Y1358000D02*
Y1372500D01*
X1169490D02*
X1191490D01*
X1169490Y1358000D02*
X1191490D01*
X1163090Y1429120D02*
Y1443620D01*
X1185090Y1429120D02*
Y1443620D01*
X1163090D02*
X1185090D01*
X1163090Y1429120D02*
X1185090D01*
X1166900Y1276720D02*
Y1291220D01*
X1188900Y1276720D02*
Y1291220D01*
X1166900D02*
X1188900D01*
X1166900Y1276720D02*
X1188900D01*
X1268981Y1574783D02*
X1270480Y1573000D01*
X1268981Y1574783D02*
Y1576069D01*
X1270480Y1570370D02*
Y1572998D01*
X1195211Y1576069D02*
Y1677669D01*
X1276211Y1576069D02*
Y1677669D01*
X1195211Y1576069D02*
X1276211D01*
X1195211Y1677669D02*
X1276211D01*
X1263343Y1570370D02*
X1270480D01*
X1263342Y1570371D02*
X1263343Y1570370D01*
X1263342Y1570369D02*
Y1572999D01*
X1264842Y1574783D02*
Y1576069D01*
X1263340Y1573000D02*
X1264842Y1574783D01*
X1153900Y1507550D02*
Y1578550D01*
X1055900Y1507550D02*
Y1578550D01*
X1153900D01*
X1055900Y1507550D02*
X1153900D01*
X915384Y1503030D02*
X954056D01*
X916654Y1576690D02*
X955327D01*
X914113Y1652890D02*
X952786D01*
X978940Y1552310D02*
Y1566810D01*
X1000940Y1552310D02*
Y1566810D01*
X978940D02*
X1000940D01*
X978940Y1552310D02*
X1000940D01*
X981480Y1679310D02*
Y1693810D01*
X1003480Y1679310D02*
Y1693810D01*
X981480D02*
X1003480D01*
X981480Y1679310D02*
X1003480D01*
X980870Y1615810D02*
Y1630310D01*
X1002870Y1615810D02*
Y1630310D01*
X980870D02*
X1002870D01*
X980870Y1615810D02*
X1002870D01*
X268760Y1684550D02*
X270259Y1682767D01*
Y1681481D02*
Y1682767D01*
X268760Y1684552D02*
Y1687180D01*
X344029Y1579881D02*
Y1681481D01*
X263029Y1579881D02*
Y1681481D01*
X344029D01*
X263029Y1579881D02*
X344029D01*
X268760Y1687180D02*
X275897D01*
X275898Y1687179D01*
Y1684551D02*
Y1687181D01*
X274398Y1681481D02*
Y1682767D01*
X275900Y1684550D01*
X537990Y1331230D02*
X584690D01*
X537990Y1307830D02*
Y1331230D01*
Y1307830D02*
X584690D01*
X1020760Y928220D02*
X1107760D01*
Y1131720D01*
X1020760Y928220D02*
Y1131720D01*
X1020762Y1131723D02*
X1107758D01*
X450850Y1000760D02*
X501650D01*
Y924560D02*
Y1000760D01*
X450850Y924560D02*
Y1000760D01*
Y924560D02*
X501650D01*
X857680Y1040500D02*
Y1055000D01*
X879680Y1040500D02*
Y1055000D01*
X857680D02*
X879680D01*
X857680Y1040500D02*
X879680D01*
X629080Y978270D02*
Y992770D01*
X651080Y978270D02*
Y992770D01*
X629080D02*
X651080D01*
X629080Y978270D02*
X651080D01*
X558570Y1039230D02*
Y1053730D01*
X580570Y1039230D02*
Y1053730D01*
X558570D02*
X580570D01*
X558570Y1039230D02*
X580570D01*
X631010Y1041770D02*
Y1056270D01*
X653010Y1041770D02*
Y1056270D01*
X631010D02*
X653010D01*
X631010Y1041770D02*
X653010D01*
X869770Y1474840D02*
Y1489340D01*
X891770Y1474840D02*
Y1489340D01*
X869770D02*
X891770D01*
X869770Y1474840D02*
X891770D01*
X869720Y1535800D02*
Y1550300D01*
X891720Y1535800D02*
Y1550300D01*
X869720D02*
X891720D01*
X869720Y1535800D02*
X891720D01*
X834160Y1422770D02*
Y1437270D01*
X856160Y1422770D02*
Y1437270D01*
X834160D02*
X856160D01*
X834160Y1422770D02*
X856160D01*
X833550Y1360540D02*
Y1375040D01*
X855550Y1360540D02*
Y1375040D01*
X833550D02*
X855550D01*
X833550Y1360540D02*
X855550D01*
X268760Y1796310D02*
X270259Y1794527D01*
Y1793241D02*
Y1794527D01*
X268760Y1796312D02*
Y1798940D01*
X344029Y1691641D02*
Y1793241D01*
X263029Y1691641D02*
Y1793241D01*
X344029D01*
X263029Y1691641D02*
X344029D01*
X268760Y1798940D02*
X275897D01*
X275898Y1798939D01*
Y1796311D02*
Y1798941D01*
X274398Y1793241D02*
Y1794527D01*
X275900Y1796310D01*
X362600Y1476723D02*
Y1515397D01*
X696900Y1357890D02*
Y1433890D01*
X800900Y1357890D02*
Y1433890D01*
X696900Y1357890D02*
X800900D01*
X696900Y1433890D02*
X800900D01*
X749300Y1035300D02*
Y1060200D01*
X825500Y1035300D02*
Y1060200D01*
X749300D02*
X825500D01*
X749300Y1035300D02*
X825500D01*
X529840Y1002030D02*
X554740D01*
X529840Y925830D02*
X554740D01*
Y1002030D01*
X529840Y925830D02*
Y1002030D01*
X500380Y1042920D02*
Y1067820D01*
X424180Y1042920D02*
Y1067820D01*
Y1042920D02*
X500380D01*
X424180Y1067820D02*
X500380D01*
X364490Y927100D02*
Y1028700D01*
X389890Y927100D02*
Y1028700D01*
X364490Y927100D02*
X389890D01*
X364490Y1028700D02*
X389890D01*
X543560Y1389380D02*
X670560D01*
X543560Y1414780D02*
X670560D01*
Y1389380D02*
Y1414780D01*
X543560Y1389380D02*
Y1414780D01*
D85*
X882269Y1693418D02*
G03*
X882269Y1693418I-99949J0D01*
G01*
D86*
X775970Y1584579D02*
X788670D01*
X782320Y1578229D02*
Y1590929D01*
M02*
