%TF.GenerationSoftware,Altium Limited,Altium Designer,23.0.1 (38)*%
G04 Layer_Color=16711935*
%FSLAX26Y26*%
%MOIN*%
%TF.SameCoordinates,CFC2B011-0ACB-40EE-8827-5318C0CA6053*%
%TF.FilePolarity,Negative*%
%TF.FileFunction,Soldermask,Bot*%
%TF.Part,Single*%
G01*
G75*
%TA.AperFunction,ComponentPad*%
%ADD25C,0.070000*%
%ADD26R,0.070000X0.070000*%
%ADD35R,0.061024X0.061024*%
%ADD36C,0.061024*%
%ADD39R,0.061024X0.061024*%
%ADD40R,0.078740X0.078740*%
%ADD41C,0.078740*%
%ADD42C,0.047244*%
%ADD43R,0.047244X0.047244*%
%ADD44R,0.047244X0.047244*%
%ADD45R,0.053150X0.053150*%
%ADD46C,0.053150*%
%ADD62C,0.078866*%
%ADD63R,0.078866X0.078866*%
%ADD64C,0.067055*%
%ADD65R,0.067055X0.067055*%
%ADD66R,0.051307X0.051307*%
%ADD67C,0.051307*%
%ADD68R,0.083591X0.083591*%
%ADD69C,0.083591*%
%ADD70C,0.083000*%
%ADD71R,0.049339X0.049339*%
%ADD72C,0.049339*%
%ADD73R,0.051307X0.051307*%
%ADD74C,0.063118*%
%ADD75R,0.063118X0.063118*%
%ADD76R,0.069024X0.069024*%
%ADD77C,0.069024*%
%ADD78R,0.049339X0.049339*%
%ADD79C,0.070992*%
%ADD80R,0.069024X0.069024*%
%ADD81R,0.070992X0.070992*%
%ADD82C,0.100126*%
%ADD83R,0.070992X0.070992*%
%TA.AperFunction,ViaPad*%
%ADD84C,0.058000*%
D25*
X3080000Y6864000D02*
D03*
D26*
Y6470000D02*
D03*
D35*
X1305000Y3675196D02*
D03*
D36*
Y4024804D02*
D03*
X1590196Y5715000D02*
D03*
D39*
X1939804D02*
D03*
D40*
X1912638Y6021654D02*
D03*
D41*
X1617362D02*
D03*
X1912638Y6820866D02*
D03*
Y6620866D02*
D03*
Y7020866D02*
D03*
X1617362D02*
D03*
Y6820866D02*
D03*
Y6620866D02*
D03*
D42*
X3189212Y5960000D02*
D03*
X2820000Y4145826D02*
D03*
X1529174Y5450000D02*
D03*
D43*
X3090788Y5960000D02*
D03*
X1980826Y5450000D02*
D03*
D44*
X2820000Y3694174D02*
D03*
D45*
X3690000Y4990000D02*
D03*
D46*
X3590000D02*
D03*
X3490000D02*
D03*
X3390000D02*
D03*
X3290000D02*
D03*
X3190000D02*
D03*
X3090000D02*
D03*
X2990000D02*
D03*
X2890000D02*
D03*
X2790000D02*
D03*
X2690000D02*
D03*
X2590000D02*
D03*
X2490000D02*
D03*
X2390000D02*
D03*
X2290000D02*
D03*
X2190000D02*
D03*
X2090000D02*
D03*
X1990000D02*
D03*
X1890000D02*
D03*
X1790000D02*
D03*
Y4382500D02*
D03*
X1890000D02*
D03*
X1990000D02*
D03*
X2090000D02*
D03*
X2190000D02*
D03*
X2290000D02*
D03*
X2390000D02*
D03*
X2490000D02*
D03*
X2590000D02*
D03*
X2690000D02*
D03*
X2790000D02*
D03*
X2890000D02*
D03*
X2990000D02*
D03*
X3090000D02*
D03*
X3190000D02*
D03*
X3290000D02*
D03*
X3390000D02*
D03*
X3490000D02*
D03*
X3590000D02*
D03*
X3690000D02*
D03*
D62*
X4865000Y6955000D02*
D03*
Y6505000D02*
D03*
X1195000Y6320000D02*
D03*
Y6760000D02*
D03*
D63*
X4865000Y6755000D02*
D03*
Y6305000D02*
D03*
X1195000Y6520000D02*
D03*
Y6960000D02*
D03*
D64*
X4500000Y6225000D02*
D03*
X4400000D02*
D03*
X4300000D02*
D03*
X4200000D02*
D03*
X4500000Y5925000D02*
D03*
X4400000D02*
D03*
X4300000D02*
D03*
D65*
X4200000D02*
D03*
D66*
X3656260Y5735000D02*
D03*
X3050000Y3875000D02*
D03*
D67*
X3735000Y5735000D02*
D03*
X3128740Y3875000D02*
D03*
X2830000Y6003740D02*
D03*
D68*
X3960000Y6925000D02*
D03*
D69*
X3860000D02*
D03*
X3760000D02*
D03*
D70*
X4540000Y6890000D02*
D03*
Y6790000D02*
D03*
X4240000D02*
D03*
Y6890000D02*
D03*
D71*
X3630000Y5970000D02*
D03*
X3635000Y6260000D02*
D03*
X3625000Y6560000D02*
D03*
D72*
X3680000Y5970000D02*
D03*
X3730000D02*
D03*
X3685000Y6260000D02*
D03*
X3735000D02*
D03*
X3675000Y6560000D02*
D03*
X3725000D02*
D03*
X1375000Y5890000D02*
D03*
Y5940000D02*
D03*
D73*
X2830000Y5925000D02*
D03*
D74*
X2260000Y5195000D02*
D03*
D75*
X2160000D02*
D03*
D76*
X4240000Y3855000D02*
D03*
X1925000Y3690000D02*
D03*
X2135000Y3695000D02*
D03*
D77*
X4240000Y3955000D02*
D03*
Y4055000D02*
D03*
Y4155000D02*
D03*
Y4255000D02*
D03*
X4140000Y3855000D02*
D03*
Y3955000D02*
D03*
Y4055000D02*
D03*
Y4155000D02*
D03*
Y4255000D02*
D03*
X1825000Y3890000D02*
D03*
Y3790000D02*
D03*
X1925000Y3890000D02*
D03*
Y3790000D02*
D03*
X1825000Y3690000D02*
D03*
X3000000Y4125000D02*
D03*
X3100000D02*
D03*
X2135000Y3895000D02*
D03*
Y3795000D02*
D03*
X1920000Y4155000D02*
D03*
X1820000D02*
D03*
D78*
X1375000Y5840000D02*
D03*
D79*
X3050788Y5535000D02*
D03*
X2850000D02*
D03*
X2948426D02*
D03*
X1485000Y4000000D02*
D03*
Y3900000D02*
D03*
Y3800000D02*
D03*
X2390000Y5520000D02*
D03*
X2490000D02*
D03*
X2290000D02*
D03*
X2190000D02*
D03*
D80*
X3200000Y4125000D02*
D03*
X1720000Y4155000D02*
D03*
D81*
X1485000Y3700000D02*
D03*
D82*
X2540000Y6920276D02*
D03*
Y6625000D02*
D03*
Y6329724D02*
D03*
Y5936024D02*
D03*
X2225000Y6935552D02*
D03*
Y6640276D02*
D03*
Y6345000D02*
D03*
Y5951300D02*
D03*
D83*
X2590000Y5520000D02*
D03*
D84*
X3500000Y6143000D02*
D03*
X4234448Y4985552D02*
D03*
X4170000Y5790000D02*
D03*
X4450000Y5055000D02*
D03*
X2279804Y4313000D02*
D03*
X3409000Y5488000D02*
D03*
X2557402Y3753000D02*
D03*
X2205000Y3992000D02*
D03*
X3713000Y4812000D02*
D03*
X3784000Y6037000D02*
D03*
X3812000Y4938000D02*
D03*
X3376000Y4249000D02*
D03*
X4249536Y6402000D02*
D03*
%TF.MD5,38c4684d68a18eaff45d7452f5723541*%
M02*
