%TF.GenerationSoftware,Altium Limited,Altium Designer,23.0.1 (38)*%
G04 Layer_Physical_Order=1*
G04 Layer_Color=255*
%FSLAX26Y26*%
%MOIN*%
%TF.SameCoordinates,CFC2B011-0ACB-40EE-8827-5318C0CA6053*%
%TF.FilePolarity,Positive*%
%TF.FileFunction,Copper,L1,Top,Signal*%
%TF.Part,Single*%
G01*
G75*
%TA.AperFunction,SMDPad,CuDef*%
%ADD10R,0.055118X0.061024*%
%ADD11R,0.059238X0.061268*%
%ADD12R,0.061268X0.059238*%
%TA.AperFunction,Conductor*%
%ADD13C,0.100000*%
%ADD14C,0.010000*%
%ADD15C,0.085000*%
%ADD16C,0.025000*%
%ADD17C,0.030000*%
%ADD18C,0.050000*%
%TA.AperFunction,ComponentPad*%
%ADD19C,0.070866*%
%ADD20R,0.070866X0.070866*%
%ADD21C,0.059055*%
%ADD22R,0.059055X0.059055*%
%ADD23R,0.043307X0.043307*%
%ADD24C,0.043307*%
%ADD25C,0.070000*%
%ADD26R,0.070000X0.070000*%
%ADD27R,0.075591X0.075591*%
%ADD28C,0.075591*%
%ADD29C,0.075000*%
%ADD30R,0.041339X0.041339*%
%ADD31C,0.041339*%
%ADD32R,0.043307X0.043307*%
%ADD33C,0.055118*%
%ADD34R,0.055118X0.055118*%
%ADD35R,0.061024X0.061024*%
%ADD36C,0.061024*%
%ADD37R,0.041339X0.041339*%
%ADD38C,0.062992*%
%ADD39R,0.061024X0.061024*%
%ADD40R,0.078740X0.078740*%
%ADD41C,0.078740*%
%ADD42C,0.047244*%
%ADD43R,0.047244X0.047244*%
%ADD44R,0.047244X0.047244*%
%ADD45R,0.053150X0.053150*%
%ADD46C,0.053150*%
%ADD47R,0.062992X0.062992*%
%ADD48C,0.092126*%
%ADD49R,0.062992X0.062992*%
%TA.AperFunction,ViaPad*%
%ADD50C,0.050000*%
D10*
X4042598Y5660000D02*
D03*
X4117402D02*
D03*
X4327598Y5390000D02*
D03*
X4402402D02*
D03*
X3787598Y5385000D02*
D03*
X3862402D02*
D03*
X4297598Y5655000D02*
D03*
X4372402D02*
D03*
X4037598Y5390000D02*
D03*
X4112402D02*
D03*
X4015196Y4830000D02*
D03*
X4090000D02*
D03*
X4485196Y6505000D02*
D03*
X4560000D02*
D03*
X4335000Y4580000D02*
D03*
X4409804D02*
D03*
X4610196Y5375000D02*
D03*
X4685000D02*
D03*
X4585000Y5655000D02*
D03*
X4659804D02*
D03*
X4600000Y5055000D02*
D03*
X4674804D02*
D03*
X3860000Y6140000D02*
D03*
X3934804D02*
D03*
X3870000Y6640000D02*
D03*
X3944804D02*
D03*
X3867598Y6390000D02*
D03*
X3942402D02*
D03*
X3382598Y4125000D02*
D03*
X3457402D02*
D03*
X2482598Y3880000D02*
D03*
X2557402D02*
D03*
X2205000Y4120000D02*
D03*
X2279804D02*
D03*
X2490196Y4130000D02*
D03*
X2565000D02*
D03*
X3430196Y5835000D02*
D03*
X3505000D02*
D03*
X3430000Y6075000D02*
D03*
X3504804D02*
D03*
X3290000Y5630000D02*
D03*
X3364804D02*
D03*
X3287598Y5385000D02*
D03*
X3362402D02*
D03*
D11*
X4329536Y4865000D02*
D03*
X4400464D02*
D03*
X4019072Y5105000D02*
D03*
X4090000D02*
D03*
X4314536Y5120000D02*
D03*
X4385464D02*
D03*
X4249536Y6500000D02*
D03*
X4320464D02*
D03*
X3554536Y5385000D02*
D03*
X3625464D02*
D03*
X2489072Y3650000D02*
D03*
X2560000D02*
D03*
X3550928Y3845000D02*
D03*
X3480000D02*
D03*
X3624536Y4120000D02*
D03*
X3695464D02*
D03*
D12*
X1950000Y5215464D02*
D03*
Y5144536D02*
D03*
D13*
X4339155Y6371411D02*
Y6500000D01*
X4370077D02*
Y6659923D01*
X4240000Y6790000D02*
X4370077Y6659923D01*
X3947559Y6140000D02*
X4045000D01*
X4222000Y6317000D01*
X4284744D02*
X4339155Y6371411D01*
X4222000Y6317000D02*
X4284744D01*
X2118937Y6546063D02*
Y6614567D01*
Y6546063D02*
X2225000Y6440000D01*
Y5951300D02*
Y6189437D01*
Y6345000D02*
Y6440000D01*
Y6189437D02*
X2554500Y6518937D01*
X2734937D02*
X3080000Y6864000D01*
X1912638Y6820866D02*
X2118937Y6614567D01*
X2554500Y6518937D02*
X2734937D01*
X1912638Y6620866D02*
Y6665303D01*
X1802638Y6775303D02*
X1912638Y6665303D01*
X1710000Y6905000D02*
X1802638Y6812362D01*
Y6775303D02*
Y6812362D01*
X1576202Y6720236D02*
X1657263D01*
X1195000Y6339034D02*
X1576202Y6720236D01*
X1195000Y6330000D02*
Y6339034D01*
X1710000Y6868758D02*
X1716732Y6862026D01*
X1657263Y6720236D02*
X1716732Y6779706D01*
Y6862026D01*
X1710000Y6868758D02*
Y6928228D01*
X1617362Y7020866D02*
X1710000Y6928228D01*
X3080000Y6225788D02*
Y6470000D01*
Y6225788D02*
X3090788Y5960000D01*
X1617362Y5742166D02*
Y6021654D01*
X1912638Y5881166D02*
Y6021654D01*
Y5881166D02*
X1939804Y5854000D01*
Y5715000D02*
Y5854000D01*
D14*
X4370077Y6500000D02*
X4401000D01*
X4339155D02*
X4370077D01*
X3547559Y5798275D02*
Y6111529D01*
X3540000Y6119088D02*
X3547559Y6111529D01*
X3409000Y5488000D02*
Y5659716D01*
X3500000Y6079804D02*
Y6143000D01*
X3554536Y5385000D02*
Y5438110D01*
X3605000Y5488574D02*
Y5683740D01*
X3459000Y5385000D02*
X3570000Y5496000D01*
X3500000Y6079804D02*
X3504804Y6075000D01*
X3540000Y6119088D02*
Y6173000D01*
X3520000Y6193000D02*
X3540000Y6173000D01*
X3554536Y5438110D02*
X3605000Y5488574D01*
X3409000Y5659716D02*
X3547559Y5798275D01*
X3944804Y6640000D02*
X3960000Y6655196D01*
X4090000Y4830000D02*
X4112559Y4852559D01*
X4234448Y4985552D02*
X4242101Y4977899D01*
Y4953450D02*
X4329536Y4866015D01*
X4112559Y4852559D02*
Y4920232D01*
X4217879Y5025552D02*
X4331016D01*
X4329536Y4727464D02*
Y4866015D01*
X4112559Y4920232D02*
X4217879Y5025552D01*
X4331016D02*
X4385464Y5080000D01*
X4242101Y4953450D02*
Y4977899D01*
X4229000Y5854472D02*
X4244528Y5870000D01*
X4210000Y5648637D02*
Y5806569D01*
X4249000Y5631069D02*
X4250000Y5632069D01*
X4249000Y5824137D02*
X4250000Y5823137D01*
X4200000Y5638637D02*
X4210000Y5648637D01*
X4230000Y5640353D02*
Y5814853D01*
X4249000Y5824137D02*
Y5844944D01*
X4229000Y5639353D02*
X4230000Y5640353D01*
X4249000Y5440000D02*
Y5631069D01*
X4200000Y5816569D02*
X4210000Y5806569D01*
X4229000Y5815853D02*
X4230000Y5814853D01*
X4117402Y5737402D02*
X4170000Y5790000D01*
X4200000Y5430000D02*
Y5638637D01*
X4229000Y5364000D02*
Y5639353D01*
X4117402Y5660000D02*
Y5737402D01*
X4200000Y5816569D02*
Y5925000D01*
X4250000Y5632069D02*
Y5823137D01*
X4019072Y5154072D02*
X4229000Y5364000D01*
Y5815853D02*
Y5854472D01*
X4160000Y5390000D02*
X4200000Y5430000D01*
X3393598Y4171000D02*
X3510000D01*
X4385464Y5170536D02*
Y5246000D01*
Y5000000D02*
Y5080000D01*
X3225000Y4990000D02*
X3332000Y5097000D01*
X3787598Y5235402D02*
Y5385000D01*
Y4962402D02*
Y5235402D01*
X4674804Y5146804D02*
Y5200000D01*
Y5055000D02*
Y5146804D01*
X2148000Y4933000D02*
Y5195000D01*
X4659804Y5620000D02*
Y5655000D01*
Y5540196D02*
Y5620000D01*
X4354000Y6161000D02*
X4659804Y5855196D01*
X4353000Y6162000D02*
X4354000Y6161000D01*
X3860000Y6080000D02*
Y6140000D01*
Y5796000D02*
Y6080000D01*
X1950000Y5215464D02*
X2000000D01*
X2090000Y5125464D01*
Y4990000D02*
Y5125464D01*
X1950000Y5215464D02*
Y5297000D01*
X2020000Y5367000D01*
Y5634804D01*
X1939804Y5715000D02*
X2020000Y5634804D01*
X2320000Y3880000D02*
X2482598D01*
X2135000Y3695000D02*
X2320000Y3880000D01*
X1950000Y5030000D02*
Y5144536D01*
Y5030000D02*
X1990000Y4990000D01*
X3730000Y5808740D02*
Y5970000D01*
X3656260Y5735000D02*
X3730000Y5808740D01*
X3315000Y3845000D02*
X3480000D01*
X3091000Y3834000D02*
X3315000Y3845000D01*
X3050000Y3875000D02*
X3091000Y3834000D01*
X3050000Y3875000D02*
X3200000Y4025000D01*
Y4125000D01*
X4385464Y5000000D02*
X4400464Y4985000D01*
Y4865000D02*
Y4985000D01*
X3332000Y5097000D02*
X3554536Y5319536D01*
X3332000Y4841000D02*
Y5097000D01*
X3148000Y4657000D02*
X3332000Y4841000D01*
X3148000Y4177000D02*
Y4657000D01*
Y4177000D02*
X3200000Y4125000D01*
X4090000Y4305000D02*
Y4830000D01*
Y4305000D02*
X4140000Y4255000D01*
X4329536Y4727464D02*
X4335000Y4580000D01*
X1925000Y3790000D02*
X2137000Y4002000D01*
Y4400000D01*
X2202000Y4465000D01*
X2567000D01*
X2632000Y4400000D01*
Y3636000D02*
Y4400000D01*
X2600000Y3604000D02*
X2632000Y3636000D01*
X2500000Y3604000D02*
X2600000D01*
X2489072Y3650000D02*
X2500000Y3604000D01*
X1590196Y5715000D02*
X1617362Y5742166D01*
X2690000Y4990000D02*
X3085000Y5385000D01*
X3287598D01*
X3290000Y5510402D02*
Y5630000D01*
X3287598Y5385000D02*
X3290000Y5510402D01*
X4450000Y5055000D02*
X4600000D01*
X2279804Y4120000D02*
Y4313000D01*
X2135000Y3795000D02*
X2335000Y3995000D01*
Y4400000D01*
X2360000Y4425000D01*
X2407000D01*
X2432000Y4400000D01*
Y4354000D02*
Y4400000D01*
Y4354000D02*
X2490196Y4295804D01*
Y4130000D02*
Y4295804D01*
X2790000Y4175826D02*
Y4382500D01*
Y4175826D02*
X2820000Y4145826D01*
X2290000Y4990000D02*
Y5084000D01*
X2307000Y5101000D01*
Y5340000D01*
X2290000Y5357000D02*
X2307000Y5340000D01*
X2290000Y5357000D02*
Y5520000D01*
X2190000Y4990000D02*
Y5084000D01*
X2207000Y5101000D01*
Y5340000D01*
X2190000Y5357000D02*
X2207000Y5340000D01*
X2190000Y5357000D02*
Y5520000D01*
X3430000Y6075000D02*
Y6143000D01*
X3480000Y6193000D01*
X3520000D01*
X1720000Y4155000D02*
Y4920000D01*
X1790000Y4990000D01*
Y4185000D02*
Y4382500D01*
Y4185000D02*
X1820000Y4155000D01*
X1890000Y4185000D02*
Y4382500D01*
Y4185000D02*
X1920000Y4155000D01*
X2390000Y3979000D02*
Y4382500D01*
X2160000Y3749000D02*
X2390000Y3979000D01*
X2019512Y3749000D02*
X2160000D01*
X1960512Y3690000D02*
X2019512Y3749000D01*
X1925000Y3690000D02*
X1960512D01*
X3457402Y4090000D02*
Y4125000D01*
X3445804Y4078402D02*
X3457402Y4090000D01*
X3344196Y4078402D02*
X3445804D01*
X3190000Y4232598D02*
X3344196Y4078402D01*
X3190000Y4232598D02*
Y4382500D01*
X2557402Y3753000D02*
Y3880000D01*
X4682000Y6322000D02*
X4865000Y6505000D01*
X4396000Y6322000D02*
X4682000D01*
X4354000Y6280000D02*
X4396000Y6322000D01*
X4354000Y6161000D02*
Y6280000D01*
X4659804Y5655000D02*
Y5855196D01*
Y5540196D02*
X4685000Y5515000D01*
Y5375000D02*
Y5515000D01*
X3504804Y5955196D02*
Y6075000D01*
Y5955196D02*
X3505000Y5835000D01*
X2205000Y3992000D02*
Y4120000D01*
X3713000Y4812000D02*
X3731576Y4830576D01*
Y5032000D01*
X3718000Y5045576D02*
X3731576Y5032000D01*
X3718000Y5045576D02*
Y5654000D01*
X3860000Y5796000D01*
X3817000Y6037000D02*
X3860000Y6080000D01*
X3784000Y6037000D02*
X3817000D01*
X3814538Y4830000D02*
X4015196D01*
X3751576Y4892962D02*
X3814538Y4830000D01*
X3751576Y4892962D02*
Y5045038D01*
X3745038Y5051576D02*
X3751576Y5045038D01*
X3745038Y5051576D02*
Y5586038D01*
X4321000Y6162000D01*
X4353000D01*
X3787598Y4962402D02*
X3812000Y4938000D01*
X2605826Y3480000D02*
X2820000Y3694174D01*
X2525826Y3480000D02*
X2605826D01*
X2444000Y3561826D02*
X2525826Y3480000D01*
X2444000Y3561826D02*
Y3740402D01*
X2482598Y3779000D01*
Y3880000D01*
X3376000Y4249000D02*
X3436000Y4309000D01*
Y4836000D01*
X3590000Y4990000D01*
X2427500Y4445000D02*
X2490000Y4382500D01*
X2277000Y4445000D02*
X2427500D01*
X2232000Y4400000D02*
X2277000Y4445000D01*
X2232000Y4261000D02*
Y4400000D01*
X2159000Y4188000D02*
X2232000Y4261000D01*
X2159000Y3940512D02*
Y4188000D01*
Y3940512D02*
X2180512Y3919000D01*
Y3870000D02*
Y3919000D01*
X2160000Y3849488D02*
X2180512Y3870000D01*
X2065488Y3849488D02*
X2160000D01*
X1960000Y3744000D02*
X2065488Y3849488D01*
X1871000Y3744000D02*
X1960000D01*
X1825000Y3790000D02*
X1871000Y3744000D01*
X2260000Y5156000D02*
Y5195000D01*
X2248000Y5144000D02*
X2260000Y5156000D01*
X2248000Y4960000D02*
Y5144000D01*
Y4960000D02*
X2260000Y4948000D01*
X2948000D01*
X2990000Y4990000D01*
X2148000Y5195000D02*
X2160000D01*
X2148000Y4933000D02*
X2200000Y4881000D01*
X2981000D01*
X3090000Y4990000D01*
X2590000Y4351000D02*
Y4382500D01*
Y4351000D02*
X2608000Y4333000D01*
Y3660000D02*
Y4333000D01*
X2598000Y3650000D02*
X2608000Y3660000D01*
X2560000Y3650000D02*
X2598000D01*
X4249536Y6402000D02*
Y6500000D01*
X4610196Y5340000D02*
Y5375000D01*
Y5340000D02*
X4621196Y5329000D01*
X4728000D01*
Y5997000D01*
X4500000Y6225000D02*
X4728000Y5997000D01*
X4400000Y6225000D02*
X4464000Y6289000D01*
X4699000D01*
X4748000Y6240000D01*
Y5273196D02*
Y6240000D01*
X4674804Y5200000D02*
X4748000Y5273196D01*
X2790000Y4382500D02*
X3290000Y4882500D01*
Y4990000D01*
X3605000Y5683740D02*
X3656260Y5735000D01*
X3382598Y4125000D02*
Y4160000D01*
X4019072Y5105000D02*
Y5154072D01*
X4244528Y5870000D02*
Y5940000D01*
X4274528Y5970000D01*
X4355000D01*
X4400000Y5925000D01*
X4090000Y5105000D02*
Y5166000D01*
X4120000Y5196000D01*
X4360000D01*
X4385464Y5170536D01*
Y5120000D02*
Y5170536D01*
Y5080000D02*
Y5120000D01*
X3787598Y5235402D02*
X3964000Y5059000D01*
X4135000D01*
X4196000Y5120000D01*
X4314536D01*
X4112402Y5390000D02*
X4160000D01*
X4485196Y6505000D02*
Y6541196D01*
X4500000Y6556000D01*
X4900000D01*
X4916000Y6540000D01*
Y5388000D02*
Y6540000D01*
X4674804Y5146804D02*
X4916000Y5388000D01*
X4264528Y5889528D02*
X4300000Y5925000D01*
X4264528Y5860472D02*
Y5889528D01*
X4249000Y5844944D02*
X4264528Y5860472D01*
X4249000Y5440000D02*
X4299000Y5390000D01*
X4327598D01*
X3090788Y5960000D02*
X3145788Y6015000D01*
X3375196D01*
X3430196Y5960000D01*
Y5835000D02*
Y5960000D01*
X4639804Y5600000D02*
X4659804Y5620000D01*
X4470000Y5600000D02*
X4639804D01*
X4415000Y5655000D02*
X4470000Y5600000D01*
X4372402Y5655000D02*
X4415000D01*
X3362402Y5385000D02*
X3459000D01*
X3190000Y4990000D02*
X3225000D01*
X3554536Y5319536D02*
Y5385000D01*
X1529174Y5450000D02*
X1834638Y5144536D01*
X1950000D01*
X3930000Y6344000D02*
X3942402Y6356402D01*
X4600000Y4620000D02*
Y5055000D01*
X4560000Y4580000D02*
X4600000Y4620000D01*
X4409804Y4580000D02*
X4560000D01*
X4297598Y5655000D02*
Y5822598D01*
X4400000Y5925000D01*
X2482598Y3880000D02*
Y3906598D01*
X2565000Y3989000D01*
Y4130000D01*
X4500000Y5675000D02*
Y5925000D01*
Y5675000D02*
X4520000Y5655000D01*
X4585000D01*
X1339000Y5640174D02*
X1529174Y5450000D01*
X1339000Y5640174D02*
Y5930000D01*
X1349000Y5940000D01*
X1375000D01*
X3695464Y4120000D02*
X4005000D01*
X4140000Y4255000D01*
X4560000Y6469000D02*
Y6505000D01*
X4550000Y6459000D02*
X4560000Y6469000D01*
X4442000Y6459000D02*
X4550000D01*
X4401000Y6500000D02*
X4442000Y6459000D01*
X3382598Y4160000D02*
X3393598Y4171000D01*
X3613536D02*
X3624536Y4160000D01*
Y4120000D02*
Y4160000D01*
X4112402Y5356402D02*
Y5390000D01*
X4100000Y5344000D02*
X4112402Y5356402D01*
X3995000Y5344000D02*
X4100000D01*
X3954000Y5385000D02*
X3995000Y5344000D01*
X3862402Y5385000D02*
X3954000D01*
X3430196Y5764392D02*
Y5835000D01*
X3364804Y5699000D02*
X3430196Y5764392D01*
X3364804Y5630000D02*
Y5699000D01*
X4402402Y5262938D02*
Y5390000D01*
X4385464Y5246000D02*
X4402402Y5262938D01*
X2590000Y4990000D02*
Y5520000D01*
X2490000Y4990000D02*
Y5520000D01*
X2390000Y4990000D02*
Y5520000D01*
X2990000Y4258000D02*
Y4382500D01*
Y4258000D02*
X3000000Y4248000D01*
Y4125000D02*
Y4248000D01*
X3090000Y4258000D02*
Y4382500D01*
Y4258000D02*
X3100000Y4248000D01*
Y4125000D02*
Y4248000D01*
X4042598Y5527000D02*
Y5660000D01*
X4037598Y5522000D02*
X4042598Y5527000D01*
X4037598Y5390000D02*
Y5522000D01*
D15*
X3090788Y5830138D02*
Y5960000D01*
X2991422Y5865123D02*
Y5914409D01*
X2830000Y6003740D02*
X2940016D01*
X2855000Y5728700D02*
X2991422Y5865123D01*
X2989996Y5915835D02*
X2991422Y5914409D01*
X2940016Y6003740D02*
X2988392Y5955364D01*
X2989996Y5915835D01*
X2855000Y5540000D02*
Y5728700D01*
X2850000Y5535000D02*
X2855000Y5540000D01*
X2950000Y5536574D02*
Y5689350D01*
X3090788Y5830138D01*
D16*
X3550928Y3845000D02*
Y4130072D01*
Y3843985D02*
Y3845000D01*
X3568047Y3826866D02*
X3569062D01*
X4180000Y3795000D02*
X4240000Y3855000D01*
X3600928Y3795000D02*
X4180000D01*
X3569062Y3826866D02*
X3600928Y3795000D01*
X3550928Y3843985D02*
X3568047Y3826866D01*
X3635000Y5635000D02*
X3735000Y5735000D01*
X3625464Y5385000D02*
X3635000Y5394536D01*
Y5635000D01*
X3960000Y6655196D02*
Y6925000D01*
X3624536Y4160000D02*
Y4236000D01*
X3510000Y4171000D02*
X3613536D01*
X3510000D02*
X3550928Y4130072D01*
X3725000Y6560000D02*
X3805000Y6640000D01*
X3870000D01*
X3624536Y4236000D02*
X3640000Y4251464D01*
Y5035000D01*
X3625464Y5049536D02*
X3640000Y5035000D01*
X3625464Y5049536D02*
Y5385000D01*
D17*
X1375000Y5840000D02*
X1465196D01*
X1590196Y5715000D01*
X3867598Y6448598D02*
X4036000Y6617000D01*
X3829000Y6994000D02*
X4018426D01*
X4036000Y6976426D01*
Y6617000D02*
Y6976426D01*
X3675000Y6483000D02*
X3838000Y6320000D01*
X3906000D02*
X3930000Y6344000D01*
X3838000Y6320000D02*
X3906000D01*
X3570000Y5496000D02*
Y5778289D01*
Y6131515D02*
Y6505000D01*
X3625000Y6560000D01*
X3577559Y5785849D02*
Y6123955D01*
X3570000Y5778289D02*
X3577559Y5785849D01*
X3570000Y6131515D02*
X3577559Y6123955D01*
X3675000Y6483000D02*
Y6560000D01*
Y6430000D02*
Y6483000D01*
X3846000Y6260000D02*
X3934804Y6171196D01*
X3735000Y6260000D02*
X3846000D01*
X3760000Y6925000D02*
X3829000Y6994000D01*
X3867598Y6390000D02*
Y6448598D01*
X3942402Y6356402D02*
Y6390000D01*
X3625000Y6560000D02*
Y6790000D01*
X3760000Y6925000D01*
X3735000Y6117000D02*
Y6260000D01*
X3730000Y6112000D02*
X3735000Y6117000D01*
X3730000Y5970000D02*
Y6112000D01*
X3635000Y6390000D02*
X3675000Y6430000D01*
X3635000Y6260000D02*
Y6390000D01*
Y6137000D02*
Y6260000D01*
Y6137000D02*
X3680000Y6092000D01*
Y5970000D02*
Y6092000D01*
D18*
X2948426Y5535000D02*
X2950000Y5536574D01*
D19*
X4865000Y6955000D02*
D03*
Y6505000D02*
D03*
X1195000Y6320000D02*
D03*
Y6760000D02*
D03*
D20*
X4865000Y6755000D02*
D03*
Y6305000D02*
D03*
X1195000Y6520000D02*
D03*
Y6960000D02*
D03*
D21*
X4500000Y6225000D02*
D03*
X4400000D02*
D03*
X4300000D02*
D03*
X4200000D02*
D03*
X4500000Y5925000D02*
D03*
X4400000D02*
D03*
X4300000D02*
D03*
D22*
X4200000D02*
D03*
D23*
X3656260Y5735000D02*
D03*
X3050000Y3875000D02*
D03*
D24*
X3735000Y5735000D02*
D03*
X3128740Y3875000D02*
D03*
X2830000Y6003740D02*
D03*
D25*
X3080000Y6864000D02*
D03*
D26*
Y6470000D02*
D03*
D27*
X3960000Y6925000D02*
D03*
D28*
X3860000D02*
D03*
X3760000D02*
D03*
D29*
X4540000Y6890000D02*
D03*
Y6790000D02*
D03*
X4240000D02*
D03*
Y6890000D02*
D03*
D30*
X3630000Y5970000D02*
D03*
X3635000Y6260000D02*
D03*
X3625000Y6560000D02*
D03*
D31*
X3680000Y5970000D02*
D03*
X3730000D02*
D03*
X3685000Y6260000D02*
D03*
X3735000D02*
D03*
X3675000Y6560000D02*
D03*
X3725000D02*
D03*
X1375000Y5890000D02*
D03*
Y5940000D02*
D03*
D32*
X2830000Y5925000D02*
D03*
D33*
X2260000Y5195000D02*
D03*
D34*
X2160000D02*
D03*
D35*
X4240000Y3855000D02*
D03*
X1925000Y3690000D02*
D03*
X2135000Y3695000D02*
D03*
X1305000Y3675196D02*
D03*
D36*
X4240000Y3955000D02*
D03*
Y4055000D02*
D03*
Y4155000D02*
D03*
Y4255000D02*
D03*
X4140000Y3855000D02*
D03*
Y3955000D02*
D03*
Y4055000D02*
D03*
Y4155000D02*
D03*
Y4255000D02*
D03*
X1825000Y3890000D02*
D03*
Y3790000D02*
D03*
X1925000Y3890000D02*
D03*
Y3790000D02*
D03*
X1825000Y3690000D02*
D03*
X3000000Y4125000D02*
D03*
X3100000D02*
D03*
X2135000Y3895000D02*
D03*
Y3795000D02*
D03*
X1920000Y4155000D02*
D03*
X1820000D02*
D03*
X1305000Y4024804D02*
D03*
X1590196Y5715000D02*
D03*
D37*
X1375000Y5840000D02*
D03*
D38*
X3050788Y5535000D02*
D03*
X2850000D02*
D03*
X2948426D02*
D03*
X1485000Y4000000D02*
D03*
Y3900000D02*
D03*
Y3800000D02*
D03*
X2390000Y5520000D02*
D03*
X2490000D02*
D03*
X2290000D02*
D03*
X2190000D02*
D03*
D39*
X3200000Y4125000D02*
D03*
X1720000Y4155000D02*
D03*
X1939804Y5715000D02*
D03*
D40*
X1912638Y6021654D02*
D03*
D41*
X1617362D02*
D03*
X1912638Y6820866D02*
D03*
Y6620866D02*
D03*
Y7020866D02*
D03*
X1617362D02*
D03*
Y6820866D02*
D03*
Y6620866D02*
D03*
D42*
X3189212Y5960000D02*
D03*
X2820000Y4145826D02*
D03*
X1529174Y5450000D02*
D03*
D43*
X3090788Y5960000D02*
D03*
X1980826Y5450000D02*
D03*
D44*
X2820000Y3694174D02*
D03*
D45*
X3690000Y4990000D02*
D03*
D46*
X3590000D02*
D03*
X3490000D02*
D03*
X3390000D02*
D03*
X3290000D02*
D03*
X3190000D02*
D03*
X3090000D02*
D03*
X2990000D02*
D03*
X2890000D02*
D03*
X2790000D02*
D03*
X2690000D02*
D03*
X2590000D02*
D03*
X2490000D02*
D03*
X2390000D02*
D03*
X2290000D02*
D03*
X2190000D02*
D03*
X2090000D02*
D03*
X1990000D02*
D03*
X1890000D02*
D03*
X1790000D02*
D03*
Y4382500D02*
D03*
X1890000D02*
D03*
X1990000D02*
D03*
X2090000D02*
D03*
X2190000D02*
D03*
X2290000D02*
D03*
X2390000D02*
D03*
X2490000D02*
D03*
X2590000D02*
D03*
X2690000D02*
D03*
X2790000D02*
D03*
X2890000D02*
D03*
X2990000D02*
D03*
X3090000D02*
D03*
X3190000D02*
D03*
X3290000D02*
D03*
X3390000D02*
D03*
X3490000D02*
D03*
X3590000D02*
D03*
X3690000D02*
D03*
D47*
X1485000Y3700000D02*
D03*
D48*
X2540000Y6920276D02*
D03*
Y6625000D02*
D03*
Y6329724D02*
D03*
Y5936024D02*
D03*
X2225000Y6935552D02*
D03*
Y6640276D02*
D03*
Y6345000D02*
D03*
Y5951300D02*
D03*
D49*
X2590000Y5520000D02*
D03*
D50*
X3500000Y6143000D02*
D03*
X4234448Y4985552D02*
D03*
X4170000Y5790000D02*
D03*
X4450000Y5055000D02*
D03*
X2279804Y4313000D02*
D03*
X3409000Y5488000D02*
D03*
X2557402Y3753000D02*
D03*
X2205000Y3992000D02*
D03*
X3713000Y4812000D02*
D03*
X3784000Y6037000D02*
D03*
X3812000Y4938000D02*
D03*
X3376000Y4249000D02*
D03*
X4249536Y6402000D02*
D03*
%TF.MD5,af27c2f9cd07e5c58f55e6d88e3137c7*%
M02*
