%TF.GenerationSoftware,Altium Limited,Altium Designer,23.0.1 (38)*%
G04 Layer_Color=0*
%FSLAX26Y26*%
%MOIN*%
%TF.SameCoordinates,CFC2B011-0ACB-40EE-8827-5318C0CA6053*%
%TF.FilePolarity,Positive*%
%TF.FileFunction,Plated,1,2,PTH,Drill*%
%TF.Part,Single*%
G01*
G75*
%TA.AperFunction,ComponentDrill*%
%ADD86C,0.051181*%
%ADD87C,0.035433*%
%ADD88C,0.027559*%
%ADD89C,0.050000*%
%ADD90C,0.050394*%
%ADD91C,0.031496*%
%ADD92C,0.027559*%
%ADD93C,0.035039*%
%ADD94C,0.040157*%
%ADD95C,0.031496*%
%ADD96C,0.043307*%
%ADD97C,0.040157*%
%ADD98C,0.033465*%
%ADD99C,0.039370*%
%ADD100C,0.039370*%
%ADD101C,0.043307*%
%ADD102C,0.061417*%
%TA.AperFunction,ViaDrill,NotFilled*%
%ADD103C,0.028000*%
D86*
X4865000Y6955000D02*
D03*
Y6755000D02*
D03*
Y6505000D02*
D03*
Y6305000D02*
D03*
X1195000Y6320000D02*
D03*
Y6520000D02*
D03*
Y6760000D02*
D03*
Y6960000D02*
D03*
X1912638Y6021654D02*
D03*
X1617362D02*
D03*
X1912638Y6820866D02*
D03*
Y6620866D02*
D03*
Y7020866D02*
D03*
X1617362D02*
D03*
Y6820866D02*
D03*
Y6620866D02*
D03*
D87*
X4500000Y6225000D02*
D03*
X4400000D02*
D03*
X4300000D02*
D03*
X4200000D02*
D03*
X4500000Y5925000D02*
D03*
X4400000D02*
D03*
X4300000D02*
D03*
X4200000D02*
D03*
D88*
X3656260Y5735000D02*
D03*
X3735000D02*
D03*
X3050000Y3875000D02*
D03*
X3128740D02*
D03*
X3189212Y5960000D02*
D03*
X3090788D02*
D03*
X1980826Y5450000D02*
D03*
X1529174D02*
D03*
D89*
X3080000Y6864000D02*
D03*
Y6470000D02*
D03*
X4540000Y6890000D02*
D03*
Y6790000D02*
D03*
X4240000D02*
D03*
Y6890000D02*
D03*
D90*
X3960000Y6925000D02*
D03*
X3860000D02*
D03*
X3760000D02*
D03*
D91*
X3630000Y5970000D02*
D03*
X3680000D02*
D03*
X3730000D02*
D03*
X3635000Y6260000D02*
D03*
X3685000D02*
D03*
X3735000D02*
D03*
X3625000Y6560000D02*
D03*
X3675000D02*
D03*
X3725000D02*
D03*
D92*
X2830000Y5925000D02*
D03*
Y6003740D02*
D03*
X2820000Y3694174D02*
D03*
Y4145826D02*
D03*
D93*
X2260000Y5195000D02*
D03*
X2160000D02*
D03*
D94*
X4240000Y3855000D02*
D03*
Y3955000D02*
D03*
Y4055000D02*
D03*
Y4155000D02*
D03*
Y4255000D02*
D03*
X4140000Y3855000D02*
D03*
Y3955000D02*
D03*
Y4055000D02*
D03*
Y4155000D02*
D03*
Y4255000D02*
D03*
X1825000Y3890000D02*
D03*
Y3790000D02*
D03*
X1925000Y3890000D02*
D03*
Y3790000D02*
D03*
X1825000Y3690000D02*
D03*
X1925000D02*
D03*
X2135000Y3895000D02*
D03*
Y3795000D02*
D03*
Y3695000D02*
D03*
D95*
X1375000Y5840000D02*
D03*
Y5890000D02*
D03*
Y5940000D02*
D03*
D96*
X3050788Y5535000D02*
D03*
X2850000D02*
D03*
X2948426D02*
D03*
X2390000Y5520000D02*
D03*
X2590000D02*
D03*
X2490000D02*
D03*
X2290000D02*
D03*
X2190000D02*
D03*
D97*
X3000000Y4125000D02*
D03*
X3100000D02*
D03*
X3200000D02*
D03*
X1920000Y4155000D02*
D03*
X1820000D02*
D03*
X1720000D02*
D03*
D98*
X3690000Y4990000D02*
D03*
X3590000D02*
D03*
X3490000D02*
D03*
X3390000D02*
D03*
X3290000D02*
D03*
X3190000D02*
D03*
X3090000D02*
D03*
X2990000D02*
D03*
X2890000D02*
D03*
X2790000D02*
D03*
X2690000D02*
D03*
X2590000D02*
D03*
X2490000D02*
D03*
X2390000D02*
D03*
X2290000D02*
D03*
X2190000D02*
D03*
X2090000D02*
D03*
X1990000D02*
D03*
X1890000D02*
D03*
X1790000D02*
D03*
Y4382500D02*
D03*
X1890000D02*
D03*
X1990000D02*
D03*
X2090000D02*
D03*
X2190000D02*
D03*
X2290000D02*
D03*
X2390000D02*
D03*
X2490000D02*
D03*
X2590000D02*
D03*
X2690000D02*
D03*
X2790000D02*
D03*
X2890000D02*
D03*
X2990000D02*
D03*
X3090000D02*
D03*
X3190000D02*
D03*
X3290000D02*
D03*
X3390000D02*
D03*
X3490000D02*
D03*
X3590000D02*
D03*
X3690000D02*
D03*
D99*
X1305000Y3675196D02*
D03*
Y4024804D02*
D03*
D100*
X1939804Y5715000D02*
D03*
X1590196D02*
D03*
D101*
X1485000Y4000000D02*
D03*
Y3900000D02*
D03*
Y3700000D02*
D03*
Y3800000D02*
D03*
D102*
X2540000Y6920276D02*
D03*
Y6625000D02*
D03*
Y6329724D02*
D03*
Y5936024D02*
D03*
X2225000Y6935552D02*
D03*
Y6640276D02*
D03*
Y6345000D02*
D03*
Y5951300D02*
D03*
D103*
X3500000Y6143000D02*
D03*
X4234448Y4985552D02*
D03*
X4170000Y5790000D02*
D03*
X4450000Y5055000D02*
D03*
X2279804Y4313000D02*
D03*
X3409000Y5488000D02*
D03*
X2557402Y3753000D02*
D03*
X2205000Y3992000D02*
D03*
X3713000Y4812000D02*
D03*
X3784000Y6037000D02*
D03*
X3812000Y4938000D02*
D03*
X3376000Y4249000D02*
D03*
X4249536Y6402000D02*
D03*
%TF.MD5,b3c11aca5b2ce1d7cf66f784bffeb166*%
M02*
