%TF.GenerationSoftware,Altium Limited,Altium Designer,23.0.1 (38)*%
G04 Layer_Color=8421504*
%FSLAX26Y26*%
%MOIN*%
%TF.SameCoordinates,CFC2B011-0ACB-40EE-8827-5318C0CA6053*%
%TF.FilePolarity,Positive*%
%TF.FileFunction,Paste,Top*%
%TF.Part,Single*%
G01*
G75*
%TA.AperFunction,SMDPad,CuDef*%
%ADD10R,0.055118X0.061024*%
%ADD11R,0.059238X0.061268*%
%ADD12R,0.061268X0.059238*%
D10*
X4042598Y5660000D02*
D03*
X4117402D02*
D03*
X4327598Y5390000D02*
D03*
X4402402D02*
D03*
X3787598Y5385000D02*
D03*
X3862402D02*
D03*
X4297598Y5655000D02*
D03*
X4372402D02*
D03*
X4037598Y5390000D02*
D03*
X4112402D02*
D03*
X4015196Y4830000D02*
D03*
X4090000D02*
D03*
X4485196Y6505000D02*
D03*
X4560000D02*
D03*
X4335000Y4580000D02*
D03*
X4409804D02*
D03*
X4610196Y5375000D02*
D03*
X4685000D02*
D03*
X4585000Y5655000D02*
D03*
X4659804D02*
D03*
X4600000Y5055000D02*
D03*
X4674804D02*
D03*
X3860000Y6140000D02*
D03*
X3934804D02*
D03*
X3870000Y6640000D02*
D03*
X3944804D02*
D03*
X3867598Y6390000D02*
D03*
X3942402D02*
D03*
X3382598Y4125000D02*
D03*
X3457402D02*
D03*
X2482598Y3880000D02*
D03*
X2557402D02*
D03*
X2205000Y4120000D02*
D03*
X2279804D02*
D03*
X2490196Y4130000D02*
D03*
X2565000D02*
D03*
X3430196Y5835000D02*
D03*
X3505000D02*
D03*
X3430000Y6075000D02*
D03*
X3504804D02*
D03*
X3290000Y5630000D02*
D03*
X3364804D02*
D03*
X3287598Y5385000D02*
D03*
X3362402D02*
D03*
D11*
X4329536Y4865000D02*
D03*
X4400464D02*
D03*
X4019072Y5105000D02*
D03*
X4090000D02*
D03*
X4314536Y5120000D02*
D03*
X4385464D02*
D03*
X4249536Y6500000D02*
D03*
X4320464D02*
D03*
X3554536Y5385000D02*
D03*
X3625464D02*
D03*
X2489072Y3650000D02*
D03*
X2560000D02*
D03*
X3550928Y3845000D02*
D03*
X3480000D02*
D03*
X3624536Y4120000D02*
D03*
X3695464D02*
D03*
D12*
X1950000Y5215464D02*
D03*
Y5144536D02*
D03*
%TF.MD5,3e2cde13847911c4c03d99ef7dfb3d08*%
M02*
