%TF.GenerationSoftware,Altium Limited,Altium Designer,23.0.1 (38)*%
G04 Layer_Physical_Order=2*
G04 Layer_Color=16711680*
%FSLAX26Y26*%
%MOIN*%
%TF.SameCoordinates,CFC2B011-0ACB-40EE-8827-5318C0CA6053*%
%TF.FilePolarity,Positive*%
%TF.FileFunction,Copper,L2,Bot,Signal*%
%TF.Part,Single*%
G01*
G75*
%TA.AperFunction,Conductor*%
%ADD13C,0.100000*%
%ADD14C,0.010000*%
%ADD16C,0.025000*%
%ADD17C,0.030000*%
%ADD18C,0.050000*%
%TA.AperFunction,ComponentPad*%
%ADD19C,0.070866*%
%ADD20R,0.070866X0.070866*%
%ADD21C,0.059055*%
%ADD22R,0.059055X0.059055*%
%ADD23R,0.043307X0.043307*%
%ADD24C,0.043307*%
%ADD25C,0.070000*%
%ADD26R,0.070000X0.070000*%
%ADD27R,0.075591X0.075591*%
%ADD28C,0.075591*%
%ADD29C,0.075000*%
%ADD30R,0.041339X0.041339*%
%ADD31C,0.041339*%
%ADD32R,0.043307X0.043307*%
%ADD33C,0.055118*%
%ADD34R,0.055118X0.055118*%
%ADD35R,0.061024X0.061024*%
%ADD36C,0.061024*%
%ADD37R,0.041339X0.041339*%
%ADD38C,0.062992*%
%ADD39R,0.061024X0.061024*%
%ADD40R,0.078740X0.078740*%
%ADD41C,0.078740*%
%ADD42C,0.047244*%
%ADD43R,0.047244X0.047244*%
%ADD44R,0.047244X0.047244*%
%ADD45R,0.053150X0.053150*%
%ADD46C,0.053150*%
%ADD47R,0.062992X0.062992*%
%ADD48C,0.092126*%
%ADD49R,0.062992X0.062992*%
%TA.AperFunction,ViaPad*%
%ADD50C,0.050000*%
%TA.AperFunction,Conductor*%
%ADD51C,0.080000*%
%ADD52C,0.075000*%
%ADD53C,0.090000*%
D13*
X4550000Y6780000D02*
X4585563D01*
X4617782Y6755000D02*
X4855000D01*
X4540000Y6890000D02*
X4605000Y6955000D01*
X2494437Y5826024D02*
X2585563D01*
X2381685Y5938776D02*
Y5944611D01*
X2268933Y6057363D02*
X2381685Y5944611D01*
Y5938776D02*
X2494437Y5826024D01*
X1923347Y6032363D02*
X2156067D01*
X2181067Y6057363D02*
X2268933D01*
X2156067Y6032363D02*
X2181067Y6057363D01*
X2789614Y6022500D02*
X2830000D01*
X2752861Y5985746D02*
X2789614Y6022500D01*
X2745286Y5985746D02*
X2752861D01*
X3113133Y6132500D02*
X3189212Y6056421D01*
X2736476Y6132500D02*
X3113133D01*
X2540000Y5936024D02*
X2736476Y6132500D01*
X3760669Y5895669D02*
Y5952000D01*
X3715000Y5850000D02*
X3760669Y5895669D01*
X3120000Y5850000D02*
X3715000D01*
X3189212Y5960000D02*
Y6056421D01*
X2585563Y5826024D02*
X2745286Y5985746D01*
X2505865Y6363859D02*
X2540000Y6329724D01*
X2650000Y6579437D02*
Y6670563D01*
X1407007Y6747993D02*
X1430000Y6725000D01*
X1297966Y6650000D02*
X1401483Y6753517D01*
X1338556Y6747993D02*
X1407007D01*
X1401483Y6753517D02*
X1468832Y6820866D01*
X1240563Y6650000D02*
X1338556Y6747993D01*
X1430000Y6725000D02*
X1660563D01*
X1864068Y6521496D01*
X2225000Y6637134D02*
Y6640276D01*
X1864068Y6521496D02*
X1953798D01*
X1240563Y6650000D02*
X1297966D01*
X1953798Y6521496D02*
X2066617Y6634315D01*
X1085000Y6805563D02*
X1195000Y6915563D01*
X2066617Y6634315D02*
Y6637457D01*
X1085000Y6714437D02*
Y6805563D01*
X2505865Y6446701D02*
X2572233Y6513069D01*
X1999362Y6411496D02*
X2225000Y6637134D01*
X2583632Y6513069D02*
X2650000Y6579437D01*
X1149437Y6650000D02*
X1240563D01*
X2179437Y6750276D02*
X2570287D01*
X1617362Y6612638D02*
X1818504Y6411496D01*
X2572233Y6513069D02*
X2583632D01*
X1195000Y6915563D02*
Y6960000D01*
X1818504Y6411496D02*
X1999362D01*
X2066617Y6637457D02*
X2179437Y6750276D01*
X2505865Y6363859D02*
Y6446701D01*
X2570287Y6750276D02*
X2650000Y6670563D01*
X1085000Y6714437D02*
X1149437Y6650000D01*
X1555236Y7120236D02*
X1658522D01*
X1716732Y7062026D01*
X1195000Y6760000D02*
X1555236Y7120236D01*
X1716732Y7016772D02*
Y7062026D01*
Y7016772D02*
X1912638Y6820866D01*
X1468832D02*
X1617362D01*
X2505000Y6625000D02*
X2528601D01*
X2540000D01*
X1215000Y6520000D02*
X1225000Y6530000D01*
X1465000Y6615000D02*
X1611496D01*
X1225000Y6530000D02*
X1380000D01*
X1465000Y6615000D01*
X2236399Y6345000D02*
X2257462Y6366063D01*
X2507538Y6603937D02*
X2528601Y6625000D01*
X2225000Y6345000D02*
X2236399D01*
X2257462Y6366063D02*
X2266063D01*
X2503937Y6603937D01*
X2507538D01*
X2629724Y6920276D02*
X3080000Y6470000D01*
X2540000Y6920276D02*
X2629724D01*
X4605000Y6955000D02*
X4855000D01*
X3080000Y6864000D02*
X3141000Y6925000D01*
X2389276Y6920276D02*
X2540000D01*
X2374000Y6935552D02*
X2389276Y6920276D01*
X2225000Y6935552D02*
X2374000D01*
D14*
X3445500Y6197500D02*
X3500000Y6143000D01*
X1966500Y6197500D02*
X3445500D01*
X1659000Y5890000D02*
X1966500Y6197500D01*
X3772000Y4978000D02*
X4226895D01*
X4234448Y4985552D01*
X4300000Y5922500D02*
Y5925000D01*
X4170000Y5792500D02*
X4300000Y5922500D01*
X4170000Y5790000D02*
Y5792500D01*
X3642000Y5642000D02*
X3735000Y5735000D01*
X4500000Y5925000D02*
Y6056000D01*
X4350000Y6206000D02*
X4500000Y6056000D01*
X4350000Y6206000D02*
Y6240000D01*
X4320000Y6270000D02*
X4350000Y6240000D01*
X4275000Y6270000D02*
X4320000D01*
X4245000Y6240000D02*
X4275000Y6270000D01*
X4245000Y6180000D02*
Y6240000D01*
X3800000Y5735000D02*
X4245000Y6180000D01*
X3735000Y5735000D02*
X3800000D01*
X2820000Y3694174D02*
X2987170D01*
X3128740Y3835744D01*
Y3875000D01*
X1665000Y3690000D02*
X1825000D01*
X1485000Y3700000D02*
X1665000Y3690000D01*
X1575000Y3890000D02*
X1825000D01*
X1485000Y3800000D02*
X1575000Y3890000D01*
X1825000D02*
X1875000Y3840000D01*
X2080000D01*
X2135000Y3895000D01*
X2890000Y4382500D02*
X2951576Y4444076D01*
X3603924D01*
X3648000Y4400000D01*
Y4360000D02*
Y4400000D01*
Y4360000D02*
X3753000Y4255000D01*
X4140000D01*
X2547500Y4425000D02*
X2590000Y4382500D01*
X1539000Y4425000D02*
X2547500D01*
X1305000Y4191000D02*
X1539000Y4425000D01*
X1305000Y4024804D02*
Y4191000D01*
X1948000Y5417174D02*
X1980826Y5450000D01*
X1948000Y4960000D02*
Y5417174D01*
Y4960000D02*
X1993000Y4915000D01*
X2615000D01*
X2690000Y4990000D01*
X4450000Y5055000D02*
Y6075000D01*
X4300000Y6225000D02*
X4450000Y6075000D01*
X2279804Y4313000D02*
X2585000D01*
X2632000Y4360000D01*
Y4699000D01*
X2732000Y4799000D01*
Y5015576D01*
X2748000Y5031576D01*
X3120424D01*
X3132000Y5020000D01*
Y4976424D02*
Y5020000D01*
Y4976424D02*
X3160000Y4948424D01*
X3648424D01*
X3690000Y4990000D01*
X2803000Y5488000D02*
X3409000D01*
X2724000Y5567000D02*
X2803000Y5488000D01*
X1935000Y5567000D02*
X2724000D01*
X1890000Y5522000D02*
X1935000Y5567000D01*
X1890000Y4990000D02*
Y5522000D01*
X3854000Y3855000D02*
X4140000D01*
X3400000Y4309000D02*
X3854000Y3855000D01*
X3174000Y4309000D02*
X3400000D01*
X3148424Y4334576D02*
X3174000Y4309000D01*
X3148424Y4334576D02*
Y4400000D01*
X3172500Y4424076D01*
X3227924D01*
X3253000Y4399000D01*
X3273500D01*
X3290000Y4382500D01*
X4140000Y3855000D02*
X4190000Y3905000D01*
X4286000D01*
Y3805000D02*
Y3905000D01*
X4136000Y3655000D02*
X4286000Y3805000D01*
X2655402Y3655000D02*
X4136000D01*
X2557402Y3753000D02*
X2655402Y3655000D01*
X4190000Y4005000D02*
X4240000Y3955000D01*
X3807500Y4005000D02*
X4190000D01*
X3430000Y4382500D02*
X3807500Y4005000D01*
X3390000Y4382500D02*
X3430000D01*
X2205000Y3992000D02*
X2602000D01*
X2832000Y4222000D01*
Y4404000D01*
X3240000Y4812000D01*
X3713000D01*
X3685000Y6136000D02*
X3784000Y6037000D01*
X3685000Y6136000D02*
Y6260000D01*
X2790000Y4990000D02*
X2882000Y4898000D01*
X3772000D01*
X3812000Y4938000D01*
X2890000Y4990000D02*
X2951576Y4928424D01*
X3722424D01*
X3772000Y4978000D01*
X1925000Y3890000D02*
X2163000Y4128000D01*
X2435500D01*
X2690000Y4382500D01*
X3128740Y3875000D02*
X3210740Y3793000D01*
X4178000D01*
X4240000Y3855000D01*
X2135000Y3795000D02*
X2178000Y3838000D01*
X3087000D01*
Y3920000D01*
X3376000Y4209000D01*
Y4249000D01*
X3814496Y3955000D02*
X4140000D01*
X3440496Y4329000D02*
X3814496Y3955000D01*
X3243500Y4329000D02*
X3440496D01*
X3190000Y4382500D02*
X3243500Y4329000D01*
X2613000Y3875000D02*
X3050000D01*
X2593000Y3895000D02*
X2613000Y3875000D01*
X2135000Y3895000D02*
X2593000D01*
X1990000Y4990000D02*
X2051576Y5051576D01*
X3144490D01*
X3156066Y5040000D01*
Y5023934D02*
Y5040000D01*
Y5023934D02*
X3190000Y4990000D01*
X1485000Y4000000D02*
Y4200000D01*
X1538000Y4253000D01*
X1860500D01*
X1990000Y4382500D01*
X4500000Y6225000D02*
X4881000D01*
X4916000Y6260000D01*
Y6360000D01*
X4874000Y6402000D02*
X4916000Y6360000D01*
X4249536Y6402000D02*
X4874000D01*
X4190000Y4205000D02*
X4240000Y4155000D01*
X3767500Y4205000D02*
X4190000D01*
X3590000Y4382500D02*
X3767500Y4205000D01*
X4200000Y6225000D02*
X4280000Y6305000D01*
X1375000Y5890000D02*
X1659000D01*
X3069000Y4256000D02*
X3200000Y4125000D01*
X3016500Y4256000D02*
X3069000D01*
X2890000Y4382500D02*
X3016500Y4256000D01*
X2090000Y4259000D02*
Y4382500D01*
X1770000Y3939000D02*
X2090000Y4259000D01*
X1524000Y3939000D02*
X1770000D01*
X1485000Y3900000D02*
X1524000Y3939000D01*
X4190000Y4105000D02*
X4240000Y4055000D01*
X3767500Y4105000D02*
X4190000D01*
X3490000Y4382500D02*
X3767500Y4105000D01*
X3690000Y4382500D02*
X4112500D01*
X4240000Y4255000D01*
X1825000Y3690000D02*
X1871000Y3736000D01*
X2094000D01*
X2135000Y3695000D01*
X1406804Y3700000D02*
X1485000D01*
X1382000Y3675196D02*
X1406804Y3700000D01*
X1305000Y3675196D02*
X1382000D01*
D16*
X3575000Y6025000D02*
Y6289000D01*
X3725000Y6439000D01*
X3575000Y6025000D02*
X3630000Y5970000D01*
X2957000Y5642000D02*
X3642000D01*
X2850000Y5535000D02*
X2957000Y5642000D01*
X3725000Y6439000D02*
Y6560000D01*
D17*
X4280000Y6305000D02*
X4865000D01*
D18*
X1912638Y6021654D02*
X1923347Y6032363D01*
D19*
X4865000Y6955000D02*
D03*
Y6505000D02*
D03*
X1195000Y6320000D02*
D03*
Y6760000D02*
D03*
D20*
X4865000Y6755000D02*
D03*
Y6305000D02*
D03*
X1195000Y6520000D02*
D03*
Y6960000D02*
D03*
D21*
X4500000Y6225000D02*
D03*
X4400000D02*
D03*
X4300000D02*
D03*
X4200000D02*
D03*
X4500000Y5925000D02*
D03*
X4400000D02*
D03*
X4300000D02*
D03*
D22*
X4200000D02*
D03*
D23*
X3656260Y5735000D02*
D03*
X3050000Y3875000D02*
D03*
D24*
X3735000Y5735000D02*
D03*
X3128740Y3875000D02*
D03*
X2830000Y6003740D02*
D03*
D25*
X3080000Y6864000D02*
D03*
D26*
Y6470000D02*
D03*
D27*
X3960000Y6925000D02*
D03*
D28*
X3860000D02*
D03*
X3760000D02*
D03*
D29*
X4540000Y6890000D02*
D03*
Y6790000D02*
D03*
X4240000D02*
D03*
Y6890000D02*
D03*
D30*
X3630000Y5970000D02*
D03*
X3635000Y6260000D02*
D03*
X3625000Y6560000D02*
D03*
D31*
X3680000Y5970000D02*
D03*
X3730000D02*
D03*
X3685000Y6260000D02*
D03*
X3735000D02*
D03*
X3675000Y6560000D02*
D03*
X3725000D02*
D03*
X1375000Y5890000D02*
D03*
Y5940000D02*
D03*
D32*
X2830000Y5925000D02*
D03*
D33*
X2260000Y5195000D02*
D03*
D34*
X2160000D02*
D03*
D35*
X4240000Y3855000D02*
D03*
X1925000Y3690000D02*
D03*
X2135000Y3695000D02*
D03*
X1305000Y3675196D02*
D03*
D36*
X4240000Y3955000D02*
D03*
Y4055000D02*
D03*
Y4155000D02*
D03*
Y4255000D02*
D03*
X4140000Y3855000D02*
D03*
Y3955000D02*
D03*
Y4055000D02*
D03*
Y4155000D02*
D03*
Y4255000D02*
D03*
X1825000Y3890000D02*
D03*
Y3790000D02*
D03*
X1925000Y3890000D02*
D03*
Y3790000D02*
D03*
X1825000Y3690000D02*
D03*
X3000000Y4125000D02*
D03*
X3100000D02*
D03*
X2135000Y3895000D02*
D03*
Y3795000D02*
D03*
X1920000Y4155000D02*
D03*
X1820000D02*
D03*
X1305000Y4024804D02*
D03*
X1590196Y5715000D02*
D03*
D37*
X1375000Y5840000D02*
D03*
D38*
X3050788Y5535000D02*
D03*
X2850000D02*
D03*
X2948426D02*
D03*
X1485000Y4000000D02*
D03*
Y3900000D02*
D03*
Y3800000D02*
D03*
X2390000Y5520000D02*
D03*
X2490000D02*
D03*
X2290000D02*
D03*
X2190000D02*
D03*
D39*
X3200000Y4125000D02*
D03*
X1720000Y4155000D02*
D03*
X1939804Y5715000D02*
D03*
D40*
X1912638Y6021654D02*
D03*
D41*
X1617362D02*
D03*
X1912638Y6820866D02*
D03*
Y6620866D02*
D03*
Y7020866D02*
D03*
X1617362D02*
D03*
Y6820866D02*
D03*
Y6620866D02*
D03*
D42*
X3189212Y5960000D02*
D03*
X2820000Y4145826D02*
D03*
X1529174Y5450000D02*
D03*
D43*
X3090788Y5960000D02*
D03*
X1980826Y5450000D02*
D03*
D44*
X2820000Y3694174D02*
D03*
D45*
X3690000Y4990000D02*
D03*
D46*
X3590000D02*
D03*
X3490000D02*
D03*
X3390000D02*
D03*
X3290000D02*
D03*
X3190000D02*
D03*
X3090000D02*
D03*
X2990000D02*
D03*
X2890000D02*
D03*
X2790000D02*
D03*
X2690000D02*
D03*
X2590000D02*
D03*
X2490000D02*
D03*
X2390000D02*
D03*
X2290000D02*
D03*
X2190000D02*
D03*
X2090000D02*
D03*
X1990000D02*
D03*
X1890000D02*
D03*
X1790000D02*
D03*
Y4382500D02*
D03*
X1890000D02*
D03*
X1990000D02*
D03*
X2090000D02*
D03*
X2190000D02*
D03*
X2290000D02*
D03*
X2390000D02*
D03*
X2490000D02*
D03*
X2590000D02*
D03*
X2690000D02*
D03*
X2790000D02*
D03*
X2890000D02*
D03*
X2990000D02*
D03*
X3090000D02*
D03*
X3190000D02*
D03*
X3290000D02*
D03*
X3390000D02*
D03*
X3490000D02*
D03*
X3590000D02*
D03*
X3690000D02*
D03*
D47*
X1485000Y3700000D02*
D03*
D48*
X2540000Y6920276D02*
D03*
Y6625000D02*
D03*
Y6329724D02*
D03*
Y5936024D02*
D03*
X2225000Y6935552D02*
D03*
Y6640276D02*
D03*
Y6345000D02*
D03*
Y5951300D02*
D03*
D49*
X2590000Y5520000D02*
D03*
D50*
X3500000Y6143000D02*
D03*
X4234448Y4985552D02*
D03*
X4170000Y5790000D02*
D03*
X4450000Y5055000D02*
D03*
X2279804Y4313000D02*
D03*
X3409000Y5488000D02*
D03*
X2557402Y3753000D02*
D03*
X2205000Y3992000D02*
D03*
X3713000Y4812000D02*
D03*
X3784000Y6037000D02*
D03*
X3812000Y4938000D02*
D03*
X3376000Y4249000D02*
D03*
X4249536Y6402000D02*
D03*
D51*
X4140000Y6890000D02*
X4240000D01*
X4080000Y6830000D02*
X4140000Y6890000D01*
X3860000Y6830000D02*
X4080000D01*
X3860000D02*
Y6925000D01*
D52*
X3045000Y5925000D02*
X3120000Y5850000D01*
X3045000Y5925000D02*
X3055788D01*
X2830000D02*
X3045000D01*
X3055788D02*
X3090788Y5960000D01*
D53*
X3141000Y6925000D02*
X3760000D01*
%TF.MD5,b1eb187ef0f702be5444d4696daa61e8*%
M02*
