%TF.GenerationSoftware,Altium Limited,Altium Designer,23.0.1 (38)*%
G04 Layer_Color=65535*
%FSLAX26Y26*%
%MOIN*%
%TF.SameCoordinates,CFC2B011-0ACB-40EE-8827-5318C0CA6053*%
%TF.FilePolarity,Positive*%
%TF.FileFunction,Legend,Top*%
%TF.Part,Single*%
G01*
G75*
%TA.AperFunction,NonConductor*%
%ADD54C,0.023622*%
%ADD55C,0.009842*%
%ADD56C,0.007874*%
%ADD57C,0.006000*%
%ADD58C,0.005906*%
%ADD59C,0.010000*%
%ADD60C,0.003937*%
G36*
X3910258Y4284016D02*
X3910702D01*
X3911756Y4283905D01*
X3912921Y4283739D01*
X3914142Y4283462D01*
X3915474Y4283128D01*
X3916751Y4282685D01*
X3916807D01*
X3916918Y4282629D01*
X3917084Y4282574D01*
X3917306Y4282462D01*
X3917916Y4282130D01*
X3918693Y4281741D01*
X3919526Y4281186D01*
X3920414Y4280520D01*
X3921247Y4279798D01*
X3922023Y4278910D01*
X3922135Y4278800D01*
X3922356Y4278467D01*
X3922689Y4277967D01*
X3923133Y4277245D01*
X3923577Y4276358D01*
X3924077Y4275248D01*
X3924577Y4274026D01*
X3924965Y4272639D01*
X3920358Y4271418D01*
Y4271474D01*
X3920303Y4271529D01*
X3920247Y4271695D01*
X3920192Y4271917D01*
X3920026Y4272417D01*
X3919803Y4273083D01*
X3919470Y4273860D01*
X3919082Y4274582D01*
X3918693Y4275359D01*
X3918194Y4276025D01*
X3918139Y4276080D01*
X3917972Y4276302D01*
X3917639Y4276579D01*
X3917251Y4276968D01*
X3916751Y4277412D01*
X3916085Y4277856D01*
X3915363Y4278300D01*
X3914531Y4278689D01*
X3914420Y4278744D01*
X3914142Y4278855D01*
X3913643Y4279021D01*
X3912977Y4279243D01*
X3912200Y4279410D01*
X3911312Y4279577D01*
X3910313Y4279688D01*
X3909258Y4279743D01*
X3908648D01*
X3908370Y4279688D01*
X3908037D01*
X3907205Y4279632D01*
X3906262Y4279466D01*
X3905207Y4279299D01*
X3904208Y4279021D01*
X3903209Y4278633D01*
X3903098Y4278578D01*
X3902765Y4278467D01*
X3902321Y4278189D01*
X3901766Y4277912D01*
X3901100Y4277467D01*
X3900378Y4277024D01*
X3899713Y4276468D01*
X3899102Y4275858D01*
X3899046Y4275802D01*
X3898825Y4275581D01*
X3898547Y4275192D01*
X3898214Y4274748D01*
X3897825Y4274193D01*
X3897437Y4273527D01*
X3897048Y4272806D01*
X3896660Y4272029D01*
Y4271973D01*
X3896604Y4271862D01*
X3896549Y4271695D01*
X3896438Y4271418D01*
X3896327Y4271085D01*
X3896216Y4270697D01*
X3896050Y4270252D01*
X3895939Y4269753D01*
X3895661Y4268587D01*
X3895439Y4267256D01*
X3895273Y4265868D01*
X3895217Y4264314D01*
Y4264258D01*
Y4264092D01*
Y4263815D01*
X3895273Y4263481D01*
Y4263038D01*
X3895328Y4262483D01*
X3895383Y4261927D01*
X3895439Y4261317D01*
X3895661Y4259930D01*
X3895939Y4258486D01*
X3896383Y4257043D01*
X3896938Y4255656D01*
Y4255600D01*
X3897048Y4255489D01*
X3897104Y4255323D01*
X3897271Y4255101D01*
X3897659Y4254490D01*
X3898269Y4253713D01*
X3898991Y4252881D01*
X3899879Y4252048D01*
X3900934Y4251271D01*
X3902099Y4250550D01*
X3902155D01*
X3902265Y4250494D01*
X3902432Y4250383D01*
X3902709Y4250273D01*
X3902987Y4250162D01*
X3903376Y4250051D01*
X3904264Y4249717D01*
X3905374Y4249440D01*
X3906595Y4249163D01*
X3907927Y4248940D01*
X3909314Y4248885D01*
X3909869D01*
X3910202Y4248940D01*
X3910535D01*
X3911367Y4249051D01*
X3912367Y4249163D01*
X3913421Y4249385D01*
X3914586Y4249717D01*
X3915752Y4250106D01*
X3915807D01*
X3915919Y4250162D01*
X3916030Y4250217D01*
X3916251Y4250328D01*
X3916862Y4250605D01*
X3917528Y4250939D01*
X3918305Y4251327D01*
X3919137Y4251771D01*
X3919914Y4252270D01*
X3920581Y4252825D01*
Y4260041D01*
X3909258D01*
Y4264592D01*
X3925575D01*
Y4250328D01*
X3925520Y4250273D01*
X3925409Y4250217D01*
X3925187Y4250051D01*
X3924910Y4249828D01*
X3924577Y4249606D01*
X3924188Y4249329D01*
X3923689Y4248996D01*
X3923189Y4248663D01*
X3922023Y4247941D01*
X3920691Y4247164D01*
X3919304Y4246443D01*
X3917805Y4245833D01*
X3917750D01*
X3917639Y4245777D01*
X3917417Y4245721D01*
X3917140Y4245610D01*
X3916751Y4245499D01*
X3916307Y4245333D01*
X3915807Y4245222D01*
X3915308Y4245111D01*
X3914087Y4244833D01*
X3912700Y4244556D01*
X3911201Y4244390D01*
X3909647Y4244334D01*
X3909092D01*
X3908704Y4244390D01*
X3908204D01*
X3907593Y4244445D01*
X3906927Y4244556D01*
X3906206Y4244611D01*
X3904597Y4244944D01*
X3902876Y4245333D01*
X3901100Y4245944D01*
X3900212Y4246276D01*
X3899324Y4246721D01*
X3899269Y4246776D01*
X3899102Y4246832D01*
X3898880Y4246998D01*
X3898547Y4247164D01*
X3898159Y4247442D01*
X3897770Y4247720D01*
X3896715Y4248497D01*
X3895606Y4249495D01*
X3894440Y4250717D01*
X3893330Y4252104D01*
X3892331Y4253713D01*
Y4253769D01*
X3892220Y4253935D01*
X3892109Y4254158D01*
X3891943Y4254546D01*
X3891776Y4254935D01*
X3891610Y4255489D01*
X3891387Y4256044D01*
X3891166Y4256711D01*
X3890943Y4257432D01*
X3890722Y4258265D01*
X3890555Y4259097D01*
X3890389Y4259985D01*
X3890111Y4261927D01*
X3890000Y4263981D01*
Y4264037D01*
Y4264258D01*
Y4264536D01*
X3890055Y4264925D01*
Y4265424D01*
X3890111Y4266034D01*
X3890222Y4266645D01*
X3890278Y4267367D01*
X3890444Y4268144D01*
X3890555Y4268976D01*
X3890999Y4270752D01*
X3891554Y4272583D01*
X3892331Y4274415D01*
X3892387Y4274471D01*
X3892442Y4274637D01*
X3892553Y4274859D01*
X3892775Y4275192D01*
X3892997Y4275636D01*
X3893274Y4276080D01*
X3894052Y4277135D01*
X3894995Y4278355D01*
X3896160Y4279521D01*
X3897492Y4280686D01*
X3898269Y4281186D01*
X3899046Y4281685D01*
X3899102Y4281741D01*
X3899269Y4281797D01*
X3899490Y4281908D01*
X3899823Y4282074D01*
X3900267Y4282240D01*
X3900767Y4282462D01*
X3901322Y4282685D01*
X3901988Y4282907D01*
X3902709Y4283128D01*
X3903486Y4283295D01*
X3904319Y4283517D01*
X3905207Y4283684D01*
X3907149Y4283961D01*
X3908148Y4284072D01*
X3909925D01*
X3910258Y4284016D01*
D02*
G37*
G36*
X3963260Y4245000D02*
X3957988D01*
X3937896Y4275136D01*
Y4245000D01*
X3933012D01*
Y4283406D01*
X3938229D01*
X3958376Y4253214D01*
Y4283406D01*
X3963260D01*
Y4245000D01*
D02*
G37*
G36*
X3987569Y4283350D02*
X3988679Y4283295D01*
X3989789Y4283184D01*
X3990899Y4283017D01*
X3991843Y4282851D01*
X3991898D01*
X3992009Y4282796D01*
X3992175D01*
X3992398Y4282685D01*
X3993008Y4282518D01*
X3993785Y4282240D01*
X3994673Y4281852D01*
X3995617Y4281352D01*
X3996560Y4280797D01*
X3997448Y4280076D01*
X3997503Y4280020D01*
X3997559Y4279965D01*
X3997726Y4279798D01*
X3997948Y4279632D01*
X3998503Y4279077D01*
X3999169Y4278300D01*
X3999890Y4277356D01*
X4000667Y4276247D01*
X4001389Y4274970D01*
X4001999Y4273527D01*
Y4273471D01*
X4002055Y4273360D01*
X4002166Y4273139D01*
X4002221Y4272806D01*
X4002387Y4272417D01*
X4002499Y4271973D01*
X4002610Y4271474D01*
X4002776Y4270863D01*
X4002943Y4270252D01*
X4003053Y4269531D01*
X4003331Y4267977D01*
X4003497Y4266257D01*
X4003553Y4264369D01*
Y4264314D01*
Y4264203D01*
Y4263926D01*
Y4263648D01*
X4003497Y4263260D01*
Y4262815D01*
X4003442Y4261761D01*
X4003276Y4260540D01*
X4003109Y4259264D01*
X4002831Y4257931D01*
X4002499Y4256600D01*
Y4256544D01*
X4002443Y4256433D01*
X4002387Y4256266D01*
X4002332Y4256044D01*
X4002110Y4255434D01*
X4001777Y4254657D01*
X4001444Y4253769D01*
X4001000Y4252881D01*
X4000445Y4251938D01*
X3999890Y4251050D01*
X3999834Y4250939D01*
X3999613Y4250661D01*
X3999280Y4250273D01*
X3998836Y4249773D01*
X3998336Y4249218D01*
X3997726Y4248663D01*
X3997115Y4248052D01*
X3996394Y4247553D01*
X3996282Y4247498D01*
X3996061Y4247331D01*
X3995672Y4247109D01*
X3995117Y4246832D01*
X3994451Y4246498D01*
X3993674Y4246221D01*
X3992786Y4245888D01*
X3991787Y4245610D01*
X3991676D01*
X3991510Y4245555D01*
X3991343Y4245499D01*
X3990788Y4245444D01*
X3990011Y4245333D01*
X3989123Y4245222D01*
X3988068Y4245111D01*
X3986903Y4245056D01*
X3985626Y4245000D01*
X3971807D01*
Y4283406D01*
X3986570D01*
X3987569Y4283350D01*
D02*
G37*
%LPC*%
G36*
X3985793Y4278855D02*
X3976913D01*
Y4249551D01*
X3986015D01*
X3986403Y4249606D01*
X3987236Y4249662D01*
X3988180Y4249717D01*
X3989178Y4249828D01*
X3990177Y4249995D01*
X3991010Y4250217D01*
X3991121Y4250273D01*
X3991398Y4250328D01*
X3991787Y4250494D01*
X3992287Y4250717D01*
X3992841Y4251050D01*
X3993396Y4251382D01*
X3993952Y4251771D01*
X3994506Y4252215D01*
X3994562Y4252326D01*
X3994784Y4252548D01*
X3995117Y4252936D01*
X3995506Y4253492D01*
X3995950Y4254213D01*
X3996449Y4255046D01*
X3996893Y4255989D01*
X3997282Y4257043D01*
Y4257099D01*
X3997337Y4257210D01*
X3997392Y4257377D01*
X3997448Y4257599D01*
X3997503Y4257876D01*
X3997615Y4258265D01*
X3997726Y4258653D01*
X3997836Y4259097D01*
X3998003Y4260207D01*
X3998169Y4261484D01*
X3998280Y4262926D01*
X3998336Y4264480D01*
Y4264536D01*
Y4264758D01*
Y4265035D01*
X3998280Y4265480D01*
Y4265979D01*
X3998225Y4266534D01*
X3998169Y4267200D01*
X3998114Y4267866D01*
X3997836Y4269364D01*
X3997503Y4270918D01*
X3997004Y4272361D01*
X3996671Y4273083D01*
X3996338Y4273694D01*
Y4273749D01*
X3996227Y4273860D01*
X3996116Y4274026D01*
X3996005Y4274248D01*
X3995561Y4274803D01*
X3995006Y4275470D01*
X3994285Y4276191D01*
X3993452Y4276913D01*
X3992508Y4277523D01*
X3991510Y4278023D01*
X3991398Y4278078D01*
X3991121Y4278133D01*
X3990622Y4278300D01*
X3989900Y4278467D01*
X3989012Y4278578D01*
X3987902Y4278744D01*
X3987236Y4278800D01*
X3986515D01*
X3985793Y4278855D01*
D02*
G37*
%LPD*%
D54*
X4208268Y6010039D02*
G03*
X4208268Y6010039I-11811J0D01*
G01*
D55*
X4153740Y5925000D02*
G03*
X4153740Y5925000I-4921J0D01*
G01*
X3568780Y5970000D02*
G03*
X3568780Y5970000I-4921J0D01*
G01*
X3573780Y6260000D02*
G03*
X3573780Y6260000I-4921J0D01*
G01*
X3563780Y6560000D02*
G03*
X3563780Y6560000I-4921J0D01*
G01*
X2164921Y5266654D02*
G03*
X2164921Y5266654I-4921J0D01*
G01*
X4391772Y3855000D02*
G03*
X4391772Y3855000I-4921J0D01*
G01*
X1929921Y3614409D02*
G03*
X1929921Y3614409I-4921J0D01*
G01*
X1379921Y5773858D02*
G03*
X1379921Y5773858I-4921J0D01*
G01*
X3181693Y5535000D02*
G03*
X3181693Y5535000I-4921J0D01*
G01*
X3280512Y4125000D02*
G03*
X3280512Y4125000I-4921J0D01*
G01*
X2139921Y3619409D02*
G03*
X2139921Y3619409I-4921J0D01*
G01*
X1649331Y4155000D02*
G03*
X1649331Y4155000I-4921J0D01*
G01*
X1922480Y5910433D02*
G03*
X1922480Y5910433I-4921J0D01*
G01*
X3694921Y5038228D02*
G03*
X3694921Y5038228I-4921J0D01*
G01*
D56*
X4157087Y6050000D02*
G03*
X4157087Y6100000I0J25000D01*
G01*
X3798976Y5735000D02*
G03*
X3798976Y5735000I-103347J0D01*
G01*
X3192717Y3875000D02*
G03*
X3192717Y3875000I-103347J0D01*
G01*
X4240000Y7000236D02*
G03*
X4240000Y7008110I0J3937D01*
G01*
D02*
G03*
X4240000Y7000236I0J-3937D01*
G01*
X3756137Y5917435D02*
G03*
X3603872Y5917423I-76137J52565D01*
G01*
X3761137Y6207435D02*
G03*
X3608872Y6207423I-76137J52565D01*
G01*
X3751137Y6507435D02*
G03*
X3598872Y6507423I-76137J52565D01*
G01*
X2933347Y5964370D02*
G03*
X2933347Y5964370I-103347J0D01*
G01*
X1427565Y5966137D02*
G03*
X1427577Y5813872I-52565J-76137D01*
G01*
X4705560Y6655000D02*
Y7054996D01*
X5024452Y6654996D02*
Y7054996D01*
X4705556Y6654996D02*
X5024452D01*
X4705560Y7054996D02*
X5024452D01*
X4299918Y4818618D02*
X4430082D01*
X4299918Y4911382D02*
X4430082D01*
X4705560Y6205000D02*
Y6604996D01*
X5024452Y6204996D02*
Y6604996D01*
X4705556Y6204996D02*
X5024452D01*
X4705560Y6604996D02*
X5024452D01*
X4542914Y5970670D02*
Y6179330D01*
X4157086Y6100000D02*
Y6179330D01*
Y5970670D02*
Y6050000D01*
Y6179330D02*
X4542914D01*
X4157086Y5970670D02*
X4542914D01*
X3989454Y5058618D02*
X4119618D01*
X3989454Y5151382D02*
X4119618D01*
X4284918Y5073618D02*
X4415082D01*
X4284918Y5166382D02*
X4415082D01*
X4219918Y6453618D02*
X4350082D01*
X4219918Y6546382D02*
X4350082D01*
X3524918Y5338618D02*
X3655082D01*
X3524918Y5431382D02*
X3655082D01*
X3652520Y6799212D02*
Y6983858D01*
Y6799212D02*
X4067480D01*
Y6925000D01*
X3603872Y5917440D02*
X3756128D01*
X3608872Y6207440D02*
X3761128D01*
X3598872Y6507440D02*
X3751128D01*
X1354440Y6220004D02*
Y6620000D01*
X1035548Y6220004D02*
Y6620004D01*
X1354444D01*
X1035548Y6220004D02*
X1354440D01*
X2118070Y5241064D02*
X2301930D01*
X2118070Y5148938D02*
X2301930D01*
X4018740Y3654408D02*
X4361260D01*
Y4455592D01*
X4018748Y4455602D02*
X4361252D01*
X4018740Y3654408D02*
Y4455592D01*
X1775000Y3940000D02*
X1975000D01*
Y3640000D02*
Y3940000D01*
X1775000Y3640000D02*
X1975000D01*
X1775000D02*
Y3940000D01*
X1354440Y6660004D02*
Y7060000D01*
X1035548Y6660004D02*
Y7060004D01*
X1354444D01*
X1035548Y6660004D02*
X1354440D01*
X1427560Y5813872D02*
Y5966128D01*
X2743700Y5645236D02*
X3153150D01*
X2743700Y5346024D02*
X3153150D01*
Y5645236D01*
X2743700Y5346024D02*
Y5645236D01*
X2950000Y4075984D02*
Y4174016D01*
X3250000Y4075984D02*
Y4174016D01*
X2950000D02*
X3250000D01*
X2950000Y4075984D02*
X3250000D01*
X2085984Y3945000D02*
X2184016D01*
X2085984Y3645000D02*
X2184016D01*
Y3945000D01*
X2085984Y3645000D02*
Y3945000D01*
X1970000Y4105984D02*
Y4204016D01*
X1670000Y4105984D02*
Y4204016D01*
Y4105984D02*
X1970000D01*
X1670000Y4204016D02*
X1970000D01*
X1515000Y5929134D02*
Y7070866D01*
X1966772D02*
X2015000D01*
X1671496D02*
X1858504D01*
X1515000D02*
X1563228D01*
X2015000Y5929134D02*
Y7070866D01*
X1515000Y5929134D02*
X2015000D01*
X3029764Y5891102D02*
Y6028898D01*
X2759960Y3755040D02*
Y4084960D01*
X2880040D01*
Y3755040D02*
Y4084960D01*
X2759960Y3755040D02*
X2880040D01*
X2820000Y3733544D02*
Y3755040D01*
Y4084960D02*
Y4106456D01*
X2459454Y3603618D02*
X2589618D01*
X2459454Y3696382D02*
X2589618D01*
X1903618Y5114918D02*
Y5245082D01*
X1996382Y5114918D02*
Y5245082D01*
X3450382Y3891382D02*
X3580546D01*
X3450382Y3798618D02*
X3580546D01*
X3594918Y4073618D02*
X3725082D01*
X3594918Y4166382D02*
X3725082D01*
X1721250Y4913130D02*
X3758750D01*
X1721250Y4459370D02*
Y4913130D01*
Y4459370D02*
X3758750D01*
Y4621428D01*
X3739066D02*
X3758750D01*
X3739066D02*
Y4751072D01*
X3758750D01*
Y4913130D01*
X1249882Y3747638D02*
Y3952362D01*
X1360118D01*
Y3747638D02*
Y3952362D01*
X1249882Y3747638D02*
X1360118D01*
X1305000Y3721456D02*
Y3747638D01*
Y3952362D02*
Y3978544D01*
X1252638Y3798818D02*
X1357362D01*
X1662638Y5659882D02*
X1867362D01*
X1662638D02*
Y5770118D01*
X1867362D01*
Y5659882D02*
Y5770118D01*
Y5715000D02*
X1893544D01*
X1636456D02*
X1662638D01*
X1816182Y5662638D02*
Y5767362D01*
X1432048Y4055906D02*
X1537952D01*
X1432048Y3644094D02*
Y4055906D01*
Y3644094D02*
X1537952D01*
Y4055906D01*
X1590040Y5389960D02*
X1919960D01*
X1590040D02*
Y5510040D01*
X1919960D01*
Y5389960D02*
Y5510040D01*
Y5450000D02*
X1941456D01*
X1568544D02*
X1590040D01*
X2134094Y5467048D02*
Y5572952D01*
Y5467048D02*
X2645906D01*
Y5572952D01*
X2134094D02*
X2645906D01*
D57*
X3478500Y6667000D02*
G03*
X3478500Y6667000I-398500J0D01*
G01*
X3055000Y6238500D02*
X3105000D01*
X3080000Y6213500D02*
Y6263500D01*
X2178303Y5413084D02*
X2204961D01*
Y5433077D01*
X2191632Y5426413D01*
X2184967D01*
X2178303Y5433077D01*
Y5446406D01*
X2184967Y5453071D01*
X2198296D01*
X2204961Y5446406D01*
X2594724Y5453071D02*
X2581395D01*
X2588060D01*
Y5413084D01*
X2594724Y5419748D01*
D58*
X3273858Y5960000D02*
G03*
X3273858Y5960000I-133858J0D01*
G01*
D59*
X1125000Y4310000D02*
X1520000D01*
X1125000Y5345000D02*
X1520000D01*
Y4310000D02*
Y5345000D01*
X1125000Y4310000D02*
Y5345000D01*
X4625019Y6759990D02*
Y6739997D01*
X4635016Y6730000D01*
X4675003D01*
X4685000Y6739997D01*
Y6759990D01*
X4675003Y6769987D01*
X4635016D01*
X4625019Y6759990D01*
X4630019Y6480000D02*
Y6519987D01*
Y6499993D01*
X4690000D01*
X1380000Y6275000D02*
Y6334981D01*
X1409990D01*
X1419987Y6324984D01*
Y6304990D01*
X1409990Y6294993D01*
X1380000D01*
X1399994D02*
X1419987Y6275000D01*
X1370000Y6549981D02*
Y6490000D01*
X1399990D01*
X1409987Y6499997D01*
Y6509993D01*
X1399990Y6519990D01*
X1370000D01*
X1399990D01*
X1409987Y6529987D01*
Y6539984D01*
X1399990Y6549981D01*
X1370000D01*
X1380000Y6769981D02*
Y6759984D01*
X1399994Y6739990D01*
X1419987Y6759984D01*
Y6769981D01*
X1399994Y6739990D02*
Y6710000D01*
X1409990Y6969981D02*
X1389997D01*
X1380000Y6959984D01*
Y6919997D01*
X1389997Y6910000D01*
X1409990D01*
X1419987Y6919997D01*
Y6959984D01*
X1409990Y6969981D01*
X4459987Y3884981D02*
X4420000D01*
Y3854990D01*
X4439993Y3864987D01*
X4449990D01*
X4459987Y3854990D01*
Y3834997D01*
X4449990Y3825000D01*
X4429997D01*
X4420000Y3834997D01*
X4479981Y3884981D02*
Y3844994D01*
X4499974Y3825000D01*
X4519968Y3844994D01*
Y3884981D01*
X4635016Y6254987D02*
X4625019Y6244990D01*
Y6224997D01*
X4635016Y6215000D01*
X4675003D01*
X4685000Y6224997D01*
Y6244990D01*
X4675003Y6254987D01*
X4655010D01*
Y6234993D01*
X4685000Y6274981D02*
X4625019D01*
X4685000Y6314968D01*
X4625019D01*
Y6334961D02*
X4685000D01*
Y6364952D01*
X4675003Y6374948D01*
X4635016D01*
X4625019Y6364952D01*
Y6334961D01*
X4695000Y6950000D02*
X4635019D01*
Y6979990D01*
X4645016Y6989987D01*
X4665010D01*
X4675007Y6979990D01*
Y6950000D01*
X1254974Y5265013D02*
Y5285007D01*
Y5275010D01*
X1204990D01*
X1194994Y5285007D01*
Y5295003D01*
X1204990Y5305000D01*
X1234981Y5235023D02*
Y5215029D01*
X1224984Y5205032D01*
X1194994D01*
Y5235023D01*
X1204990Y5245019D01*
X1214987Y5235023D01*
Y5205032D01*
X1194994Y5185039D02*
Y5155048D01*
X1204990Y5145052D01*
X1214987Y5155048D01*
Y5175042D01*
X1224984Y5185039D01*
X1234981Y5175042D01*
Y5145052D01*
X1175000Y5125058D02*
X1234981D01*
Y5095068D01*
X1224984Y5085071D01*
X1204990D01*
X1194994Y5095068D01*
Y5125058D01*
Y5035087D02*
Y5055081D01*
X1204990Y5065078D01*
X1224984D01*
X1234981Y5055081D01*
Y5035087D01*
X1224984Y5025091D01*
X1214987D01*
Y5065078D01*
X1234981Y5005097D02*
X1194994D01*
X1214987D01*
X1224984Y4995100D01*
X1234981Y4985104D01*
Y4975107D01*
X1194994Y4885136D02*
X1254974D01*
X1234981Y4865142D01*
X1254974Y4845149D01*
X1194994D01*
X1234981Y4815158D02*
Y4795165D01*
X1224984Y4785168D01*
X1194994D01*
Y4815158D01*
X1204990Y4825155D01*
X1214987Y4815158D01*
Y4785168D01*
X1194994Y4735184D02*
Y4755178D01*
X1204990Y4765175D01*
X1224984D01*
X1234981Y4755178D01*
Y4735184D01*
X1224984Y4725188D01*
X1214987D01*
Y4765175D01*
X1194994Y4705194D02*
Y4675204D01*
X1204990Y4665207D01*
X1214987Y4675204D01*
Y4695197D01*
X1224984Y4705194D01*
X1234981Y4695197D01*
Y4665207D01*
X1354981Y5265013D02*
Y5305000D01*
X1295000D01*
Y5265013D01*
X1324990Y5305000D02*
Y5285007D01*
X1295000Y5245019D02*
Y5225026D01*
Y5235023D01*
X1354981D01*
Y5245019D01*
X1295000Y5165045D02*
Y5185039D01*
X1304997Y5195036D01*
X1324990D01*
X1334987Y5185039D01*
Y5165045D01*
X1324990Y5155048D01*
X1314994D01*
Y5195036D01*
X1334987Y5095068D02*
Y5125058D01*
X1324990Y5135055D01*
X1304997D01*
X1295000Y5125058D01*
Y5095068D01*
X1344984Y5065078D02*
X1334987D01*
Y5075074D01*
Y5055081D01*
Y5065078D01*
X1304997D01*
X1295000Y5055081D01*
X1334987Y5025091D02*
X1295000D01*
X1314994D01*
X1324990Y5015094D01*
X1334987Y5005097D01*
Y4995100D01*
X1295000Y4955113D02*
Y4935120D01*
X1304997Y4925123D01*
X1324990D01*
X1334987Y4935120D01*
Y4955113D01*
X1324990Y4965110D01*
X1304997D01*
X1295000Y4955113D01*
Y4905129D02*
X1334987D01*
Y4875139D01*
X1324990Y4865142D01*
X1295000D01*
Y4845149D02*
Y4825155D01*
Y4835152D01*
X1334987D01*
Y4845149D01*
Y4755178D02*
Y4785168D01*
X1324990Y4795165D01*
X1304997D01*
X1295000Y4785168D01*
Y4755178D01*
Y4735184D02*
Y4705194D01*
X1304997Y4695197D01*
X1314994Y4705194D01*
Y4725188D01*
X1324990Y4735184D01*
X1334987Y4725188D01*
Y4695197D01*
X1324990Y4675204D02*
Y4635217D01*
X1354981Y4615223D02*
Y4595230D01*
Y4605226D01*
X1295000D01*
Y4615223D01*
Y4595230D01*
X1344984Y4525252D02*
X1354981Y4535249D01*
Y4555243D01*
X1344984Y4565239D01*
X1304997D01*
X1295000Y4555243D01*
Y4535249D01*
X1304997Y4525252D01*
X1354981Y4505259D02*
Y4465272D01*
Y4485265D01*
X1295000D01*
Y4385298D02*
Y4365304D01*
Y4375301D01*
X1354981D01*
X1344984Y4385298D01*
X1454977Y5270013D02*
X1464974Y5280010D01*
Y5300003D01*
X1454977Y5310000D01*
X1444981D01*
X1434984Y5300003D01*
Y5280010D01*
X1424987Y5270013D01*
X1414990D01*
X1404994Y5280010D01*
Y5300003D01*
X1414990Y5310000D01*
X1404994Y5240023D02*
Y5220029D01*
X1414990Y5210032D01*
X1434984D01*
X1444981Y5220029D01*
Y5240023D01*
X1434984Y5250019D01*
X1414990D01*
X1404994Y5240023D01*
Y5190039D02*
Y5170045D01*
Y5180042D01*
X1464974D01*
Y5190039D01*
Y5100068D02*
X1404994D01*
Y5130058D01*
X1414990Y5140055D01*
X1434984D01*
X1444981Y5130058D01*
Y5100068D01*
X1404994Y5050084D02*
Y5070078D01*
X1414990Y5080074D01*
X1434984D01*
X1444981Y5070078D01*
Y5050084D01*
X1434984Y5040087D01*
X1424987D01*
Y5080074D01*
X1444981Y5020094D02*
X1404994D01*
X1424987D01*
X1434984Y5010097D01*
X1444981Y5000100D01*
Y4990104D01*
X1404994Y4960113D02*
Y4940120D01*
Y4950116D01*
X1444981D01*
Y4960113D01*
X1404994Y4910129D02*
X1444981D01*
Y4880139D01*
X1434984Y4870142D01*
X1404994D01*
X1385000Y4830155D02*
Y4820158D01*
X1394997Y4810162D01*
X1444981D01*
Y4840152D01*
X1434984Y4850149D01*
X1414990D01*
X1404994Y4840152D01*
Y4810162D01*
Y4730188D02*
Y4700197D01*
X1414990Y4690200D01*
X1424987Y4700197D01*
Y4720191D01*
X1434984Y4730188D01*
X1444981Y4720191D01*
Y4690200D01*
X1454977Y4660210D02*
X1444981D01*
Y4670207D01*
Y4650213D01*
Y4660210D01*
X1414990D01*
X1404994Y4650213D01*
X1444981Y4610226D02*
Y4590233D01*
X1434984Y4580236D01*
X1404994D01*
Y4610226D01*
X1414990Y4620223D01*
X1424987Y4610226D01*
Y4580236D01*
X1454977Y4550246D02*
X1444981D01*
Y4560243D01*
Y4540249D01*
Y4550246D01*
X1414990D01*
X1404994Y4540249D01*
Y4510259D02*
Y4490265D01*
Y4500262D01*
X1444981D01*
Y4510259D01*
X1404994Y4450278D02*
Y4430285D01*
X1414990Y4420288D01*
X1434984D01*
X1444981Y4430285D01*
Y4450278D01*
X1434984Y4460275D01*
X1414990D01*
X1404994Y4450278D01*
Y4400294D02*
X1444981D01*
Y4370304D01*
X1434984Y4360307D01*
X1404994D01*
X3564000Y6156981D02*
X3603987D01*
X3583994D01*
Y6097000D01*
X3663968Y6156981D02*
X3623981D01*
Y6126990D01*
X3643974Y6136987D01*
X3653971D01*
X3663968Y6126990D01*
Y6106997D01*
X3653971Y6097000D01*
X3633977D01*
X3623981Y6106997D01*
X3569000Y6446981D02*
X3608987D01*
X3588994D01*
Y6387000D01*
X3658971D02*
Y6446981D01*
X3628981Y6416990D01*
X3668968D01*
X3610016Y7104990D02*
X3650003D01*
X3630010D01*
Y7045010D01*
X3669997Y7094993D02*
X3679994Y7104990D01*
X3699987D01*
X3709984Y7094993D01*
Y7084997D01*
X3699987Y7075000D01*
X3689990D01*
X3699987D01*
X3709984Y7065003D01*
Y7055007D01*
X3699987Y7045010D01*
X3679994D01*
X3669997Y7055007D01*
X3559000Y6746981D02*
X3598987D01*
X3578994D01*
Y6687000D01*
X3658968D02*
X3618981D01*
X3658968Y6726987D01*
Y6736984D01*
X3648971Y6746981D01*
X3628977D01*
X3618981Y6736984D01*
X1288000Y6076981D02*
X1327987D01*
X1307994D01*
Y6017000D01*
X1347981D02*
X1367974D01*
X1357977D01*
Y6076981D01*
X1347981Y6066984D01*
X1517000Y7109000D02*
Y7168981D01*
X1546990D01*
X1556987Y7158984D01*
Y7138990D01*
X1546990Y7128993D01*
X1517000D01*
X1536994D02*
X1556987Y7109000D01*
X1616968Y7168981D02*
X1576981D01*
Y7109000D01*
X1616968D01*
X1576981Y7138990D02*
X1596974D01*
X1636961Y7109000D02*
X1656955D01*
X1646958D01*
Y7168981D01*
X1636961Y7158984D01*
X3344000Y4207000D02*
Y4266981D01*
X3373990D01*
X3383987Y4256984D01*
Y4236990D01*
X3373990Y4226993D01*
X3344000D01*
X3363994D02*
X3383987Y4207000D01*
X3443968D02*
X3403981D01*
X3443968Y4246987D01*
Y4256984D01*
X3433971Y4266981D01*
X3413977D01*
X3403981Y4256984D01*
X3503948Y4207000D02*
X3463961D01*
X3503948Y4246987D01*
Y4256984D01*
X3493952Y4266981D01*
X3473958D01*
X3463961Y4256984D01*
X2444000Y3962000D02*
Y4021981D01*
X2473990D01*
X2483987Y4011984D01*
Y3991990D01*
X2473990Y3981994D01*
X2444000D01*
X2463994D02*
X2483987Y3962000D01*
X2543968D02*
X2503981D01*
X2543968Y4001987D01*
Y4011984D01*
X2533971Y4021981D01*
X2513977D01*
X2503981Y4011984D01*
X2563961Y3962000D02*
X2583955D01*
X2573958D01*
Y4021981D01*
X2563961Y4011984D01*
X3822000Y6222000D02*
Y6281981D01*
X3851990D01*
X3861987Y6271984D01*
Y6251990D01*
X3851990Y6241993D01*
X3822000D01*
X3841994D02*
X3861987Y6222000D01*
X3921968D02*
X3881981D01*
X3921968Y6261987D01*
Y6271984D01*
X3911971Y6281981D01*
X3891977D01*
X3881981Y6271984D01*
X3941961D02*
X3951958Y6281981D01*
X3971952D01*
X3981948Y6271984D01*
Y6231997D01*
X3971952Y6222000D01*
X3951958D01*
X3941961Y6231997D01*
Y6271984D01*
X2167000Y4202000D02*
Y4261981D01*
X2196990D01*
X2206987Y4251984D01*
Y4231990D01*
X2196990Y4221993D01*
X2167000D01*
X2186994D02*
X2206987Y4202000D01*
X2226981D02*
X2246974D01*
X2236977D01*
Y4261981D01*
X2226981Y4251984D01*
X2276964Y4211997D02*
X2286961Y4202000D01*
X2306955D01*
X2316952Y4211997D01*
Y4251984D01*
X2306955Y4261981D01*
X2286961D01*
X2276964Y4251984D01*
Y4241987D01*
X2286961Y4231990D01*
X2316952D01*
X3832000Y6722000D02*
Y6781981D01*
X3861990D01*
X3871987Y6771984D01*
Y6751990D01*
X3861990Y6741993D01*
X3832000D01*
X3851994D02*
X3871987Y6722000D01*
X3891981D02*
X3911974D01*
X3901977D01*
Y6781981D01*
X3891981Y6771984D01*
X3941964D02*
X3951961Y6781981D01*
X3971955D01*
X3981952Y6771984D01*
Y6761987D01*
X3971955Y6751990D01*
X3981952Y6741993D01*
Y6731997D01*
X3971955Y6722000D01*
X3951961D01*
X3941964Y6731997D01*
Y6741993D01*
X3951961Y6751990D01*
X3941964Y6761987D01*
Y6771984D01*
X3951961Y6751990D02*
X3971955D01*
X3829000Y6472000D02*
Y6531981D01*
X3858990D01*
X3868987Y6521984D01*
Y6501990D01*
X3858990Y6491993D01*
X3829000D01*
X3848994D02*
X3868987Y6472000D01*
X3888981D02*
X3908974D01*
X3898977D01*
Y6531981D01*
X3888981Y6521984D01*
X3938964Y6531981D02*
X3978952D01*
Y6521984D01*
X3938964Y6481997D01*
Y6472000D01*
X2452000Y4212000D02*
Y4271981D01*
X2481990D01*
X2491987Y4261984D01*
Y4241990D01*
X2481990Y4231993D01*
X2452000D01*
X2471994D02*
X2491987Y4212000D01*
X2511981D02*
X2531974D01*
X2521977D01*
Y4271981D01*
X2511981Y4261984D01*
X2601952Y4271981D02*
X2581958Y4261984D01*
X2561964Y4241990D01*
Y4221997D01*
X2571961Y4212000D01*
X2591955D01*
X2601952Y4221997D01*
Y4231993D01*
X2591955Y4241990D01*
X2561964D01*
X4289000Y5472000D02*
Y5531981D01*
X4318990D01*
X4328987Y5521984D01*
Y5501990D01*
X4318990Y5491993D01*
X4289000D01*
X4308993D02*
X4328987Y5472000D01*
X4348981D02*
X4368974D01*
X4358977D01*
Y5531981D01*
X4348981Y5521984D01*
X4438952Y5531981D02*
X4398964D01*
Y5501990D01*
X4418958Y5511987D01*
X4428955D01*
X4438952Y5501990D01*
Y5481997D01*
X4428955Y5472000D01*
X4408961D01*
X4398964Y5481997D01*
X3749000Y5467000D02*
Y5526981D01*
X3778990D01*
X3788987Y5516984D01*
Y5496990D01*
X3778990Y5486993D01*
X3749000D01*
X3768994D02*
X3788987Y5467000D01*
X3808981D02*
X3828974D01*
X3818977D01*
Y5526981D01*
X3808981Y5516984D01*
X3888955Y5467000D02*
Y5526981D01*
X3858964Y5496990D01*
X3898952D01*
X4259000Y5737000D02*
Y5796981D01*
X4288990D01*
X4298987Y5786984D01*
Y5766990D01*
X4288990Y5756993D01*
X4259000D01*
X4278993D02*
X4298987Y5737000D01*
X4318981D02*
X4338974D01*
X4328977D01*
Y5796981D01*
X4318981Y5786984D01*
X4368964D02*
X4378961Y5796981D01*
X4398955D01*
X4408952Y5786984D01*
Y5776987D01*
X4398955Y5766990D01*
X4388958D01*
X4398955D01*
X4408952Y5756993D01*
Y5746997D01*
X4398955Y5737000D01*
X4378961D01*
X4368964Y5746997D01*
X4000024Y5715010D02*
Y5774990D01*
X4030015D01*
X4040011Y5764993D01*
Y5745000D01*
X4030015Y5735003D01*
X4000024D01*
X4020018D02*
X4040011Y5715010D01*
X4060005D02*
X4079998D01*
X4070002D01*
Y5774990D01*
X4060005Y5764993D01*
X4149976Y5715010D02*
X4109989D01*
X4149976Y5754997D01*
Y5764993D01*
X4139979Y5774990D01*
X4119985D01*
X4109989Y5764993D01*
X3999000Y5472000D02*
Y5531981D01*
X4028990D01*
X4038987Y5521984D01*
Y5501990D01*
X4028990Y5491993D01*
X3999000D01*
X4018994D02*
X4038987Y5472000D01*
X4058981D02*
X4078974D01*
X4068977D01*
Y5531981D01*
X4058981Y5521984D01*
X4108964Y5472000D02*
X4128958D01*
X4118961D01*
Y5531981D01*
X4108964Y5521984D01*
X3392000Y5917000D02*
Y5976981D01*
X3421990D01*
X3431987Y5966984D01*
Y5946990D01*
X3421990Y5936993D01*
X3392000D01*
X3411994D02*
X3431987Y5917000D01*
X3451981D02*
X3471974D01*
X3461977D01*
Y5976981D01*
X3451981Y5966984D01*
X3501964D02*
X3511961Y5976981D01*
X3531955D01*
X3541952Y5966984D01*
Y5926997D01*
X3531955Y5917000D01*
X3511961D01*
X3501964Y5926997D01*
Y5966984D01*
X3977000Y4912000D02*
Y4971981D01*
X4006990D01*
X4016987Y4961984D01*
Y4941990D01*
X4006990Y4931993D01*
X3977000D01*
X3996994D02*
X4016987Y4912000D01*
X4036981Y4921997D02*
X4046977Y4912000D01*
X4066971D01*
X4076968Y4921997D01*
Y4961984D01*
X4066971Y4971981D01*
X4046977D01*
X4036981Y4961984D01*
Y4951987D01*
X4046977Y4941990D01*
X4076968D01*
X4447000Y6587000D02*
Y6646981D01*
X4476990D01*
X4486987Y6636984D01*
Y6616990D01*
X4476990Y6606993D01*
X4447000D01*
X4466993D02*
X4486987Y6587000D01*
X4506981Y6636984D02*
X4516977Y6646981D01*
X4536971D01*
X4546968Y6636984D01*
Y6626987D01*
X4536971Y6616990D01*
X4546968Y6606993D01*
Y6596997D01*
X4536971Y6587000D01*
X4516977D01*
X4506981Y6596997D01*
Y6606993D01*
X4516977Y6616990D01*
X4506981Y6626987D01*
Y6636984D01*
X4516977Y6616990D02*
X4536971D01*
X3392000Y6157000D02*
Y6216981D01*
X3421990D01*
X3431987Y6206984D01*
Y6186990D01*
X3421990Y6176993D01*
X3392000D01*
X3411994D02*
X3431987Y6157000D01*
X3451981Y6216981D02*
X3491968D01*
Y6206984D01*
X3451981Y6166997D01*
Y6157000D01*
X3252000Y5712000D02*
Y5771981D01*
X3281990D01*
X3291987Y5761984D01*
Y5741990D01*
X3281990Y5731993D01*
X3252000D01*
X3271994D02*
X3291987Y5712000D01*
X3351968Y5771981D02*
X3331974Y5761984D01*
X3311981Y5741990D01*
Y5721997D01*
X3321977Y5712000D01*
X3341971D01*
X3351968Y5721997D01*
Y5731993D01*
X3341971Y5741990D01*
X3311981D01*
X4297000Y4662000D02*
Y4721981D01*
X4326990D01*
X4336987Y4711984D01*
Y4691990D01*
X4326990Y4681993D01*
X4297000D01*
X4316993D02*
X4336987Y4662000D01*
X4396968Y4721981D02*
X4356981D01*
Y4691990D01*
X4376974Y4701987D01*
X4386971D01*
X4396968Y4691990D01*
Y4671997D01*
X4386971Y4662000D01*
X4366977D01*
X4356981Y4671997D01*
X4572000Y5457000D02*
Y5516981D01*
X4601990D01*
X4611987Y5506984D01*
Y5486990D01*
X4601990Y5476993D01*
X4572000D01*
X4591993D02*
X4611987Y5457000D01*
X4661971D02*
Y5516981D01*
X4631981Y5486990D01*
X4671968D01*
X3249000Y5467000D02*
Y5526981D01*
X3278990D01*
X3288987Y5516984D01*
Y5496990D01*
X3278990Y5486993D01*
X3249000D01*
X3268994D02*
X3288987Y5467000D01*
X3308981Y5516984D02*
X3318977Y5526981D01*
X3338971D01*
X3348968Y5516984D01*
Y5506987D01*
X3338971Y5496990D01*
X3328974D01*
X3338971D01*
X3348968Y5486993D01*
Y5476997D01*
X3338971Y5467000D01*
X3318977D01*
X3308981Y5476997D01*
X4547000Y5737000D02*
Y5796981D01*
X4576990D01*
X4586987Y5786984D01*
Y5766990D01*
X4576990Y5756993D01*
X4547000D01*
X4566993D02*
X4586987Y5737000D01*
X4646968D02*
X4606981D01*
X4646968Y5776987D01*
Y5786984D01*
X4636971Y5796981D01*
X4616977D01*
X4606981Y5786984D01*
X4562000Y5137000D02*
Y5196981D01*
X4591990D01*
X4601987Y5186984D01*
Y5166990D01*
X4591990Y5156993D01*
X4562000D01*
X4581993D02*
X4601987Y5137000D01*
X4621981D02*
X4641974D01*
X4631977D01*
Y5196981D01*
X4621981Y5186984D01*
X4125016Y7129990D02*
Y7070010D01*
X4165003D01*
X4224984D02*
X4184997D01*
X4224984Y7109997D01*
Y7119993D01*
X4214987Y7129990D01*
X4194994D01*
X4184997Y7119993D01*
X2762000Y4266981D02*
Y4207000D01*
X2801987D01*
X2821981D02*
X2841974D01*
X2831977D01*
Y4266981D01*
X2821981Y4256984D01*
X4012000Y4550981D02*
Y4491000D01*
Y4510993D01*
X4051987Y4550981D01*
X4021997Y4520990D01*
X4051987Y4491000D01*
X4071981D02*
X4091974D01*
X4081977D01*
Y4550981D01*
X4071981Y4540984D01*
X4161952Y4491000D02*
X4121964D01*
X4161952Y4530987D01*
Y4540984D01*
X4151955Y4550981D01*
X4131961D01*
X4121964Y4540984D01*
X1780000Y4034981D02*
Y3975000D01*
Y3994994D01*
X1819987Y4034981D01*
X1789997Y4004990D01*
X1819987Y3975000D01*
X1839981D02*
X1859974D01*
X1849977D01*
Y4034981D01*
X1839981Y4024984D01*
X1889964Y3975000D02*
X1909958D01*
X1899961D01*
Y4034981D01*
X1889964Y4024984D01*
X2955000Y4268981D02*
Y4209000D01*
Y4228993D01*
X2994987Y4268981D01*
X2964997Y4238990D01*
X2994987Y4209000D01*
X3014981D02*
X3034974D01*
X3024977D01*
Y4268981D01*
X3014981Y4258984D01*
X3064964D02*
X3074961Y4268981D01*
X3094955D01*
X3104952Y4258984D01*
Y4218997D01*
X3094955Y4209000D01*
X3074961D01*
X3064964Y4218997D01*
Y4258984D01*
X2135000Y5671981D02*
Y5612000D01*
Y5631993D01*
X2174987Y5671981D01*
X2144997Y5641990D01*
X2174987Y5612000D01*
X2194981Y5621997D02*
X2204977Y5612000D01*
X2224971D01*
X2234968Y5621997D01*
Y5661984D01*
X2224971Y5671981D01*
X2204977D01*
X2194981Y5661984D01*
Y5651987D01*
X2204977Y5641990D01*
X2234968D01*
X4775016Y7134990D02*
Y7075010D01*
Y7095003D01*
X4815003Y7134990D01*
X4785013Y7105000D01*
X4815003Y7075010D01*
X4834997Y7124993D02*
X4844994Y7134990D01*
X4864987D01*
X4874984Y7124993D01*
Y7114997D01*
X4864987Y7105000D01*
X4874984Y7095003D01*
Y7085007D01*
X4864987Y7075010D01*
X4844994D01*
X4834997Y7085007D01*
Y7095003D01*
X4844994Y7105000D01*
X4834997Y7114997D01*
Y7124993D01*
X4844994Y7105000D02*
X4864987D01*
X2091000Y4039981D02*
Y3980000D01*
Y3999994D01*
X2130987Y4039981D01*
X2100997Y4009990D01*
X2130987Y3980000D01*
X2150981Y4039981D02*
X2190968D01*
Y4029984D01*
X2150981Y3989997D01*
Y3980000D01*
X1433000Y4154981D02*
Y4095000D01*
Y4114993D01*
X1472987Y4154981D01*
X1442997Y4124990D01*
X1472987Y4095000D01*
X1532968Y4154981D02*
X1512974Y4144984D01*
X1492981Y4124990D01*
Y4104997D01*
X1502977Y4095000D01*
X1522971D01*
X1532968Y4104997D01*
Y4114993D01*
X1522971Y4124990D01*
X1492981D01*
X2123000Y5365981D02*
Y5306000D01*
Y5325993D01*
X2162987Y5365981D01*
X2132997Y5335990D01*
X2162987Y5306000D01*
X2222968Y5365981D02*
X2182981D01*
Y5335990D01*
X2202974Y5345987D01*
X2212971D01*
X2222968Y5335990D01*
Y5315997D01*
X2212971Y5306000D01*
X2192977D01*
X2182981Y5315997D01*
X1645000Y4298981D02*
Y4239000D01*
Y4258993D01*
X1684987Y4298981D01*
X1654997Y4268990D01*
X1684987Y4239000D01*
X1734971D02*
Y4298981D01*
X1704981Y4268990D01*
X1744968D01*
X4785016Y6169990D02*
Y6110010D01*
Y6130003D01*
X4825003Y6169990D01*
X4795013Y6140000D01*
X4825003Y6110010D01*
X4844997Y6159993D02*
X4854994Y6169990D01*
X4874987D01*
X4884984Y6159993D01*
Y6149997D01*
X4874987Y6140000D01*
X4864990D01*
X4874987D01*
X4884984Y6130003D01*
Y6120007D01*
X4874987Y6110010D01*
X4854994D01*
X4844997Y6120007D01*
X1070016Y6184990D02*
Y6125010D01*
Y6145003D01*
X1110003Y6184990D01*
X1080013Y6155000D01*
X1110003Y6125010D01*
X1169984D02*
X1129997D01*
X1169984Y6164997D01*
Y6174993D01*
X1159987Y6184990D01*
X1139994D01*
X1129997Y6174993D01*
X1041000Y7176981D02*
Y7117000D01*
Y7136993D01*
X1080987Y7176981D01*
X1050997Y7146990D01*
X1080987Y7117000D01*
X1100981D02*
X1120974D01*
X1110977D01*
Y7176981D01*
X1100981Y7166984D01*
X1695000Y5137981D02*
X1714994D01*
X1704997D01*
Y5078000D01*
X1695000D01*
X1714994D01*
X1784971Y5127984D02*
X1774974Y5137981D01*
X1754981D01*
X1744984Y5127984D01*
Y5087997D01*
X1754981Y5078000D01*
X1774974D01*
X1784971Y5087997D01*
X1804964Y5127984D02*
X1814961Y5137981D01*
X1834955D01*
X1844951Y5127984D01*
Y5117987D01*
X1834955Y5107990D01*
X1824958D01*
X1834955D01*
X1844951Y5097993D01*
Y5087997D01*
X1834955Y5078000D01*
X1814961D01*
X1804964Y5087997D01*
X4149000Y6348981D02*
X4168993D01*
X4158997D01*
Y6289000D01*
X4149000D01*
X4168993D01*
X4238971Y6338984D02*
X4228974Y6348981D01*
X4208981D01*
X4198984Y6338984D01*
Y6298997D01*
X4208981Y6289000D01*
X4228974D01*
X4238971Y6298997D01*
X4298952Y6289000D02*
X4258964D01*
X4298952Y6328987D01*
Y6338984D01*
X4288955Y6348981D01*
X4268961D01*
X4258964Y6338984D01*
X2749000Y5739981D02*
X2768994D01*
X2758997D01*
Y5680000D01*
X2749000D01*
X2768994D01*
X2838971Y5729984D02*
X2828974Y5739981D01*
X2808981D01*
X2798984Y5729984D01*
Y5689997D01*
X2808981Y5680000D01*
X2828974D01*
X2838971Y5689997D01*
X2858964Y5680000D02*
X2878958D01*
X2868961D01*
Y5739981D01*
X2858964Y5729984D01*
X1252000Y4152981D02*
Y4093000D01*
X1281990D01*
X1291987Y4102997D01*
Y4142984D01*
X1281990Y4152981D01*
X1252000D01*
X1311981Y4142984D02*
X1321977Y4152981D01*
X1341971D01*
X1351968Y4142984D01*
Y4132987D01*
X1341971Y4122990D01*
X1331974D01*
X1341971D01*
X1351968Y4112993D01*
Y4102997D01*
X1341971Y4093000D01*
X1321977D01*
X1311981Y4102997D01*
X1508000Y5607981D02*
Y5548000D01*
X1537990D01*
X1547987Y5557997D01*
Y5597984D01*
X1537990Y5607981D01*
X1508000D01*
X1607968Y5548000D02*
X1567981D01*
X1607968Y5587987D01*
Y5597984D01*
X1597971Y5607981D01*
X1577977D01*
X1567981Y5597984D01*
X1562000Y5867981D02*
Y5808000D01*
X1591990D01*
X1601987Y5817997D01*
Y5857984D01*
X1591990Y5867981D01*
X1562000D01*
X1621981Y5808000D02*
X1641974D01*
X1631977D01*
Y5867981D01*
X1621981Y5857984D01*
X2485987Y3783984D02*
X2475990Y3793981D01*
X2455997D01*
X2446000Y3783984D01*
Y3743997D01*
X2455997Y3734000D01*
X2475990D01*
X2485987Y3743997D01*
X2505981Y3734000D02*
X2525974D01*
X2515977D01*
Y3793981D01*
X2505981Y3783984D01*
X2585955Y3734000D02*
Y3793981D01*
X2555964Y3763990D01*
X2595952D01*
X4015987Y5238984D02*
X4005990Y5248981D01*
X3985997D01*
X3976000Y5238984D01*
Y5198997D01*
X3985997Y5189000D01*
X4005990D01*
X4015987Y5198997D01*
X4035981Y5189000D02*
X4055974D01*
X4045977D01*
Y5248981D01*
X4035981Y5238984D01*
X4085964D02*
X4095961Y5248981D01*
X4115955D01*
X4125952Y5238984D01*
Y5228987D01*
X4115955Y5218990D01*
X4105958D01*
X4115955D01*
X4125952Y5208993D01*
Y5198997D01*
X4115955Y5189000D01*
X4095961D01*
X4085964Y5198997D01*
X4310987Y5253984D02*
X4300990Y5263981D01*
X4280997D01*
X4271000Y5253984D01*
Y5213997D01*
X4280997Y5204000D01*
X4300990D01*
X4310987Y5213997D01*
X4330981Y5204000D02*
X4350974D01*
X4340977D01*
Y5263981D01*
X4330981Y5253984D01*
X4420952Y5204000D02*
X4380964D01*
X4420952Y5243987D01*
Y5253984D01*
X4410955Y5263981D01*
X4390961D01*
X4380964Y5253984D01*
X1945987Y5348984D02*
X1935990Y5358981D01*
X1915997D01*
X1906000Y5348984D01*
Y5308997D01*
X1915997Y5299000D01*
X1935990D01*
X1945987Y5308997D01*
X1965981Y5299000D02*
X1985974D01*
X1975977D01*
Y5358981D01*
X1965981Y5348984D01*
X2015964Y5299000D02*
X2035958D01*
X2025961D01*
Y5358981D01*
X2015964Y5348984D01*
X3476987Y3978984D02*
X3466990Y3988981D01*
X3446997D01*
X3437000Y3978984D01*
Y3938997D01*
X3446997Y3929000D01*
X3466990D01*
X3476987Y3938997D01*
X3496981D02*
X3506977Y3929000D01*
X3526971D01*
X3536968Y3938997D01*
Y3978984D01*
X3526971Y3988981D01*
X3506977D01*
X3496981Y3978984D01*
Y3968987D01*
X3506977Y3958990D01*
X3536968D01*
X3620987Y4253984D02*
X3610990Y4263981D01*
X3590997D01*
X3581000Y4253984D01*
Y4213997D01*
X3590997Y4204000D01*
X3610990D01*
X3620987Y4213997D01*
X3640981Y4253984D02*
X3650977Y4263981D01*
X3670971D01*
X3680968Y4253984D01*
Y4243987D01*
X3670971Y4233990D01*
X3680968Y4223993D01*
Y4213997D01*
X3670971Y4204000D01*
X3650977D01*
X3640981Y4213997D01*
Y4223993D01*
X3650977Y4233990D01*
X3640981Y4243987D01*
Y4253984D01*
X3650977Y4233990D02*
X3670971D01*
X4245987Y6633984D02*
X4235990Y6643981D01*
X4215997D01*
X4206000Y6633984D01*
Y6593997D01*
X4215997Y6584000D01*
X4235990D01*
X4245987Y6593997D01*
X4265981Y6643981D02*
X4305968D01*
Y6633984D01*
X4265981Y6593997D01*
Y6584000D01*
X4355003Y4989993D02*
X4345007Y4999990D01*
X4325013D01*
X4315016Y4989993D01*
Y4950007D01*
X4325013Y4940010D01*
X4345007D01*
X4355003Y4950007D01*
X4414984Y4999990D02*
X4394990Y4989993D01*
X4374997Y4970000D01*
Y4950007D01*
X4384994Y4940010D01*
X4404987D01*
X4414984Y4950007D01*
Y4960003D01*
X4404987Y4970000D01*
X4374997D01*
X2765003Y6164993D02*
X2755006Y6174990D01*
X2735013D01*
X2725016Y6164993D01*
Y6125007D01*
X2735013Y6115010D01*
X2755006D01*
X2765003Y6125007D01*
X2824984Y6174990D02*
X2784997D01*
Y6145000D01*
X2804990Y6154997D01*
X2814987D01*
X2824984Y6145000D01*
Y6125007D01*
X2814987Y6115010D01*
X2794994D01*
X2784997Y6125007D01*
X3047987Y6181984D02*
X3037990Y6191981D01*
X3017997D01*
X3008000Y6181984D01*
Y6141997D01*
X3017997Y6132000D01*
X3037990D01*
X3047987Y6141997D01*
X3097971Y6132000D02*
Y6191981D01*
X3067981Y6161990D01*
X3107968D01*
X3550987Y5518984D02*
X3540990Y5528981D01*
X3520997D01*
X3511000Y5518984D01*
Y5478997D01*
X3520997Y5469000D01*
X3540990D01*
X3550987Y5478997D01*
X3570981Y5518984D02*
X3580977Y5528981D01*
X3600971D01*
X3610968Y5518984D01*
Y5508987D01*
X3600971Y5498990D01*
X3590974D01*
X3600971D01*
X3610968Y5488993D01*
Y5478997D01*
X3600971Y5469000D01*
X3580977D01*
X3570981Y5478997D01*
X3860003Y5854993D02*
X3850006Y5864990D01*
X3830013D01*
X3820016Y5854993D01*
Y5815007D01*
X3830013Y5805010D01*
X3850006D01*
X3860003Y5815007D01*
X3919984Y5805010D02*
X3879997D01*
X3919984Y5844997D01*
Y5854993D01*
X3909987Y5864990D01*
X3889994D01*
X3879997Y5854993D01*
X2765000Y7084993D02*
X2755003Y7094990D01*
X2735010D01*
X2725013Y7084993D01*
Y7045007D01*
X2735010Y7035010D01*
X2755003D01*
X2765000Y7045007D01*
X2784994Y7035010D02*
X2804987D01*
X2794990D01*
Y7094990D01*
X2784994Y7084993D01*
X3240011Y3979994D02*
X3230015Y3989990D01*
X3210021D01*
X3200024Y3979994D01*
Y3940006D01*
X3210021Y3930010D01*
X3230015D01*
X3240011Y3940006D01*
X3260005Y3930010D02*
X3279998D01*
X3270002D01*
Y3989990D01*
X3260005Y3979994D01*
X3339979Y3989990D02*
X3319985D01*
X3309989Y3979994D01*
Y3940006D01*
X3319985Y3930010D01*
X3339979D01*
X3349976Y3940006D01*
Y3979994D01*
X3339979Y3989990D01*
X2389000Y7149981D02*
Y7090000D01*
X2418990D01*
X2428987Y7099997D01*
Y7109993D01*
X2418990Y7119990D01*
X2389000D01*
X2418990D01*
X2428987Y7129987D01*
Y7139984D01*
X2418990Y7149981D01*
X2389000D01*
X2488968Y7090000D02*
X2448981D01*
X2488968Y7129987D01*
Y7139984D01*
X2478971Y7149981D01*
X2458977D01*
X2448981Y7139984D01*
X2074000Y7164981D02*
Y7105000D01*
X2103990D01*
X2113987Y7114997D01*
Y7124993D01*
X2103990Y7134990D01*
X2074000D01*
X2103990D01*
X2113987Y7144987D01*
Y7154984D01*
X2103990Y7164981D01*
X2074000D01*
X2133981Y7105000D02*
X2153974D01*
X2143977D01*
Y7164981D01*
X2133981Y7154984D01*
D60*
X4165984Y6964016D02*
X4614016D01*
X4165984Y6715984D02*
Y6964016D01*
Y6715984D02*
X4614016D01*
Y6964016D01*
X2561654Y6703740D02*
Y6841536D01*
Y6408464D02*
Y6546260D01*
Y6014764D02*
Y6250984D01*
X2419922Y7018700D02*
X2561654D01*
X2419922Y5837598D02*
Y7018700D01*
Y5837598D02*
X2561654D01*
X2246654Y6719016D02*
Y6856812D01*
Y6423740D02*
Y6561536D01*
Y6030040D02*
Y6266260D01*
X2104922Y7033976D02*
X2246654D01*
X2104922Y5852874D02*
Y7033976D01*
Y5852874D02*
X2246654D01*
%TF.MD5,8aa58a8f62926a1b41ad765f1372b031*%
M02*
